<?xml version="1.0" encoding="UTF-8"?>
<svg version="1.1" xmlns="http://www.w3.org/2000/svg" width="400" height="517">
<path d="M0 0 C132 0 264 0 400 0 C400 170.61 400 341.22 400 517 C268 517 136 517 0 517 C0 346.39 0 175.78 0 0 Z " fill="#FEFEFE" transform="translate(0,0)"/>
<path d="M0 0 C100.65 0 201.3 0 305 0 C305 66.99 305 133.98 305 203 C214.29858974 203.07991314 214.29858974 203.07991314 190.25390625 203.06640625 C189.35609161 203.06593143 188.45827696 203.0654566 187.53325582 203.06496739 C159.05158211 203.04884774 130.57096324 202.95572601 102.08984375 202.77734375 C101.30197393 202.77243966 100.5141041 202.76753558 99.70235944 202.76248288 C66.46792094 202.55436295 33.23398977 202.26587192 0 202 C0 135.34 0 68.68 0 0 Z " fill="#9EE0D3" transform="translate(48,52)"/>
<path d="M0 0 C54.12 0 108.24 0 164 0 C160.45663554 4.1339252 157.11611955 8.00791333 153.29226685 11.80780029 C152.40053268 12.69657364 151.50879852 13.58534698 150.59004211 14.50105286 C149.62012258 15.46265219 148.65016591 16.42421407 147.68017578 17.38574219 C146.64458076 18.41613518 145.60923293 19.44677667 144.57411194 20.47764587 C142.35742877 22.68444313 140.13928584 24.88975864 137.92004776 27.09398651 C134.41262023 30.57824343 130.91016645 34.06747133 127.40866089 37.55767822 C117.45578328 47.47720324 107.49864334 57.39242272 97.53125 67.29736328 C92.01678259 72.77736176 86.50764472 78.2626589 81.00443828 83.75396657 C77.52304383 87.22725 74.03516935 90.69385084 70.54245305 94.15574694 C68.37765279 96.30458871 66.21913043 98.45964947 64.06239128 100.61657906 C63.05878364 101.61775695 62.05258334 102.61634336 61.04366875 103.61217308 C59.67085831 104.96791077 58.30804481 106.33374944 56.9458313 107.70013428 C56.1793181 108.46258327 55.41280491 109.22503227 54.62306404 110.01058578 C52.6839225 111.95950271 52.6839225 111.95950271 53 115 C54.48733885 116.63424265 54.48733885 116.63424265 56.48999023 118.18557739 C60.94666916 121.92359263 65.0547395 125.91363941 69.16015625 130.03076172 C69.93185654 130.80070969 70.70355682 131.57065765 71.49864197 132.36393738 C74.02243182 134.88336203 76.54258939 137.40638332 79.0625 139.9296875 C80.82211951 141.68863292 82.5818874 143.44742991 84.34179688 145.20608521 C88.01481062 148.87762963 91.68602158 152.55096464 95.35595703 156.22558594 C99.1306878 160.00490037 102.90758024 163.78202744 106.68701172 167.55664062 C111.25670027 172.12055352 115.8239643 176.68687657 120.38912964 181.25531387 C122.1300201 182.9968733 123.87165887 184.73768502 125.61404419 186.47774887 C128.0367826 188.89796477 130.4563215 191.3213332 132.875 193.74560547 C133.60113998 194.46972122 134.32727997 195.19383698 135.07542419 195.93989563 C135.72858109 196.59587234 136.38173798 197.25184906 137.0546875 197.92770386 C137.91296143 198.78654332 137.91296143 198.78654332 138.78857422 199.66273308 C140 201 140 201 140 202 C93.8 202 47.6 202 0 202 C0 135.34 0 68.68 0 0 Z " fill="#CABB8F" transform="translate(48,52)"/>
<path d="M0 0 C0.66 0 1.32 0 2 0 C2 52.47 2 104.94 2 159 C-50.47 159 -102.94 159 -157 159 C-152.96921168 154.29741362 -148.96608256 149.82474093 -144.59062195 145.47709656 C-143.97366811 144.85999386 -143.35671427 144.24289117 -142.72106487 143.60708839 C-140.67147138 141.55818448 -138.61833583 139.51286853 -136.56518555 137.4675293 C-135.08788657 135.99215112 -133.61081631 134.5165439 -132.13395691 133.04072571 C-128.96300183 129.87292311 -125.790502 126.70667871 -122.61679649 123.5416317 C-117.60195611 118.54033567 -112.59095196 113.53520783 -107.58052063 108.52949524 C-96.95247235 97.91253226 -86.32019378 87.29981027 -75.6875 76.6875 C-64.19123378 65.21324683 -52.6956947 53.73827078 -41.20500976 42.25842792 C-36.21989409 37.27830548 -31.23234773 32.30063389 -26.24295175 27.3247999 C-23.14826653 24.23754897 -20.05563199 21.14825017 -16.96356392 18.05837822 C-15.52484687 16.62154044 -14.08526214 15.18557091 -12.64476776 13.75051498 C-10.68570484 11.79861881 -8.72970318 9.84370638 -6.77445984 7.88798523 C-5.90950481 7.02842264 -5.90950481 7.02842264 -5.02707595 6.15149516 C-2.15898182 3.34436579 -2.15898182 3.34436579 0 0 Z " fill="#675B45" transform="translate(351,95)"/>
<path d="M0 0 C1.1092183 0.94153766 2.21711379 1.88463382 3.32446289 2.82836914 C3.94156631 3.35338516 4.55866974 3.87840118 5.19447327 4.41932678 C8.67022554 7.46222192 11.83299655 10.81858216 15.05859375 14.12109375 C17.18069128 16.24869693 19.39205793 18.22307713 21.67382812 20.17800903 C26.01279338 23.96044088 30.09696623 27.95598654 34.16015625 32.03076172 C34.93185654 32.80070969 35.70355682 33.57065765 36.49864197 34.36393738 C39.02243182 36.88336203 41.54258939 39.40638332 44.0625 41.9296875 C45.82211951 43.68863292 47.5818874 45.44742991 49.34179688 47.20608521 C53.01481062 50.87762963 56.68602158 54.55096464 60.35595703 58.22558594 C64.1306878 62.00490037 67.90758024 65.78202744 71.68701172 69.55664062 C76.25670027 74.12055352 80.8239643 78.68687657 85.38912964 83.25531387 C87.1300201 84.9968733 88.87165887 86.73768502 90.61404419 88.47774887 C93.0367826 90.89796477 95.4563215 93.3213332 97.875 95.74560547 C98.60113998 96.46972122 99.32727997 97.19383698 100.07542419 97.93989563 C100.72858109 98.59587234 101.38173798 99.25184906 102.0546875 99.92770386 C102.62687012 100.5002635 103.19905273 101.07282314 103.78857422 101.66273308 C105 103 105 103 105 104 C58.8 104 12.6 104 -35 104 C-35 35 -35 35 -17.5 13.1875 C-11.64929524 8.45818032 -6.20959817 4.09333314 0 0 Z " fill="#6FB5A8" transform="translate(83,150)"/>
<path d="M0 0 C47.19 0 94.38 0 143 0 C138.89692374 4.7869223 134.80672795 9.33411759 130.35205078 13.76147461 C129.39976341 14.71398102 129.39976341 14.71398102 128.42823792 15.68572998 C126.35296051 17.76031704 124.27417599 19.83135073 122.1953125 21.90234375 C120.74635295 23.34943599 119.29761568 24.79675084 117.84909058 26.24427795 C114.0537669 30.03580107 110.25544869 33.82431021 106.45648193 37.61218262 C102.57332841 41.4850689 98.69303805 45.36082152 94.8125 49.23632812 C87.21112017 56.82701408 79.60657116 64.41451649 72 72 C67.19385826 67.98971979 62.6559084 63.80065022 58.23852539 59.36791992 C57.60352112 58.73466797 56.96851685 58.10141602 56.31427002 57.44897461 C54.23956192 55.37862847 52.16848613 53.30469346 50.09765625 51.23046875 C48.65049092 49.78397758 47.20317722 48.33763484 45.75572205 46.89143372 C42.73582998 43.87301051 39.71774087 40.85279922 36.70092773 37.83129883 C32.82479097 33.94943448 28.94414087 30.07211784 25.06215763 26.19610119 C22.07936867 23.21691365 19.09895051 20.23536357 16.11926079 17.25307655 C14.68818091 15.82132782 13.25635296 14.39032642 11.82377815 12.96007347 C9.83200123 10.97081948 7.84342959 8.97841734 5.85571289 6.98510742 C5.2589122 6.39033096 4.66211151 5.7955545 4.04722595 5.18275452 C0 1.11426854 0 1.11426854 0 0 Z " fill="#71B9AB" transform="translate(69,52)"/>
<path d="M0 0 C0.66 0 1.32 0 2 0 C2 52.47 2 104.94 2 159 C1.67 159 1.34 159 1 159 C0.67 112.14 0.34 65.28 0 17 C-15.11490234 32.3759375 -15.11490234 32.3759375 -30.53515625 48.0625 C-36.93402546 54.53800831 -43.33471686 61.01152916 -49.74414062 67.4765625 C-59.91823791 77.73964474 -70.08407744 88.0100567 -80.19946289 98.33105469 C-87.56675881 105.84803119 -94.96019776 113.3381114 -102.38599294 120.79732037 C-106.3158858 124.74674089 -110.23158129 128.7082042 -114.1162281 132.70217896 C-117.77670459 136.46482361 -121.47125592 140.19036142 -125.19437981 143.89099503 C-126.55106246 145.25178899 -127.89503538 146.62539881 -129.22460938 148.0126915 C-140.32043746 159.56590129 -140.32043746 159.56590129 -148.36217064 159.87692356 C-151.27972284 159.78874858 -154.12201418 159.47731858 -157 159 C-153.05745576 154.27864829 -148.95288018 149.81162248 -144.59062195 145.47709656 C-143.97366811 144.85999386 -143.35671427 144.24289117 -142.72106487 143.60708839 C-140.67147138 141.55818448 -138.61833583 139.51286853 -136.56518555 137.4675293 C-135.08788657 135.99215112 -133.61081631 134.5165439 -132.13395691 133.04072571 C-128.96300183 129.87292311 -125.790502 126.70667871 -122.61679649 123.5416317 C-117.60195611 118.54033567 -112.59095196 113.53520783 -107.58052063 108.52949524 C-96.95247235 97.91253226 -86.32019378 87.29981027 -75.6875 76.6875 C-64.19123378 65.21324683 -52.6956947 53.73827078 -41.20500976 42.25842792 C-36.21989409 37.27830548 -31.23234773 32.30063389 -26.24295175 27.3247999 C-23.14826653 24.23754897 -20.05563199 21.14825017 -16.96356392 18.05837822 C-15.52484687 16.62154044 -14.08526214 15.18557091 -12.64476776 13.75051498 C-10.68570484 11.79861881 -8.72970318 9.84370638 -6.77445984 7.88798523 C-5.90950481 7.02842264 -5.90950481 7.02842264 -5.02707595 6.15149516 C-2.15898182 3.34436579 -2.15898182 3.34436579 0 0 Z " fill="#A7623C" transform="translate(351,95)"/>
<path d="M0 0 C0.66 0 1.32 0 2 0 C3.25415039 1.27539062 3.25415039 1.27539062 4.78515625 3.15625 C10.29244165 9.63305751 16.4088451 15.51465793 22.4375 21.5 C23.6584369 22.71591114 24.87914192 23.93205516 26.09960938 25.1484375 C29.06374013 28.10164966 32.03098958 31.05169398 35 34 C33.65599882 36.99188926 32.16903084 39.0797762 29.85131836 41.39160156 C29.21403305 42.0319635 28.57674774 42.67232544 27.92015076 43.33209229 C27.23364944 44.01140808 26.54714813 44.69072388 25.83984375 45.390625 C25.13477188 46.09523865 24.42970001 46.79985229 23.70326233 47.52581787 C22.21526641 49.01079705 20.72484513 50.49334937 19.23217773 51.97363281 C16.93739001 54.25010911 14.65076006 56.53454124 12.36523438 58.8203125 C10.91974304 60.26089064 9.47379527 61.70101096 8.02734375 63.140625 C6.99455544 64.17174408 6.99455544 64.17174408 5.94090271 65.22369385 C5.30676956 65.85144714 4.67263641 66.47920044 4.01928711 67.12597656 C3.45906357 67.68238831 2.89884003 68.23880005 2.32164001 68.81207275 C1 70 1 70 0 70 C0 46.9 0 23.8 0 0 Z " fill="#F06E2D" transform="translate(48,115)"/>
<path d="M0 0 C7.2467389 -1.07451238 14.65124991 -2.0497308 20.9331665 2.37927246 C25.01321818 5.75390361 28.6270689 9.57806188 32.2578125 13.421875 C33.62257975 14.80569602 34.99080014 16.18611908 36.36227417 17.56329346 C39.21057889 20.4405236 42.02913912 23.34291246 44.82666016 26.26953125 C48.41695887 30.02491529 52.05420577 33.73008027 55.71154976 37.42008591 C59.20211326 40.94597223 62.66824018 44.49547826 66.1328125 48.046875 C66.79623783 48.72273399 67.45966316 49.39859299 68.14319229 50.09493256 C70.0066287 52.00199262 71.85175365 53.92497827 73.69189453 55.85449219 C74.24852783 56.41985687 74.80516113 56.98522156 75.37866211 57.56771851 C76.88088989 59.16522217 76.88088989 59.16522217 79 62 C78.80387741 64.6718925 78.22783469 65.76178436 76.37109375 67.703125 C75.73300781 68.21359375 75.09492188 68.7240625 74.4375 69.25 C73.79683594 69.77078125 73.15617187 70.2915625 72.49609375 70.828125 C72.00238281 71.21484375 71.50867188 71.6015625 71 72 C61.73982727 62.7629452 52.48231805 53.52323032 43.2282486 44.28006077 C38.93164356 39.98868577 34.63410855 35.69825058 30.33447266 31.40991211 C26.1891161 27.27538016 22.04617066 23.13844659 17.90492249 18.99979973 C16.32046569 17.41719796 14.73512565 15.83547999 13.14891052 14.25464058 C10.93615741 12.04909223 8.7264984 9.84048958 6.51757812 7.63110352 C5.85367569 6.97079636 5.18977325 6.3104892 4.50575256 5.63017273 C0 1.11405216 0 1.11405216 0 0 Z " fill="#655A44" transform="translate(69,52)"/>
<path d="M0 0 C0.66 0 1.32 0 2 0 C2.51978556 4.06926349 2.2891474 5.61165719 -0.20090675 8.9559536 C-1.23529993 10.02331323 -2.28658648 11.07445318 -3.35049438 12.11239624 C-3.92612543 12.69738722 -4.50175647 13.28237821 -5.09483087 13.88509619 C-7.02914172 15.84335671 -8.98421737 17.77945059 -10.93994141 19.71630859 C-12.3304529 21.11494935 -13.71968453 22.51486353 -15.10772705 23.91595459 C-18.88327383 27.7188863 -22.67759376 31.50255552 -26.47634172 35.28229475 C-30.44636294 39.23714266 -34.40174344 43.20658894 -38.35946655 47.17373657 C-45.00866681 53.83385776 -51.67042982 60.48121654 -58.33935547 67.12158203 C-66.05323941 74.80281172 -73.74526955 82.50541848 -81.42630255 90.21948755 C-88.01744032 96.83783857 -94.62018093 103.44444309 -101.2327894 110.04134238 C-105.18404979 113.98324062 -109.13112545 117.92909939 -113.06779861 121.88557053 C-116.76921269 125.60429556 -120.48495584 129.30807591 -124.21234894 133.00075531 C-125.57928212 134.35974352 -126.94111393 135.72388477 -128.29745865 137.09344101 C-130.14733573 138.95967054 -132.01463003 140.80649975 -133.88760376 142.64950562 C-134.42264137 143.19792755 -134.95767898 143.74634949 -135.50892985 144.31139028 C-138.18906101 146.90874295 -139.61063444 147.96150054 -143.38202477 148.3344059 C-144.24595659 148.22405195 -145.10988842 148.11369801 -146 148 C-145.38125 147.113125 -144.7625 146.22625 -144.125 145.3125 C-141.98972513 142.24993211 -141.98972513 142.24993211 -141.10546875 139.546875 C-139.8581854 136.67327519 -138.43663977 135.10063061 -136.1875 132.9375 C-135.11242187 131.89916016 -135.11242187 131.89916016 -134.015625 130.83984375 C-132 129 -132 129 -129.4375 127 C-126.44403204 124.54382116 -124.05553339 121.7481878 -121.55078125 118.8046875 C-118.40109125 115.13930518 -118.40109125 115.13930518 -115.671875 114.19140625 C-112.27807933 112.67809093 -110.67753252 110.74771679 -108.25 107.9375 C-102.67175573 101.59419958 -96.71835143 95.67573759 -90.66308594 89.78881836 C-89.95829102 89.0953833 -89.25349609 88.40194824 -88.52734375 87.6875 C-87.57976196 86.76517578 -87.57976196 86.76517578 -86.61303711 85.82421875 C-84.97908026 83.97634141 -83.99050699 82.24841674 -83 80 C-82.34 80 -81.68 80 -81 80 C-81 79.34 -81 78.68 -81 78 C-79.52520322 76.73588848 -77.9928273 75.53859807 -76.4375 74.375 C-72.33979725 71.18789786 -69.01977036 67.9143132 -65.7109375 63.9375 C-63.35078898 61.2648204 -60.69935024 59.02863356 -57.98046875 56.73046875 C-55.41305964 54.48715073 -53.07430376 52.05906205 -50.73828125 49.578125 C-49 48 -49 48 -46.7734375 46.77734375 C-42.72335951 44.18187124 -39.63670282 40.76567286 -36.3125 37.3125 C-34.97991178 35.92909812 -33.64289418 34.54994464 -32.30078125 33.17578125 C-31.71466064 32.56645752 -31.12854004 31.95713379 -30.5246582 31.3293457 C-29 30 -29 30 -27 30 C-26.74114014 29.41444336 -26.48228027 28.82888672 -26.21557617 28.22558594 C-24.90778276 25.8311604 -23.50263899 24.28906671 -21.55078125 22.390625 C-20.86693359 21.71773437 -20.18308594 21.04484375 -19.47851562 20.3515625 C-18.40633789 19.31128906 -18.40633789 19.31128906 -17.3125 18.25 C-12.48202723 13.54040096 -7.82101122 8.78471495 -3.43432617 3.65527344 C-2.33948962 2.39178547 -1.18217361 1.18217361 0 0 Z " fill="#E36727" transform="translate(350,105)"/>
<path d="M0 0 C64.68 0 129.36 0 196 0 C196 1.32 196 2.64 196 4 C131.32 4 66.64 4 0 4 C0 2.68 0 1.36 0 0 Z " fill="#6E624C" transform="translate(157,38)"/>
<path d="M0 0 C0 47.19 0 94.38 0 143 C-47.19 143 -94.38 143 -143 143 C-139.13043787 138.48551085 -135.31643356 134.17114038 -131.12211609 129.99513245 C-130.28243993 129.1531163 -130.28243993 129.1531163 -129.42580062 128.29408973 C-127.56967071 126.43400541 -125.71002831 124.57747522 -123.8503418 122.72094727 C-122.51098794 121.380237 -121.17184662 120.03931438 -119.832901 118.69819641 C-116.21167016 115.0724225 -112.58730258 111.44979964 -108.96221137 107.82788587 C-105.16819839 104.03640951 -101.37663127 100.24248849 -97.58467102 96.44895935 C-91.22385333 90.0863251 -84.86093572 83.72579658 -78.49682617 77.36645508 C-71.12965161 70.00473618 -63.76610539 62.63940275 -56.40440625 55.27220875 C-50.08429066 48.94756411 -43.76223967 42.62485905 -37.43854839 36.30378956 C-33.66098863 32.52779191 -29.88411523 28.75111443 -26.10898399 24.97268867 C-22.56622104 21.42704955 -19.02104478 17.8838417 -15.47394371 14.34254265 C-14.16892533 13.03885264 -12.86476847 11.7342996 -11.56151199 10.42884827 C-9.79095358 8.65558171 -8.01738367 6.88538525 -6.2429657 5.11598206 C-5.72080229 4.59158793 -5.19863888 4.0671938 -4.66065234 3.52690893 C-1.11415074 0 -1.11415074 0 0 0 Z M-2 3 C-3.64608952 4.74362392 -5.25423917 6.50869447 -6.85546875 8.29296875 C-12.16138189 14.12128259 -17.65423842 19.73913085 -23.23828125 25.30078125 C-24.46247269 26.5201387 -24.46247269 26.5201387 -25.71139526 27.76412964 C-28.24321559 30.28215543 -30.7774197 32.79775651 -33.3125 35.3125 C-36.68656932 38.6597834 -40.0571661 42.01050998 -43.42578125 45.36328125 C-44.18321121 46.11241287 -44.94064117 46.86154449 -45.72102356 47.63337708 C-49.82232925 51.71590659 -53.73400425 55.88366261 -57.47111511 60.3033905 C-59.73771737 62.81864783 -62.39770021 64.84064486 -65 67 C-65.97866115 68.10736179 -66.93614385 69.23369509 -67.875 70.375 C-69.88285981 72.79782769 -71.92789209 74.87005565 -74.34423828 76.8815918 C-80.75587526 82.42434161 -86.64054722 88.51757286 -92.6171875 94.51953125 C-93.92353704 95.82774951 -95.23011024 97.13574446 -96.53689575 98.44352722 C-99.95445547 101.86488036 -103.36900097 105.28922602 -106.78289795 108.7142334 C-110.26749855 112.20910167 -113.75496404 115.70110857 -117.2421875 119.19335938 C-123.35485966 125.31557362 -129.4650692 131.44023676 -135.57345581 137.56672668 C-137.04804645 139.04540656 -138.52336332 140.52336332 -140 142 C-94.13 142 -48.26 142 -1 142 C-1 96.13 -1 50.26 -1 3 C-1.33 3 -1.66 3 -2 3 Z " fill="#625139" transform="translate(352,111)"/>
<path d="M0 0 C5.51109056 3.32370174 9.78036396 7.50378143 14.30029297 12.05737305 C15.11071548 12.86589722 15.921138 13.67442139 16.75611877 14.50744629 C19.4230472 17.17068145 22.08272735 19.84102751 24.7421875 22.51171875 C26.59412779 24.36485134 28.4464381 26.21761421 30.29910278 28.07002258 C34.17417583 31.94602987 38.04536833 35.82587836 41.9140625 39.70825195 C46.39149743 44.20145977 50.87418566 48.68937138 55.35987937 53.17433327 C59.67653437 57.49037908 63.99027628 61.80932169 68.30252457 66.12977028 C70.13844538 67.96888344 71.97498149 69.80738259 73.81212997 71.64526939 C76.36931141 74.20460538 78.92318085 76.76719823 81.47607422 79.33081055 C82.24275925 80.09704239 83.00944427 80.86327423 83.79936218 81.65272522 C84.48906601 82.34669403 85.17876984 83.04066284 85.88937378 83.75566101 C86.79579022 84.66459122 86.79579022 84.66459122 87.72051811 85.59188366 C89 87 89 87 89 88 C84.71 88 80.42 88 76 88 C75.67 86.02 75.34 84.04 75 82 C73.81893875 79.04734687 72.4709063 77.01333106 70 75 C68.824375 74.62875 68.824375 74.62875 67.625 74.25 C64.27898498 72.65665952 63.07182656 70.62719406 61.11328125 67.55859375 C60.06891055 65.83950206 60.06891055 65.83950206 58 65 C58 64.34 58 63.68 58 63 C56.68 62.34 55.36 61.68 54 61 C54 60.34 54 59.68 54 59 C52.68 58.34 51.36 57.68 50 57 C50 56.34 50 55.68 50 55 C49.34 55 48.68 55 48 55 C46.375 53.625 46.375 53.625 45 52 C45 51.34 45 50.68 45 50 C44.34 50 43.68 50 43 50 C41.375 48.6875 41.375 48.6875 40 47 C40 46.01 40 45.02 40 44 C39.42765625 43.7421875 38.8553125 43.484375 38.265625 43.21875 C35.78871005 41.88634058 33.8658834 40.34943882 31.75 38.5 C31.04359375 37.8915625 30.3371875 37.283125 29.609375 36.65625 C28 35 28 35 28 33 C27.360625 32.71125 26.72125 32.4225 26.0625 32.125 C24 31 24 31 23 29 C22.01 28.67 21.02 28.34 20 28 C19.3265509 26.6700795 18.66087173 25.3362151 18 24 C16.06265207 22.10803965 16.06265207 22.10803965 13.875 20.375 C12.54718539 19.29290197 11.24546176 18.17594761 10 17 C10 16.34 10 15.68 10 15 C9.34 15 8.68 15 8 15 C8 14.01 8 13.02 8 12 C7.34 12 6.68 12 6 12 C5.71125 11.360625 5.4225 10.72125 5.125 10.0625 C4.17176549 7.84793921 4.17176549 7.84793921 2 7 C1.26924352 4.6859378 0.59861742 2.35171131 0 0 Z " fill="#4B7A70" transform="translate(99,166)"/>
<path d="M0 0 C35.97 0 71.94 0 109 0 C109 1.32 109 2.64 109 4 C73.03 4 37.06 4 0 4 C0 2.68 0 1.36 0 0 Z " fill="#A5E7D9" transform="translate(48,38)"/>
<path d="M0 0 C0.99 0.495 0.99 0.495 2 1 C2.21484375 3.30078125 2.21484375 3.30078125 2 6 C0.56640625 7.66796875 0.56640625 7.66796875 -1.4375 9.1875 C-4.70729993 11.84349538 -7.53208031 14.58313208 -10.3125 17.75 C-15.30692422 23.41958035 -20.62274801 28.69607417 -26 34 C-28.88385386 36.86953008 -31.74596516 39.75883275 -34.59375 42.6640625 C-35.89574128 43.98446578 -37.19782643 45.3047765 -38.5 46.625 C-39.15097656 47.29273438 -39.80195313 47.96046875 -40.47265625 48.6484375 C-43.81768671 52.02725615 -46.88203224 54.59392064 -51 57 C-52.95219918 58.86579479 -54.83254378 60.73159378 -56.6875 62.6875 C-58.42157433 64.51368984 -60.17064173 66.26490818 -62 68 C-62.66 68 -63.32 68 -64 68 C-64.25136719 68.5775 -64.50273437 69.155 -64.76171875 69.75 C-67.92037789 75.48939327 -73.82361528 80.11771146 -79 84 C-79.66 83.67 -80.32 83.34 -81 83 C-71 73 -71 73 -68.70068359 70.70507812 C-66.35066561 68.35123621 -64.00975701 65.98900991 -61.673172 63.62187195 C-59.46963287 61.39147537 -57.26066806 59.16648366 -55.05151367 56.94165039 C-53.88503189 55.76501532 -52.72033729 54.586606 -51.55737305 53.40649414 C-49.87231942 51.69731087 -48.18100093 49.99455571 -46.48828125 48.29296875 C-45.96744461 47.76180954 -45.44660797 47.23065033 -44.9099884 46.68339539 C-43.64405856 45.41707062 -42.32626653 44.20298539 -41 43 C-40.34 43 -39.68 43 -39 43 C-38.74089844 42.41089844 -38.48179687 41.82179687 -38.21484375 41.21484375 C-36.55315746 38.18533851 -34.26323713 36.21480606 -31.75390625 33.87890625 C-29.91876931 32.06667359 -29.91876931 32.06667359 -28.77783203 29.78222656 C-26.51904733 26.24733087 -23.78332609 23.53448013 -20.80078125 20.60546875 C-20.20573288 20.01325027 -19.61068451 19.4210318 -18.99760437 18.81086731 C-17.10723599 16.93164001 -15.21001271 15.05951045 -13.3125 13.1875 C-12.02493082 11.90996846 -10.73781635 10.63197846 -9.45117188 9.35351562 C-6.30602105 6.23034457 -3.1547061 3.11351781 0 0 Z " fill="#CA5B22" transform="translate(350,99)"/>
<path d="M0 0 C28.71 0 57.42 0 87 0 C87 1.32 87 2.64 87 4 C58.29 4 29.58 4 0 4 C0 2.68 0 1.36 0 0 Z " fill="#FB753E" transform="translate(157,38)"/>
<path d="M0 0 C0.66 0.33 1.32 0.66 2 1 C-4.93 7.93 -11.86 14.86 -19 22 C-19.33 21.01 -19.66 20.02 -20 19 C-19.58113525 18.58637207 -19.16227051 18.17274414 -18.73071289 17.74658203 C-16.83870591 15.87533169 -14.95056815 14.00022415 -13.0625 12.125 C-12.40314453 11.47402344 -11.74378906 10.82304687 -11.06445312 10.15234375 C-10.43603516 9.52714844 -9.80761719 8.90195313 -9.16015625 8.2578125 C-8.57886963 7.6817627 -7.99758301 7.10571289 -7.39868164 6.51220703 C-5.90048064 5.03347525 -5.90048064 5.03347525 -5 3 C-2.5625 1.3125 -2.5625 1.3125 0 0 Z M-22 22 C-21.34 22.33 -20.68 22.66 -20 23 C-21.05033998 24.30157403 -22.11588278 25.59088725 -23.1875 26.875 C-23.77917969 27.59429687 -24.37085938 28.31359375 -24.98046875 29.0546875 C-27 31 -27 31 -29.40625 31.90234375 C-32.9052325 33.38308785 -34.89872557 35.86374174 -37.3125 38.6875 C-41.12846032 43.01031306 -45.00693586 46.98916469 -49.44140625 50.6953125 C-52.0966703 52.91801474 -53.09087572 54.21204334 -54.5 57.5 C-56 61 -56 61 -58 63 C-56.68 63.66 -55.36 64.32 -54 65 C-58.95 65 -63.9 65 -69 65 C-63.20977506 58.12970481 -57.02761796 51.73621033 -50.70654297 45.35644531 C-49.40391523 44.03723809 -48.10667838 42.71268554 -46.81494141 41.3828125 C-33.79284788 27.979956 -33.79284788 27.979956 -25.86425781 24.78369141 C-23.80376037 24.0556459 -23.80376037 24.0556459 -22 22 Z " fill="#CE5C22" transform="translate(263,189)"/>
<path d="M0 0 C2.31 1.98 4.62 3.96 7 6 C6.01 6 5.02 6 4 6 C0.0334968 6.88144516 -1.75266259 8.72082222 -4.25 11.75 C-7.42718312 15.60155241 -10.77538708 17.94208269 -14.9921875 20.55078125 C-17.00955094 22.00689377 -18.03929356 23.20218539 -19.3125 25.3125 C-21 28 -21 28 -23.125 28.625 C-23.74375 28.74875 -24.3625 28.8725 -25 29 C-25.28875 29.5775 -25.5775 30.155 -25.875 30.75 C-27.54100513 34.08201026 -30.07916393 35.71412829 -33 38 C-33.68797302 36.22344971 -33.68797302 36.22344971 -34 34 C-32.82948303 32.22821045 -32.82948303 32.22821045 -30.99243164 30.42480469 C-30.31165054 29.74440125 -29.63086945 29.0639978 -28.92945862 28.36297607 C-28.18058884 27.63991272 -27.43171906 26.91684937 -26.66015625 26.171875 C-25.90407578 25.42286926 -25.1479953 24.67386353 -24.3690033 23.90216064 C-21.94495152 21.50615797 -19.50411629 19.12808872 -17.0625 16.75 C-15.41878903 15.13135792 -13.77619562 13.51158012 -12.13476562 11.890625 C-8.10270665 7.91377551 -4.0555077 3.95292851 0 0 Z " fill="#619E92" transform="translate(83,150)"/>
<path d="M0 0 C14.52 0 29.04 0 44 0 C44 1.32 44 2.64 44 4 C29.48 4 14.96 4 0 4 C0 2.68 0 1.36 0 0 Z " fill="#D0C297" transform="translate(48,38)"/>
<path d="M0 0 C4.72390644 -1.05854281 9.42199327 -1.53511652 13.74328995 1.03807068 C18.50551458 4.70261443 22.60834152 9.10594138 26.76953125 13.421875 C28.1425609 14.80460604 29.51790034 16.18504697 30.89543152 17.56329346 C33.76569639 20.44741029 36.61502182 23.35020744 39.44946289 26.26953125 C43.08796131 30.01602094 46.76295859 33.72391256 50.4524889 37.42008591 C53.28795299 40.26466127 56.10972734 43.12248015 58.92685509 45.9852066 C60.2785588 47.35787804 61.63306087 48.72779956 62.99036598 50.09493256 C64.87764908 52.00239774 66.74730899 53.92549814 68.61254883 55.85449219 C69.17703735 56.41985687 69.74152588 56.98522156 70.32312012 57.56771851 C71.84724426 59.16522217 71.84724426 59.16522217 74 62 C73.8367157 64.38409424 73.8367157 64.38409424 73 66 C71.515 65.505 71.515 65.505 70 65 C69.2497863 63.2712467 68.50448154 61.5395681 67.81640625 59.78515625 C66.66866603 57.2755042 65.12608283 55.7274423 63 54 C62.01 53.67 61.02 53.34 60 53 C60 52.01 60 51.02 60 50 C59.39929688 49.73703125 58.79859375 49.4740625 58.1796875 49.203125 C55.86603696 47.92605624 54.77014433 46.79531457 53.125 44.75 C49.52121718 40.4931299 45.67590149 36.51958338 41.75 32.5625 C41.13527832 31.93504883 40.52055664 31.30759766 39.88720703 30.66113281 C39.00718018 29.77893066 39.00718018 29.77893066 38.109375 28.87890625 C37.58311523 28.3485376 37.05685547 27.81816895 36.51464844 27.27172852 C34.90907056 25.76533406 34.90907056 25.76533406 32 25 C31.33333333 23.66666667 30.66666667 22.33333333 30 21 C28.38161281 19.28641357 26.70328319 17.6292274 25 16 C23.66396489 14.66937393 22.33081999 13.33584195 21 12 C20.31808594 11.31808594 19.63617188 10.63617188 18.93359375 9.93359375 C16.2890625 7.2890625 13.64453125 4.64453125 11 2 C9.15108054 1.76636119 7.29511969 1.58696365 5.4375 1.4375 C4.42558594 1.35371094 3.41367188 1.26992188 2.37109375 1.18359375 C1.19740234 1.09271484 1.19740234 1.09271484 0 1 C0 0.67 0 0.34 0 0 Z " fill="#4C4332" transform="translate(74,52)"/>
<path d="M0 0 C4 1 4 1 5.265625 2.62890625 C6.17708333 4.41927083 7.08854167 6.20963542 8 8 C8.33 5.36 8.66 2.72 9 0 C9.99 0 10.98 0 12 0 C12 6.27 12 12.54 12 19 C11.01 19 10.02 19 9 19 C7.35 16.03 5.7 13.06 4 10 C3.67 13.3 3.34 16.6 3 20 C2.01 20 1.02 20 0 20 C0 13.4 0 6.8 0 0 Z " fill="#716650" transform="translate(123,275)"/>
<path d="M0 0 C2.47923801 -0.02685095 4.9581884 -0.04676547 7.4375 -0.0625 C8.14455078 -0.07087891 8.85160156 -0.07925781 9.58007812 -0.08789062 C11.38693559 -0.09653588 13.19387603 -0.05220011 15 0 C16 1 16 1 16.09765625 3.72265625 C16.08605469 4.82480469 16.07445312 5.92695313 16.0625 7.0625 C16.05347656 8.16722656 16.04445312 9.27195312 16.03515625 10.41015625 C16.02355469 11.26480469 16.01195312 12.11945313 16 13 C15.01 13 14.02 13 13 13 C13 9.7 13 6.4 13 3 C12.01 3 11.02 3 10 3 C10 6.63 10 10.26 10 14 C8.68 14 7.36 14 6 14 C6 10.37 6 6.74 6 3 C5.01 3 4.02 3 3 3 C3 6.63 3 10.26 3 14 C2.01 14 1.02 14 0 14 C0 9.38 0 4.76 0 0 Z " fill="#776C57" transform="translate(149,281)"/>
<path d="M0 0 C0.99 0 1.98 0 3 0 C3 0.99 3 1.98 3 3 C3.99 3 4.98 3 6 3 C6 3.99 6 4.98 6 6 C5.01 6 4.02 6 3 6 C3 8.64 3 11.28 3 14 C3.99 14 4.98 14 6 14 C5.67 14.99 5.34 15.98 5 17 C3.35 16.67 1.7 16.34 0 16 C0 12.7 0 9.4 0 6 C-2.31 6 -4.62 6 -7 6 C-7 8.31 -7 10.62 -7 13 C-5.35 13 -3.7 13 -2 13 C-2.33 14.32 -2.66 15.64 -3 17 C-5.3125 17.25 -5.3125 17.25 -8 17 C-10.78767132 14.59683507 -10.98892571 13.12624692 -11.3125 9.4375 C-11 6 -11 6 -9 3 C-6.8359375 2.70703125 -6.8359375 2.70703125 -4.375 2.8125 C-3.55773437 2.83957031 -2.74046875 2.86664063 -1.8984375 2.89453125 C-0.95871094 2.94673828 -0.95871094 2.94673828 0 3 C0 2.01 0 1.02 0 0 Z " fill="#726651" transform="translate(110,278)"/>
<path d="M0 0 C0.66 0.66 1.32 1.32 2 2 C2.99 1.67 3.98 1.34 5 1 C4.67657623 1.52946228 4.35315247 2.05892456 4.01992798 2.60443115 C2.72980393 5.63462647 2.720046 8.0361052 2.68115234 11.32910156 C2.66128265 12.61012756 2.64141296 13.89115356 2.62094116 15.21099854 C2.60906564 16.6042056 2.59740273 17.9974145 2.5859375 19.390625 C2.56722168 20.8198152 2.54764795 22.24899441 2.5272522 23.67816162 C2.47596852 27.43291736 2.43632284 31.18770892 2.39910889 34.94262695 C2.35904551 38.7769453 2.30796385 42.61111517 2.2578125 46.4453125 C2.16109785 53.96343972 2.07667899 61.4816389 2 69 C1.34 69 0.68 69 0 69 C0 46.23 0 23.46 0 0 Z " fill="#80BFB2" transform="translate(48,185)"/>
<path d="M0 0 C0 3 0 3 -1.14575195 4.45458984 C-1.67128662 4.95168457 -2.19682129 5.4487793 -2.73828125 5.9609375 C-3.31126953 6.51523438 -3.88425781 7.06953125 -4.47460938 7.640625 C-5.08111328 8.21296875 -5.68761719 8.7853125 -6.3125 9.375 C-10.20813574 13.07226642 -13.24792607 16.36183807 -16 21 C-17.94639284 23.14106784 -20.03041384 25.12991912 -22.125 27.125 C-26.37409238 30.98833439 -26.37409238 30.98833439 -29 36 C-31.43359375 37.859375 -31.43359375 37.859375 -34.4375 39.75 C-35.42621094 40.38421875 -36.41492188 41.0184375 -37.43359375 41.671875 C-38.28050781 42.11015625 -39.12742188 42.5484375 -40 43 C-40.66 42.67 -41.32 42.34 -42 42 C-28.14 28.14 -14.28 14.28 0 0 Z " fill="#AD4B1B" transform="translate(272,175)"/>
<path d="M0 0 C3.5 -0.375 3.5 -0.375 7 0 C9.47342266 3.71013399 9.38503486 5.61060262 9 10 C7.8125 12.4375 7.8125 12.4375 6 14 C3.5 14.5 3.5 14.5 1 14 C-1.78767132 11.59683507 -1.98892571 10.12624692 -2.3125 6.4375 C-2 3 -2 3 0 0 Z " fill="#796F5B" transform="translate(71,281)"/>
<path d="M0 0 C0.66 0.33 1.32 0.66 2 1 C-1.60799363 4.63280789 -5.21933198 8.26224603 -8.83374023 11.88867188 C-10.06154204 13.12148644 -11.28844279 14.3551991 -12.5144043 15.58984375 C-14.28194904 17.36958835 -16.05276407 19.1460231 -17.82421875 20.921875 C-18.36713058 21.46994812 -18.91004242 22.01802124 -19.46940613 22.58270264 C-22.50325614 25.61699319 -25.64193423 28.32122134 -29 31 C-30.06725679 32.14571023 -31.10145074 33.32325018 -32.09765625 34.53125 C-36.90620402 40.15186751 -42.18896016 45.29643552 -47.4375 50.5 C-48.4657298 51.52320139 -49.49372626 52.54663733 -50.52148438 53.5703125 C-53.01164338 56.04957999 -55.50492833 58.52567538 -58 61 C-58.66 60.67 -59.32 60.34 -60 60 C-58.92516357 58.94087402 -58.92516357 58.94087402 -57.82861328 57.86035156 C-55.16596527 55.23396277 -52.50999003 52.60091216 -49.85595703 49.96582031 C-48.70737091 48.82727825 -47.55699435 47.69053942 -46.40478516 46.55566406 C-44.74685803 44.92205511 -43.09552397 43.28202321 -41.4453125 41.640625 C-40.6733403 40.88413666 -40.6733403 40.88413666 -39.88577271 40.11236572 C-37.36097234 37.58835937 -35.33629461 35.33727463 -34 32 C-33.34 32 -32.68 32 -32 32 C-32 31.34 -32 30.68 -32 30 C-30.52520322 28.73588848 -28.9928273 27.53859807 -27.4375 26.375 C-23.33979725 23.18789786 -20.01977036 19.9143132 -16.7109375 15.9375 C-14.35595953 13.27067564 -11.70967134 11.03905735 -9 8.7421875 C-5.83947899 5.9890774 -2.92103172 3.00318574 0 0 Z " fill="#D76124" transform="translate(301,153)"/>
<path d="M0 0 C0.21484375 2.30078125 0.21484375 2.30078125 0 5 C-1.43359375 6.66796875 -1.43359375 6.66796875 -3.4375 8.1875 C-6.70729993 10.84349538 -9.53208031 13.58313208 -12.3125 16.75 C-17.30692422 22.41958035 -22.62274801 27.69607417 -28 33 C-29.66805845 34.66527372 -31.33455657 36.33211099 -33 38 C-34.25642513 39.2565957 -35.51294302 40.51309865 -36.76953125 41.76953125 C-37.43017578 42.43017578 -38.09082031 43.09082031 -38.77148438 43.77148438 C-41.84765625 46.84765625 -44.92382812 49.92382812 -48 53 C-48 50 -48 50 -46.72941589 48.3821106 C-46.13445816 47.79984711 -45.53950043 47.21758362 -44.92651367 46.61767578 C-44.25549118 45.95333527 -43.58446869 45.28899475 -42.89311218 44.60452271 C-42.15881485 43.89198334 -41.42451752 43.17944397 -40.66796875 42.4453125 C-39.54664299 41.33746902 -39.54664299 41.33746902 -38.40266418 40.20724487 C-36.00459286 37.8392797 -33.59693715 35.48139545 -31.1875 33.125 C-28.78960267 30.77495001 -26.39400838 28.42272951 -24.00447083 26.06417847 C-22.5159727 24.5954066 -21.0225639 23.13159075 -19.52372742 21.67337036 C-16.09086414 18.2901181 -13.38157217 15.2243577 -11 11 C-10.01 10.34 -9.02 9.68 -8 9 C-6.9935725 7.33720673 -5.99414593 5.67016516 -5 4 C-1.32432432 0 -1.32432432 0 0 0 Z " fill="#D76224" transform="translate(352,100)"/>
<path d="M0 0 C6.15234375 -0.09765625 6.15234375 -0.09765625 8 0 C9 1 9 1 9.09765625 3.72265625 C9.08605469 4.82480469 9.07445312 5.92695313 9.0625 7.0625 C9.05347656 8.16722656 9.04445312 9.27195312 9.03515625 10.41015625 C9.02355469 11.26480469 9.01195312 12.11945313 9 13 C2.9453125 13.9765625 2.9453125 13.9765625 1 14 C0.34 13.34 -0.32 12.68 -1 12 C-0.67028521 8.70285207 -0.3773161 7.3773161 2 5 C2.99 5 3.98 5 5 5 C5 4.34 5 3.68 5 3 C3.35 3 1.7 3 0 3 C0 2.01 0 1.02 0 0 Z " fill="#6F644E" transform="translate(138,281)"/>
<path d="M0 0 C0 3 0 3 -1.4291687 4.78993225 C-2.09820221 5.45230392 -2.76723572 6.1146756 -3.45654297 6.79711914 C-4.21087616 7.55122574 -4.96520935 8.30533234 -5.74240112 9.08229065 C-6.97979538 10.29645912 -6.97979538 10.29645912 -8.2421875 11.53515625 C-9.08089386 12.36961777 -9.91960022 13.20407928 -10.78372192 14.06382751 C-13.47387734 16.73715051 -16.17425241 19.39988231 -18.875 22.0625 C-20.68948469 23.86194216 -22.50329564 25.66206396 -24.31640625 27.46289062 C-28.31034403 31.42726652 -32.31074539 35.38498658 -36.31686401 39.33705139 C-37.54858033 40.55399462 -38.77564794 41.77564794 -40 43 C-40.66 42.01 -41.32 41.02 -42 40 C-40.948125 39.29875 -39.89625 38.5975 -38.8125 37.875 C-36.2004535 36.02964731 -34.17451678 34.19209301 -32.1875 31.6875 C-31.1046875 30.3571875 -31.1046875 30.3571875 -30 29 C-29.34 29 -28.68 29 -28 29 C-28 28.34 -28 27.68 -28 27 C-27.34 27 -26.68 27 -26 27 C-26 26.34 -26 25.68 -26 25 C-25.34 24.67 -24.68 24.34 -24 24 C-23.5875 23.236875 -23.175 22.47375 -22.75 21.6875 C-20.61780161 18.41305247 -18.27401717 17.09537099 -15 15 C-12.44174949 12.62448167 -10.20052332 10.25873977 -8.0625 7.5 C-5.62313584 4.54319496 -2.99658244 2.38364512 0 0 Z " fill="#BCB285" transform="translate(139,123)"/>
<path d="M0 0 C3 0.25 3 0.25 5 2.25 C5.125 5.375 5.125 5.375 5 8.25 C2.69 8.25 0.38 8.25 -2 8.25 C-1.67 8.91 -1.34 9.57 -1 10.25 C1.52733235 10.90555119 1.52733235 10.90555119 4 11.25 C3.67 12.24 3.34 13.23 3 14.25 C-1.50869295 14.6155697 -1.50869295 14.6155697 -3.6484375 13.0234375 C-5.36523016 10.77076737 -5.37257119 9.49236236 -5.3125 6.6875 C-5.30863281 5.90246094 -5.30476563 5.11742187 -5.30078125 4.30859375 C-4.78025472 0.74602907 -3.44175376 0.28681281 0 0 Z " fill="#61553D" transform="translate(93,280.75)"/>
<path d="M0 0 C3 0.25 3 0.25 5 2.25 C5.125 4.875 5.125 4.875 5 7.25 C2.69 7.25 0.38 7.25 -2 7.25 C-1.67 8.57 -1.34 9.89 -1 11.25 C0.65 11.25 2.3 11.25 4 11.25 C3.67 12.24 3.34 13.23 3 14.25 C0.6875 14.5 0.6875 14.5 -2 14.25 C-4.1769508 12.44838554 -4.89562676 11.07520089 -5.25 8.2734375 C-5.3125 6.125 -5.3125 6.125 -5 2.25 C-3 0.25 -3 0.25 0 0 Z " fill="#887F6D" transform="translate(172,280.75)"/>
<path d="M0 0 C8 0 8 0 10 1.125 C11.46221217 3.86664781 11.31833733 5.94396162 11 9 C10.01 10.485 10.01 10.485 9 12 C5.875 12.1875 5.875 12.1875 3 12 C3 11.34 3 10.68 3 10 C3.99 9.67 4.98 9.34 6 9 C6 7.35 6 5.7 6 4 C4.68 3.67 3.36 3.34 2 3 C2 8.28 2 13.56 2 19 C1.34 19 0.68 19 0 19 C0 12.73 0 6.46 0 0 Z " fill="#746954" transform="translate(49,275)"/>
<path d="M0 0 C0.33 0.66 0.66 1.32 1 2 C-0.61594832 4.04119788 -2.2856382 6.04072937 -4 8 C-4.66 8 -5.32 8 -6 8 C-6.0825 8.7425 -6.165 9.485 -6.25 10.25 C-7.14809799 13.54302595 -8.38416074 14.85976788 -11 17 C-11.66 17 -12.32 17 -13 17 C-13.309375 17.8353125 -13.309375 17.8353125 -13.625 18.6875 C-15.55000774 21.92501302 -18.03850902 23.68231141 -21 26 C-21.79467773 24.32519531 -21.79467773 24.32519531 -22 22 C-20.09399414 19.52636719 -20.09399414 19.52636719 -17.28515625 16.796875 C-16.79542831 16.3142218 -16.30570038 15.8315686 -15.8011322 15.33428955 C-14.23291773 13.79408365 -12.6482297 12.27214696 -11.0625 10.75 C-9.99691587 9.70949034 -8.93244754 8.66783666 -7.86914062 7.625 C-5.25891489 5.06992774 -2.63363148 2.53096503 0 0 Z " fill="#56877A" transform="translate(71,162)"/>
<path d="M0 0 C0 3 0 3 -1.8125 4.875 C-2.8953125 5.926875 -2.8953125 5.926875 -4 7 C-4.53625 7.9075 -5.0725 8.815 -5.625 9.75 C-6.07875 10.4925 -6.5325 11.235 -7 12 C-7.66 12 -8.32 12 -9 12 C-9.2475 12.78375 -9.495 13.5675 -9.75 14.375 C-11.24062337 17.50530909 -11.99419751 17.54003879 -15 19 C-16.2065625 20.4540625 -16.2065625 20.4540625 -17.4375 21.9375 C-20.78776205 25.94147172 -24.42088167 27.71528134 -29 30 C-23.47349666 23.25919575 -17.30550441 17.1928871 -11.125 11.0625 C-10.04403726 9.98656273 -8.96330617 8.91039269 -7.8828125 7.83398438 C-5.25787359 5.21996708 -2.62981372 2.60911404 0 0 Z " fill="#BD5420" transform="translate(350,99)"/>
<path d="M0 0 C2.93230193 1.32120828 4.98664899 2.74638197 7.234375 5.0390625 C8.09482422 5.90917969 8.09482422 5.90917969 8.97265625 6.796875 C9.55917969 7.40015625 10.14570313 8.0034375 10.75 8.625 C11.35199219 9.23601562 11.95398438 9.84703125 12.57421875 10.4765625 C14.05405305 11.97988624 15.52764676 13.48934856 17 15 C16.01 15.99 15.02 16.98 14 18 C12.50260417 16.73046875 11.00520833 15.4609375 9.5078125 14.19140625 C7.99405921 12.9121848 7.99405921 12.9121848 6 12 C5.67 11.01 5.34 10.02 5 9 C4.175 8.175 3.35 7.35 2.5 6.5 C0 4 0 4 -1 1 C-0.67 0.67 -0.34 0.34 0 0 Z " fill="#4A786F" transform="translate(161,228)"/>
<path d="M0 0 C3.36179774 1.44077046 5.59156268 3.24750021 8 6 C8 6.66 8 7.32 8 8 C8.84256348 8.35360596 8.84256348 8.35360596 9.70214844 8.71435547 C12.54335036 10.30400372 14.47807285 12.25343276 16.765625 14.5703125 C18.09980469 15.91416016 18.09980469 15.91416016 19.4609375 17.28515625 C20.38132812 18.22230469 21.30171875 19.15945312 22.25 20.125 C23.19484856 21.07988637 24.14015633 22.03431859 25.0859375 22.98828125 C27.39518338 25.32109087 29.69963203 27.65844086 32 30 C28.07290865 30 27.1810287 28.72099538 24.3125 26.125 C23.50425781 25.40570313 22.69601563 24.68640625 21.86328125 23.9453125 C20 22 20 22 20 20 C19.360625 19.71125 18.72125 19.4225 18.0625 19.125 C16 18 16 18 15 16 C14.01 15.67 13.02 15.34 12 15 C11.3265509 13.6700795 10.66087173 12.3362151 10 11 C8.06265207 9.10803965 8.06265207 9.10803965 5.875 7.375 C4.54718539 6.29290197 3.24546176 5.17594761 2 4 C2 3.34 2 2.68 2 2 C1.34 2 0.68 2 0 2 C0 1.34 0 0.68 0 0 Z " fill="#50847A" transform="translate(107,179)"/>
<path d="M0 0 C0.99 0.33 1.98 0.66 3 1 C-0.62901503 5.44554342 -4.33003633 9.24958908 -8.69921875 12.95703125 C-13.34384898 17.08121055 -17.64562898 21.57358976 -22 26 C-22.33 25.01 -22.66 24.02 -23 23 C-14.75449102 14.59281437 -14.75449102 14.59281437 -11.375 11.9375 C-8.39946503 9.51008989 -6.03475473 6.72376941 -3.55078125 3.8046875 C-2 2 -2 2 0 0 Z " fill="#D25F23" transform="translate(232,220)"/>
<path d="M0 0 C1.98 0.66 3.96 1.32 6 2 C4.68 2.33 3.36 2.66 2 3 C2 5.31 2 7.62 2 10 C3.65 10 5.3 10 7 10 C6.67 11.32 6.34 12.64 6 14 C3.6875 14.25 3.6875 14.25 1 14 C-1.78767132 11.59683507 -1.98892571 10.12624692 -2.3125 6.4375 C-2 3 -2 3 0 0 Z " fill="#746954" transform="translate(101,281)"/>
<path d="M0 0 C0.99 0.33 1.98 0.66 3 1 C2.34 1 1.68 1 1 1 C1 2.32 1 3.64 1 5 C1.66 5 2.32 5 3 5 C3.33 4.01 3.66 3.02 4 2 C7.63 2 11.26 2 15 2 C16 7 16 7 15 9 C14.34 9 13.68 9 13 9 C12.34 8.34 11.68 7.68 11 7 C8.62531524 6.83286431 8.62531524 6.83286431 6 7 C3.3125 7.125 3.3125 7.125 1 7 C0.34 6.34 -0.32 5.68 -1 5 C-0.625 2.375 -0.625 2.375 0 0 Z " fill="#B4AEA3" transform="translate(65,398)"/>
<path d="M0 0 C2.8125 0.3125 2.8125 0.3125 6 1 C6.94875 1.185625 7.8975 1.37125 8.875 1.5625 C9.57625 1.706875 10.2775 1.85125 11 2 C10.67 3.32 10.34 4.64 10 6 C10.66 6 11.32 6 12 6 C12 6.66 12 7.32 12 8 C10.68 8.33 9.36 8.66 8 9 C7.67 8.01 7.34 7.02 7 6 C6.01 6.33 5.02 6.66 4 7 C2.33378384 7.03874921 0.66605828 7.0450286 -1 7 C-1.625 4.625 -1.625 4.625 -2 2 C-1.34 1.34 -0.68 0.68 0 0 Z " fill="#D0CCC5" transform="translate(66,424)"/>
<path d="M0 0 C0.33 0.99 0.66 1.98 1 3 C0.46890625 3.58007812 -0.0621875 4.16015625 -0.609375 4.7578125 C-5.28664606 9.84797651 -5.28664606 9.84797651 -9.125 15.5625 C-10.053125 16.7690625 -10.053125 16.7690625 -11 18 C-14.25 18.375 -14.25 18.375 -17 18 C-11.72898586 11.58930713 -5.90871848 5.81409488 0 0 Z " fill="#AF4C1A" transform="translate(211,236)"/>
<path d="M0 0 C0.598125 0.165 1.19625 0.33 1.8125 0.5 C4.11344336 1.1114124 4.11344336 1.1114124 7 1 C8.66666667 1 10.33333333 1 12 1 C12 2.98 12 4.96 12 7 C11.01 6.67 10.02 6.34 9 6 C8.67 6.66 8.34 7.32 8 8 C7.4225 7.814375 6.845 7.62875 6.25 7.4375 C3.79307475 6.95976454 2.35602466 7.24270636 0 8 C0.66 6.02 1.32 4.04 2 2 C1.34 2 0.68 2 0 2 C0 1.34 0 0.68 0 0 Z " fill="#BBB5AB" transform="translate(68,309)"/>
<path d="M0 0 C5.99500997 4.96194855 11.46427037 10.3476624 16.9375 15.875 C17.81212891 16.75414062 18.68675781 17.63328125 19.58789062 18.5390625 C21.72757048 20.6904346 23.86486597 22.84411792 26 25 C21.97698923 25 20.95743123 23.67577112 18 21 C17.195625 20.030625 16.39125 19.06125 15.5625 18.0625 C13.61411559 15.73394302 12.0108208 14.09883979 9.6875 12.25 C8.800625 11.5075 7.91375 10.765 7 10 C7 9.34 7 8.68 7 8 C6.21625 7.71125 5.4325 7.4225 4.625 7.125 C2 6 2 6 0 4 C0 2.68 0 1.36 0 0 Z " fill="#D35C21" transform="translate(49,116)"/>
<path d="M0 0 C0.66 0.66 1.32 1.32 2 2 C2.33 1.34 2.66 0.68 3 0 C5.31 0 7.62 0 10 0 C10 2.31 10 4.62 10 7 C6.30581799 8.231394 3.7943739 7.64432764 0 7 C-0.38133299 5.0085944 -0.71325582 3.00720923 -1 1 C-0.67 0.67 -0.34 0.34 0 0 Z " fill="#C4BFB6" transform="translate(92,424)"/>
<path d="M0 0 C0.99 0 1.98 0 3 0 C3 5.94 3 11.88 3 18 C1.35 18.33 -0.3 18.66 -2 19 C-1.84660156 18.49984375 -1.69320312 17.9996875 -1.53515625 17.484375 C-0.80542604 14.09672234 -0.63643523 10.70038481 -0.4375 7.25 C-0.39431641 6.55261719 -0.35113281 5.85523438 -0.30664062 5.13671875 C-0.20110404 3.42468078 -0.1001009 1.71236439 0 0 Z " fill="#70654F" transform="translate(82,281)"/>
<path d="M0 0 C0.33 0.99 0.66 1.98 1 3 C-2.56757357 9.18379419 -8.24618377 15.54857755 -15.27734375 17.6953125 C-16.13005859 17.84613281 -16.13005859 17.84613281 -17 18 C-11.72898586 11.58930713 -5.90871848 5.81409488 0 0 Z " fill="#AE4C1B" transform="translate(229,218)"/>
<path d="M0 0 C1.85772162 0.08984301 3.71247985 0.24611861 5.5625 0.4375 C7.08037109 0.59025391 7.08037109 0.59025391 8.62890625 0.74609375 C9.80259766 0.87177734 9.80259766 0.87177734 11 1 C10.34 3.31 9.68 5.62 9 8 C8.67 7.01 8.34 6.02 8 5 C7.01 5.33 6.02 5.66 5 6 C2.6593935 5.72230092 0.32375692 5.39460023 -2 5 C-1.125 1.125 -1.125 1.125 0 0 Z " fill="#BAB5AA" transform="translate(83,399)"/>
<path d="M0 0 C3.63 0 7.26 0 11 0 C10.67 1.65 10.34 3.3 10 5 C5.91257012 5.88376862 3.04916379 6.34972126 -1 5 C-0.67 3.35 -0.34 1.7 0 0 Z " fill="#84C3BC" transform="translate(53,388)"/>
<path d="M0 0 C1.65 0.33 3.3 0.66 5 1 C5 2.65 5 4.3 5 6 C3.68 6.33 2.36 6.66 1 7 C1 7.66 1 8.32 1 9 C2.32 9.33 3.64 9.66 5 10 C3.68 10 2.36 10 1 10 C1 12.31 1 14.62 1 17 C0.01 16.67 -0.98 16.34 -2 16 C-1.34 16 -0.68 16 0 16 C-0.08378906 15.34773438 -0.16757812 14.69546875 -0.25390625 14.0234375 C-0.82554104 9.11750856 -1.15311982 4.86872815 0 0 Z " fill="#7D725E" transform="translate(51,278)"/>
<path d="M0 0 C0 2.64 0 5.28 0 8 C-2.31 7.67 -4.62 7.34 -7 7 C-7 4.69 -7 2.38 -7 0 C-3.98968256 -0.93423645 -3.13349732 -1.04449911 0 0 Z " fill="#F7F6F5" transform="translate(110,284)"/>
<path d="M0 0 C2.31 0 4.62 0 7 0 C7 4.08378077 6.19287411 7.12315913 5 11 C4.01 11 3.02 11 2 11 C1.93941406 10.37351562 1.87882812 9.74703125 1.81640625 9.1015625 C1.73261719 8.28429687 1.64882812 7.46703125 1.5625 6.625 C1.48128906 5.81289063 1.40007812 5.00078125 1.31640625 4.1640625 C1.10909886 1.95727195 1.10909886 1.95727195 0 0 Z " fill="#7F7461" transform="translate(71,281)"/>
<path d="M0 0 C0.66 0 1.32 0 2 0 C2 6.27 2 12.54 2 19 C1.01 19 0.02 19 -1 19 C-1.66 17.02 -2.32 15.04 -3 13 C-2.34 12.67 -1.68 12.34 -1 12 C-0.53101037 9.1840151 -0.53101037 9.1840151 -0.375 5.9375 C-0.30023438 4.83277344 -0.22546875 3.72804688 -0.1484375 2.58984375 C-0.09945312 1.73519531 -0.05046875 0.88054687 0 0 Z " fill="#645840" transform="translate(133,275)"/>
<path d="M0 0 C1.98 0 3.96 0 6 0 C6 0.99 6 1.98 6 3 C5.01 3 4.02 3 3 3 C3 6.63 3 10.26 3 14 C2.01 14 1.02 14 0 14 C0 9.38 0 4.76 0 0 Z " fill="#6F634D" transform="translate(62,281)"/>
<path d="M0 0 C2 2 2 2 2 6 C0.56260487 6.02712066 -0.87493863 6.04645067 -2.3125 6.0625 C-3.51326172 6.07990234 -3.51326172 6.07990234 -4.73828125 6.09765625 C-7 6 -7 6 -10 5 C-10 3.68 -10 2.36 -10 1 C-8.37675914 0.77837671 -6.751279 0.57310197 -5.125 0.375 C-4.22007813 0.25898438 -3.31515625 0.14296875 -2.3828125 0.0234375 C-1.59648438 0.01570313 -0.81015625 0.00796875 0 0 Z " fill="#B6B0A5" transform="translate(96,412)"/>
<path d="M0 0 C0.66 0 1.32 0 2 0 C2 0.99 2 1.98 2 3 C3.98 3 5.96 3 8 3 C8 3.33 8 3.66 8 4 C6.02 4 4.04 4 2 4 C2.33 5.32 2.66 6.64 3 8 C4.65 8 6.3 8 8 8 C7.67 8.99 7.34 9.98 7 11 C4.6875 11.25 4.6875 11.25 2 11 C0.125 9.4375 0.125 9.4375 -1 7 C-0.6875 3.25 -0.6875 3.25 0 0 Z " fill="#655941" transform="translate(168,284)"/>
<path d="M0 0 C1.98 0 3.96 0 6 0 C6.125 5.75 6.125 5.75 5 8 C3.35 7.67 1.7 7.34 0 7 C0 6.34 0 5.68 0 5 C-0.66 4.67 -1.32 4.34 -2 4 C-1.34 2.68 -0.68 1.36 0 0 Z " fill="#C8C4BB" transform="translate(105,424)"/>
<path d="M0 0 C0.99 0.33 1.98 0.66 3 1 C3.99 1 4.98 1 6 1 C6 2.98 6 4.96 6 7 C5.01 6.67 4.02 6.34 3 6 C0.83284443 6.87483915 0.83284443 6.87483915 -1 8 C-1.625 5.125 -1.625 5.125 -2 2 C-1.34 1.34 -0.68 0.68 0 0 Z " fill="#BEB9B0" transform="translate(49,309)"/>
<path d="M0 0 C0.33 0 0.66 0 1 0 C1.144375 0.928125 1.28875 1.85625 1.4375 2.8125 C1.92100111 6.00725111 1.92100111 6.00725111 3 9 C4.65 9 6.3 9 8 9 C8 9.66 8 10.32 8 11 C7.030625 11.391875 6.06125 11.78375 5.0625 12.1875 C1.77823609 13.67594887 1.77823609 13.67594887 1.125 16.6875 C1.063125 17.8321875 1.063125 17.8321875 1 19 C0.67 19 0.34 19 0 19 C0 12.73 0 6.46 0 0 Z " fill="#E0DDD9" transform="translate(135,275)"/>
<path d="M0 0 C0.33 0 0.66 0 1 0 C1 1.98 1 3.96 1 6 C-1.31 6 -3.62 6 -6 6 C-5.67 6.66 -5.34 7.32 -5 8 C-2.47266765 8.65555119 -2.47266765 8.65555119 0 9 C-0.33 9.99 -0.66 10.98 -1 12 C-3.84326464 12.23053497 -5.46145349 12.35903101 -7.875 10.75 C-9 9 -9 9 -8.6875 6.8125 C-8.3471875 5.9153125 -8.3471875 5.9153125 -8 5 C-5.36 5 -2.72 5 0 5 C0 3.35 0 1.7 0 0 Z " fill="#867C6A" transform="translate(97,283)"/>
<path d="M0 0 C1.23556641 0.01740234 1.23556641 0.01740234 2.49609375 0.03515625 C3.32238281 0.04417969 4.14867188 0.05320312 5 0.0625 C5.63808594 0.07410156 6.27617188 0.08570313 6.93359375 0.09765625 C6.93359375 1.74765625 6.93359375 3.39765625 6.93359375 5.09765625 C3.96359375 5.09765625 0.99359375 5.09765625 -2.06640625 5.09765625 C-2.39640625 3.77765625 -2.72640625 2.45765625 -3.06640625 1.09765625 C-2.06640625 0.09765625 -2.06640625 0.09765625 0 0 Z " fill="#BEB9AF" transform="translate(69.06640625,412.90234375)"/>
<path d="M0 0 C1.32 0 2.64 0 4 0 C3.67 1.98 3.34 3.96 3 6 C0.36 6 -2.28 6 -5 6 C-5.33 4.35 -5.66 2.7 -6 1 C-4.7934375 1.0309375 -4.7934375 1.0309375 -3.5625 1.0625 C-1.06645115 1.29633621 -1.06645115 1.29633621 0 0 Z " fill="#BDB8AE" transform="translate(58,399)"/>
<path d="M0 0 C1.98 0 3.96 0 6 0 C6 0.66 6 1.32 6 2 C5.01 2.33 4.02 2.66 3 3 C2.40801257 8.34902924 1.85812759 13.60884846 2 19 C1.34 19 0.68 19 0 19 C0 12.73 0 6.46 0 0 Z " fill="#60543C" transform="translate(49,275)"/>
<path d="M0 0 C1.17825358 0.90172468 2.34231577 1.82201502 3.5 2.75 C4.1496875 3.26046875 4.799375 3.7709375 5.46875 4.296875 C7 6 7 6 7 10 C4 10 4 10 2 9 C1.67 8.01 1.34 7.02 1 6 C0.34 5.34 -0.32 4.68 -1 4 C-0.625 1.875 -0.625 1.875 0 0 Z " fill="#E16527" transform="translate(75,142)"/>
<path d="M0 0 C2.31 0 4.62 0 7 0 C7.33 1.98 7.66 3.96 8 6 C5.23735711 6.59732819 2.83967231 7 0 7 C0.66 5.02 1.32 3.04 2 1 C1.34 0.67 0.68 0.34 0 0 Z " fill="#C6C2BA" transform="translate(52,411)"/>
<path d="M0 0 C0.928125 0.5259375 0.928125 0.5259375 1.875 1.0625 C2.57625 1.371875 3.2775 1.68125 4 2 C4.66 1.67 5.32 1.34 6 1 C6 2.98 6 4.96 6 7 C3.125 7.625 3.125 7.625 0 8 C-0.66 7.34 -1.32 6.68 -2 6 C-1.44444444 1.44444444 -1.44444444 1.44444444 0 0 Z " fill="#BAB5AB" transform="translate(59,309)"/>
<path d="M0 0 C0.66 0 1.32 0 2 0 C2 0.66 2 1.32 2 2 C2.66 2.33 3.32 2.66 4 3 C3.67 6.63 3.34 10.26 3 14 C2.01 14 1.02 14 0 14 C0 9.38 0 4.76 0 0 Z " fill="#716650" transform="translate(149,281)"/>
<path d="M0 0 C3.3 0 6.6 0 10 0 C10 1.98 10 3.96 10 6 C9.36191406 5.9278125 8.72382812 5.855625 8.06640625 5.78125 C7.24011719 5.6884375 6.41382812 5.595625 5.5625 5.5 C4.73878906 5.4071875 3.91507812 5.314375 3.06640625 5.21875 C1.5360501 5.05543721 1.5360501 5.05543721 0 5 C0 3.35 0 1.7 0 0 Z " fill="#6FB9B0" transform="translate(76,388)"/>
<path d="M0 0 C0.33 0 0.66 0 1 0 C1 4.29 1 8.58 1 13 C-0.32 13.33 -1.64 13.66 -3 14 C-5.09350689 10.5980513 -5.17942163 7.94727588 -5 4 C-3.68 5.32 -2.36 6.64 -1 8 C-0.67 5.36 -0.34 2.72 0 0 Z " fill="#786D59" transform="translate(132,275)"/>
<path d="M0 0 C2.31 0 4.62 0 7 0 C6.67 2.31 6.34 4.62 6 7 C4.02 7 2.04 7 0 7 C0 4.66666667 0 2.33333333 0 0 Z " fill="#C2BEB5" transform="translate(81,424)"/>
<path d="M0 0 C0.23828125 2.265625 0.23828125 2.265625 0 5 C-1.64453125 6.984375 -1.64453125 6.984375 -3.8125 8.75 C-4.52019531 9.34296875 -5.22789062 9.9359375 -5.95703125 10.546875 C-8 12 -8 12 -11 13 C-11 12.34 -11 11.68 -11 11 C-10.01 10.34 -9.02 9.68 -8 9 C-6.9935725 7.33720673 -5.99414593 5.67016516 -5 4 C-1.32432432 0 -1.32432432 0 0 0 Z " fill="#D25F24" transform="translate(352,100)"/>
<path d="M0 0 C3.82622743 1.5588334 6.25147379 3.95433582 9 7 C9.33 7.99 9.66 8.98 10 10 C7.69 10 5.38 10 3 10 C2.814375 8.63875 2.814375 8.63875 2.625 7.25 C2.07890323 4.41029677 1.42736197 2.47409409 0 0 Z " fill="#548C80" transform="translate(172,244)"/>
<path d="M0 0 C0 3 0 3 -1.5 4.6875 C-1.995 5.120625 -2.49 5.55375 -3 6 C-3.66 5.67 -4.32 5.34 -5 5 C-3.35 3.35 -1.7 1.7 0 0 Z M-7 6 C-6.34 6.33 -5.68 6.66 -5 7 C-8.3 10.3 -11.6 13.6 -15 17 C-15 14 -15 14 -13.5625 12.5 C-13.046875 12.005 -12.53125 11.51 -12 11 C-11.67 10.01 -11.34 9.02 -11 8 C-9.0625 6.75 -9.0625 6.75 -7 6 Z " fill="#C15620" transform="translate(223,228)"/>
<path d="M0 0 C0.33 0.66 0.66 1.32 1 2 C-0.61594832 4.04119788 -2.2856382 6.04072937 -4 8 C-4.66 8 -5.32 8 -6 8 C-6.226875 8.61875 -6.45375 9.2375 -6.6875 9.875 C-8.37929835 12.61410209 -9.99244161 13.05024472 -13 14 C-8.88380164 9.08064098 -4.59589638 4.47352044 0 0 Z " fill="#578578" transform="translate(71,162)"/>
<path d="M0 0 C0.99 0.99 1.98 1.98 3 3 C1.948125 3.556875 0.89625 4.11375 -0.1875 4.6875 C-3.73953473 6.7017636 -6.24913686 8.9990584 -9 12 C-9.66 11.67 -10.32 11.34 -11 11 C-7.37 7.37 -3.74 3.74 0 0 Z " fill="#558274" transform="translate(83,150)"/>
<path d="M0 0 C0 1.98 0 3.96 0 6 C-0.99 5.67 -1.98 5.34 -3 5 C-3.33 5.66 -3.66 6.32 -4 7 C-4 6.34 -4 5.68 -4 5 C-4.99 5 -5.98 5 -7 5 C-6.625 3.0625 -6.625 3.0625 -6 1 C-4 0 -4 0 0 0 Z " fill="#C5C0B8" transform="translate(80,310)"/>
<path d="M0 0 C2.62187494 1.04874998 3.79371361 1.64931313 5.25 4.125 C5.4975 4.74375 5.745 5.3625 6 6 C6.66 6 7.32 6 8 6 C8 6.66 8 7.32 8 8 C8.639375 8.268125 9.27875 8.53625 9.9375 8.8125 C12 10 12 10 13 13 C12.34 13 11.68 13 11 13 C11 12.34 11 11.68 11 11 C9.68 10.34 8.36 9.68 7 9 C7 8.34 7 7.68 7 7 C5.68 6.34 4.36 5.68 3 5 C3 4.34 3 3.68 3 3 C2.34 3 1.68 3 1 3 C0.67 2.01 0.34 1.02 0 0 Z " fill="#50857A" transform="translate(146,218)"/>
<path d="M0 0 C0.99 0 1.98 0 3 0 C3 2.31 3 4.62 3 7 C1.68 7 0.36 7 -1 7 C-2 4 -2 4 -1.0625 1.8125 C-0.5365625 0.9153125 -0.5365625 0.9153125 0 0 Z " fill="#D7D3CD" transform="translate(99,424)"/>
<path d="M0 0 C0 3 0 3 -1.875 5.1875 C-4 7 -4 7 -6 7 C-6.2475 7.598125 -6.495 8.19625 -6.75 8.8125 C-8.16370012 11.28647521 -9.65055383 12.43370255 -12 14 C-9.38243868 8.32861715 -5.24688193 3.43065357 0 0 Z " fill="#5F9B8F" transform="translate(64,172)"/>
<path d="M0 0 C2.97 0.495 2.97 0.495 6 1 C5.67 2.32 5.34 3.64 5 5 C5.66 5 6.32 5 7 5 C7 5.66 7 6.32 7 7 C5.68 7.33 4.36 7.66 3 8 C2.67 7.01 2.34 6.02 2 5 C1.01 5.495 1.01 5.495 0 6 C0 4.02 0 2.04 0 0 Z " fill="#B5AFA4" transform="translate(71,425)"/>
<path d="M0 0 C1.98 0 3.96 0 6 0 C6 1.65 6 3.3 6 5 C3.69 5 1.38 5 -1 5 C-0.67 3.35 -0.34 1.7 0 0 Z " fill="#B3ADA1" transform="translate(53,426)"/>
<path d="M0 0 C0.66 0 1.32 0 2 0 C2.36923077 6.52307692 2.36923077 6.52307692 0.5 8.9375 C0.005 9.288125 -0.49 9.63875 -1 10 C-2.46726798 6.18510326 -1.43336419 3.70988378 0 0 Z " fill="#716650" transform="translate(78,284)"/>
<path d="M0 0 C2.64 0 5.28 0 8 0 C7.34 1.98 6.68 3.96 6 6 C4.68 5.67 3.36 5.34 2 5 C2.99 5 3.98 5 5 5 C5 4.34 5 3.68 5 3 C3.35 3 1.7 3 0 3 C0 2.01 0 1.02 0 0 Z " fill="#877D6B" transform="translate(138,281)"/>
<path d="M0 0 C0.99 0.33 1.98 0.66 3 1 C2.34 1 1.68 1 1 1 C1 2.32 1 3.64 1 5 C1.66 5 2.32 5 3 5 C3 4.34 3 3.68 3 3 C3.99 3 4.98 3 6 3 C6 4.32 6 5.64 6 7 C3.625 7.125 3.625 7.125 1 7 C0.34 6.34 -0.32 5.68 -1 5 C-0.625 2.375 -0.625 2.375 0 0 Z " fill="#BFBAB1" transform="translate(65,398)"/>
<path d="M0 0 C0.66 0 1.32 0 2 0 C2.33 0.66 2.66 1.32 3 2 C3.66 1.34 4.32 0.68 5 0 C5 2.31 5 4.62 5 7 C3.33333333 7 1.66666667 7 0 7 C0 4.69 0 2.38 0 0 Z " fill="#70BAB1" transform="translate(66,386)"/>
<path d="M0 0 C0.99 0 1.98 0 3 0 C2.8125 1.875 2.8125 1.875 2 4 C-0.5625 5.25 -0.5625 5.25 -3 6 C-3.33 4.35 -3.66 2.7 -4 1 C-3.01 1 -2.02 1 -1 1 C-0.67 0.67 -0.34 0.34 0 0 Z " fill="#A29B8D" transform="translate(141,288)"/>
<path d="M0 0 C1.32 0.33 2.64 0.66 4 1 C4 2.65 4 4.3 4 6 C2.68 6.33 1.36 6.66 0 7 C0 4.69 0 2.38 0 0 Z " fill="#F0EFED" transform="translate(52,278)"/>
<path d="M0 0 C1.32 0 2.64 0 4 0 C3.67 1.65 3.34 3.3 3 5 C1.68 5 0.36 5 -1 5 C-0.67 3.35 -0.34 1.7 0 0 Z " fill="#96CCC5" transform="translate(53,388)"/>
<path d="M0 0 C0.99 0 1.98 0 3 0 C3 2.64 3 5.28 3 8 C2.01 8 1.02 8 0 8 C0 5.36 0 2.72 0 0 Z " fill="#F3F2F1" transform="translate(73,284)"/>
<path d="M0 0 C0.33 0.66 0.66 1.32 1 2 C2.65 2 4.3 2 6 2 C5.67 2.99 5.34 3.98 5 5 C2.625 5.1875 2.625 5.1875 0 5 C-0.66 4.01 -1.32 3.02 -2 2 C-1.34 1.34 -0.68 0.68 0 0 Z " fill="#776C58" transform="translate(170,290)"/>
<path d="M0 0 C1.98 0 3.96 0 6 0 C6.33 1.32 6.66 2.64 7 4 C2.25 4.125 2.25 4.125 0 3 C0 2.01 0 1.02 0 0 Z " fill="#A49C8F" transform="translate(88,283)"/>
<path d="M0 0 C1.9375 0.8125 1.9375 0.8125 4 2 C4.33 2.99 4.66 3.98 5 5 C5.99 5.33 6.98 5.66 8 6 C8 6.66 8 7.32 8 8 C7.01 8 6.02 8 5 8 C3.61328125 6.50390625 3.61328125 6.50390625 2.3125 4.5625 C1.87550781 3.92441406 1.43851563 3.28632813 0.98828125 2.62890625 C0 1 0 1 0 0 Z " fill="#51867B" transform="translate(159,231)"/>
<path d="M0 0 C0.66 0.33 1.32 0.66 2 1 C-0.64 3.64 -3.28 6.28 -6 9 C-6 5.82629722 -5.69066658 4.6205332 -4 2 C-2 0.6875 -2 0.6875 0 0 Z " fill="#BE5520" transform="translate(234,216)"/>
<path d="M0 0 C1.32 0 2.64 0 4 0 C3.67 1.32 3.34 2.64 3 4 C1.35 4 -0.3 4 -2 4 C-1.34 2.68 -0.68 1.36 0 0 Z " fill="#8D8473" transform="translate(104,291)"/>
<path d="M0 0 C1.98 0.66 3.96 1.32 6 2 C4.68 2.33 3.36 2.66 2 3 C2 4.98 2 6.96 2 9 C1.67 9 1.34 9 1 9 C0.63877119 7.68942607 0.28619689 6.37646376 -0.0625 5.0625 C-0.35833984 3.96615234 -0.35833984 3.96615234 -0.66015625 2.84765625 C-0.77230469 2.23792969 -0.88445312 1.62820313 -1 1 C-0.67 0.67 -0.34 0.34 0 0 Z " fill="#807663" transform="translate(101,281)"/>
<path d="M0 0 C2 2 2 2 2 6 C0.35 6 -1.3 6 -3 6 C-2.42655063 3.13275314 -2.1385485 2.1385485 0 0 Z " fill="#BEB9B0" transform="translate(96,412)"/>
<path d="M0 0 C1.98 0 3.96 0 6 0 C6 0.66 6 1.32 6 2 C5.01 2.33 4.02 2.66 3 3 C2.67 4.98 2.34 6.96 2 9 C1.67 9 1.34 9 1 9 C0.67 6.03 0.34 3.06 0 0 Z " fill="#665A43" transform="translate(49,275)"/>
<path d="M0 0 C1.98 1.65 3.96 3.3 6 5 C5.67 5.99 5.34 6.98 5 8 C2.20127563 5.47211993 0.54226981 3.79588866 0 0 Z " fill="#D55F24" transform="translate(77,144)"/>
<path d="M0 0 C0.33 0 0.66 0 1 0 C1 1.65 1 3.3 1 5 C-1.31 5.66 -3.62 6.32 -6 7 C-5.02433888 5.83040013 -4.044375 4.66438823 -3.0625 3.5 C-2.51722656 2.8503125 -1.97195313 2.200625 -1.41015625 1.53125 C-0.71212891 0.77328125 -0.71212891 0.77328125 0 0 Z " fill="#C9581F" transform="translate(351,100)"/>
<path d="M0 0 C0.99 0 1.98 0 3 0 C3 1.98 3 3.96 3 6 C1.68 5.34 0.36 4.68 -1 4 C-0.67 2.68 -0.34 1.36 0 0 Z " fill="#7CBFB7" transform="translate(83,388)"/>
<path d="M0 0 C0.33 0.99 0.66 1.98 1 3 C0 4 0 4 -3.0625 4.0625 C-4.5165625 4.0315625 -4.5165625 4.0315625 -6 4 C-6 3.34 -6 2.68 -6 2 C-2.25 0 -2.25 0 0 0 Z " fill="#6A5E48" transform="translate(58,283)"/>
<path d="M0 0 C0.66 0.33 1.32 0.66 2 1 C-0.31 3.31 -2.62 5.62 -5 8 C-5.66 7.67 -6.32 7.34 -7 7 C-4.66666667 4.66666667 -2.33333333 2.33333333 0 0 Z " fill="#6AACA0" transform="translate(70,168)"/>
<path d="M0 0 C1.98 0 3.96 0 6 0 C6 0.99 6 1.98 6 3 C3.69 3 1.38 3 -1 3 C-0.67 2.01 -0.34 1.02 0 0 Z " fill="#695D46" transform="translate(90,281)"/>
</svg>
