<?xml version="1.0" encoding="UTF-8"?>
<svg version="1.1" xmlns="http://www.w3.org/2000/svg" width="400" height="517">
<path d="M0 0 C132 0 264 0 400 0 C400 170.61 400 341.22 400 517 C268 517 136 517 0 517 C0 346.39 0 175.78 0 0 Z " fill="#FDF7EB" transform="translate(0,0)"/>
<path d="M0 0 C4.76862544 -0.33334081 8.72195437 -0.58790099 13.125 1.4375 C15.51524453 4.70416752 15.67376437 6.8919649 15.3984375 10.87109375 C15 13 15 13 13.6875 15.5625 C9.33926401 17.88830065 4.82751646 17.29963895 0 17 C0.66 16.67 1.32 16.34 2 16 C2 11.38 2 6.76 2 2 C1.34 2 0.68 2 0 2 C0 1.34 0 0.68 0 0 Z " fill="#6AC7B9" transform="translate(157,105)"/>
<path d="M0 0 C2.89484579 1.48272589 4.04826714 2.44342722 5.5625 5.3125 C6.00568708 8.78413215 5.73801512 10.87371221 4.4375 14.125 C2.5625 16.3125 2.5625 16.3125 -0.375 17.375 C-3.4375 17.3125 -3.4375 17.3125 -5.75 15.5 C-8.48595608 11.95339026 -8.87735139 9.79898422 -8.4375 5.3125 C-4.12095324 -1.16232014 -4.12095324 -1.16232014 0 0 Z " fill="#282725" transform="translate(116.4375,133.6875)"/>
<path d="M0 0 C2.97844654 1.33246292 3.93821176 2.11330309 5.375 5.0625 C5.89725812 9.76282307 6.00630237 11.94018468 3.6875 16.0625 C1.375 18.0625 1.375 18.0625 -1.125 18.6875 C-3.625 18.0625 -3.625 18.0625 -5.9375 16.0625 C-8.08394625 12.24659555 -8.62467903 9.34560757 -7.625 5.0625 C-4.0782872 0.09710208 -4.0782872 0.09710208 0 0 Z " fill="#393835" transform="translate(83.625,132.9375)"/>
<path d="M0 0 C1.32 0 2.64 0 4 0 C4.33 0.66 4.66 1.32 5 2 C14.9 2 24.8 2 35 2 C34.67 3.65 34.34 5.3 34 7 C33.071875 6.979375 32.14375 6.95875 31.1875 6.9375 C27.97713989 6.84230396 27.97713989 6.84230396 25 8 C25 6.68 25 5.36 25 4 C24.34 4 23.68 4 23 4 C22.67 4.99 22.34 5.98 22 7 C20.68 6.67 19.36 6.34 18 6 C18 5.34 18 4.68 18 4 C17.34 4 16.68 4 16 4 C16.33 4.99 16.66 5.98 17 7 C11.39 7 5.78 7 0 7 C0 4.69 0 2.38 0 0 Z " fill="#97948D" transform="translate(186,408)"/>
<path d="M0 0 C1.093125 0.185625 2.18625 0.37125 3.3125 0.5625 C6.93624133 1.2578068 6.93624133 1.2578068 10 0 C10 0.66 10 1.32 10 2 C10.99 2.33 11.98 2.66 13 3 C13.33 2.34 13.66 1.68 14 1 C18.68523557 -0.70372202 22.38634345 0.67064133 27 2 C27 3.65 27 5.3 27 7 C23.7 6.67 20.4 6.34 17 6 C17 5.01 17 4.02 17 3 C16.34 3 15.68 3 15 3 C15.33 3.99 15.66 4.98 16 6 C13.03 6 10.06 6 7 6 C6.67 6.66 6.34 7.32 6 8 C5.01 8 4.02 8 3 8 C3 7.34 3 6.68 3 6 C0.03 6 -2.94 6 -6 6 C-6 4.68 -6 3.36 -6 2 C-4.35 2 -2.7 2 -1 2 C-0.67 1.34 -0.34 0.68 0 0 Z " fill="#9A9790" transform="translate(191,229)"/>
<path d="M0 0 C3 0.1875 3 0.1875 6 1 C8.67547104 5.01320655 8.81637093 8.28319017 8 13 C5.75 16.125 5.75 16.125 3 18 C0.6875 17.8125 0.6875 17.8125 -1 17 C-1.82638376 14.10765685 -2 12.11257569 -2 9 C-2.04125 7.80375 -2.0825 6.6075 -2.125 5.375 C-2 2 -2 2 0 0 Z " fill="#36B6A7" transform="translate(51,105)"/>
<path d="M0 0 C3.625 0.1875 3.625 0.1875 6.625 2.1875 C6.46 2.97125 6.295 3.755 6.125 4.5625 C5.5626293 7.06958039 5.5626293 7.06958039 5.625 9.1875 C5.955 9.5175 6.285 9.8475 6.625 10.1875 C6.66563832 11.85367115 6.667721 13.52138095 6.625 15.1875 C5.305 15.5175 3.985 15.8475 2.625 16.1875 C2.295 13.8775 1.965 11.5675 1.625 9.1875 C0.635 8.8575 -0.355 8.5275 -1.375 8.1875 C-1.375 10.8275 -1.375 13.4675 -1.375 16.1875 C-2.365 16.1875 -3.355 16.1875 -4.375 16.1875 C-4.40185095 13.70826199 -4.42176547 11.2293116 -4.4375 8.75 C-4.45006836 7.68942383 -4.45006836 7.68942383 -4.46289062 6.60742188 C-4.47153588 4.80056441 -4.42720011 2.99362397 -4.375 1.1875 C-3.375 0.1875 -3.375 0.1875 0 0 Z " fill="#3F3E3B" transform="translate(55.375,133.8125)"/>
<path d="M0 0 C0.99 0 1.98 0 3 0 C3 2.31 3 4.62 3 7 C4.98 7 6.96 7 9 7 C9 4.69 9 2.38 9 0 C10.32 0 11.64 0 13 0 C13 5.28 13 10.56 13 16 C11.02 16 9.04 16 7 16 C7.66 15.67 8.32 15.34 9 15 C9 12.69 9 10.38 9 8 C7.35 8 5.7 8 4 8 C4 10.64 4 13.28 4 16 C2.02 16 0.04 16 -2 16 C-1.34 15.67 -0.68 15.34 0 15 C0 10.05 0 5.1 0 0 Z " fill="#25B0A1" transform="translate(81,106)"/>
<path d="M0 0 C2.14576637 -0.02685938 4.29162645 -0.04633088 6.4375 -0.0625 C7.63246094 -0.07410156 8.82742187 -0.08570312 10.05859375 -0.09765625 C13 0 13 0 14 1 C14.04063832 2.66617115 14.042721 4.33388095 14 6 C13.34 6 12.68 6 12 6 C11.67 5.01 11.34 4.02 11 3 C9.35 2.67 7.7 2.34 6 2 C6 3.98 6 5.96 6 8 C7.32 7.01 8.64 6.02 10 5 C10 7.31 10 9.62 10 12 C8.68 11.01 7.36 10.02 6 9 C6 11.31 6 13.62 6 16 C7.65 15.67 9.3 15.34 11 15 C11.33 13.68 11.66 12.36 12 11 C12.66 11 13.32 11 14 11 C14 12.98 14 14.96 14 17 C10.04 17 6.08 17 2 17 C2 12.05 2 7.1 2 2 C1.34 2 0.68 2 0 2 C0 1.34 0 0.68 0 0 Z " fill="#19AC9C" transform="translate(175,105)"/>
<path d="M0 0 C0.66 0.33 1.32 0.66 2 1 C1.34 3.31 0.68 5.62 0 8 C3.3 8 6.6 8 10 8 C9.67 10.97 9.34 13.94 9 17 C8.01 16.67 7.02 16.34 6 16 C3.99124558 16.27571139 1.98821313 16.60235737 0 17 C-2.88375157 14.11624843 -4.31825682 11.98885835 -4.5 7.9375 C-4 4 -4 4 -2 1.5 C-1.34 1.005 -0.68 0.51 0 0 Z " fill="#DCD8CE" transform="translate(129,134)"/>
<path d="M0 0 C0 0.66 0 1.32 0 2 C2.64 2 5.28 2 8 2 C8 1.34 8 0.68 8 0 C8.66 0 9.32 0 10 0 C10 0.66 10 1.32 10 2 C10.66 2 11.32 2 12 2 C12 1.34 12 0.68 12 0 C12.66 0 13.32 0 14 0 C14.66 0.66 15.32 1.32 16 2 C19.08347826 2.16681109 19.08347826 2.16681109 22 2 C21.67 3.32 21.34 4.64 21 6 C12.68764305 6.94998365 4.3657246 7.40061216 -4 7 C-5 6 -5 6 -5.0625 3.4375 C-5.041875 2.633125 -5.02125 1.82875 -5 1 C-2 0 -2 0 0 0 Z " fill="#C6C2B9" transform="translate(52,240)"/>
<path d="M0 0 C8.91 0 17.82 0 27 0 C27 1.65 27 3.3 27 5 C18.09 5 9.18 5 0 5 C-0.33 4.34 -0.66 3.68 -1 3 C-0.67 2.01 -0.34 1.02 0 0 Z " fill="#A09C94" transform="translate(118,288)"/>
<path d="M0 0 C0.99 0 1.98 0 3 0 C3 0.66 3 1.32 3 2 C6.63 2 10.26 2 14 2 C14 1.34 14 0.68 14 0 C14.66 0 15.32 0 16 0 C16 0.66 16 1.32 16 2 C17.98 1.67 19.96 1.34 22 1 C23 4 23 4 22 7 C14.24011755 7.82823047 7.491838 8.49727933 0 6 C0 4.02 0 2.04 0 0 Z " fill="#A4A19A" transform="translate(99,349)"/>
<path d="M0 0 C0.33 0.33 0.66 0.66 1 1 C2.68608966 1.07205511 4.37500659 1.08386068 6.0625 1.0625 C6.98160156 1.05347656 7.90070313 1.04445312 8.84765625 1.03515625 C9.55792969 1.02355469 10.26820313 1.01195312 11 1 C10.34 2.32 9.68 3.64 9 5 C-0.66666667 5 -10.33333333 5 -20 5 C-19.67 3.68 -19.34 2.36 -19 1 C-12.67763143 0.18421051 -6.38030379 -0.43041732 0 0 Z " fill="#A09C95" transform="translate(288,230)"/>
<path d="M0 0 C0.99 0 1.98 0 3 0 C3 2.31 3 4.62 3 7 C3.99 6.67 4.98 6.34 6 6 C6 4.02 6 2.04 6 0 C7.32 0.33 8.64 0.66 10 1 C10.625 3.375 10.625 3.375 11 6 C10.34 6.66 9.68 7.32 9 8 C9.33 8.33 9.66 8.66 10 9 C10.04080783 10.99958364 10.04254356 13.00045254 10 15 C10.66 15 11.32 15 12 15 C12.33 14.01 12.66 13.02 13 12 C12.67 13.65 12.34 15.3 12 17 C10.68 16.67 9.36 16.34 8 16 C7.5978125 14.2984375 7.5978125 14.2984375 7.1875 12.5625 C6.795625 11.386875 6.40375 10.21125 6 9 C5.01 8.67 4.02 8.34 3 8 C3.33 10.64 3.66 13.28 4 16 C2.02 16 0.04 16 -2 16 C-1.34 15.67 -0.68 15.34 0 15 C0 10.05 0 5.1 0 0 Z " fill="#27B1A1" transform="translate(124,106)"/>
<path d="M0 0 C10.33333333 0 20.66666667 0 31 0 C30.125 3.875 30.125 3.875 29 5 C24.41721872 5.15275938 20.48355428 4.94390616 16 4 C14.0003559 3.96227087 11.99945939 3.95350094 10 4 C10 3.01 10 2.02 10 1 C9.34 1 8.68 1 8 1 C8.33 2.32 8.66 3.64 9 5 C5.7 4.67 2.4 4.34 -1 4 C-0.67 2.68 -0.34 1.36 0 0 Z " fill="#94918A" transform="translate(217,351)"/>
<path d="M0 0 C1.32 0 2.64 0 4 0 C4 0.66 4 1.32 4 2 C6.64 2 9.28 2 12 2 C12 1.34 12 0.68 12 0 C14.97 0.495 14.97 0.495 18 1 C18.625 2.8125 18.625 2.8125 19 5 C18.01 6.485 18.01 6.485 17 8 C16.01 8 15.02 8 14 8 C13.34 7.34 12.68 6.68 12 6 C10.07744218 6.23203284 8.15511305 6.47213421 6.2421875 6.7734375 C2.71122256 7.1302249 -0.50590768 6.56155055 -4 6 C-3.67 5.34 -3.34 4.68 -3 4 C-3.33 3.67 -3.66 3.34 -4 3 C-3.01 2.67 -2.02 2.34 -1 2 C-0.67 1.34 -0.34 0.68 0 0 Z " fill="#99958E" transform="translate(51,269)"/>
<path d="M0 0 C1.216875 0.268125 2.43375 0.53625 3.6875 0.8125 C3.6875 2.7925 3.6875 4.7725 3.6875 6.8125 C2.0375 5.1625 0.3875 3.5125 -1.3125 1.8125 C-2.3025 2.1425 -3.2925 2.4725 -4.3125 2.8125 C-4.3125 6.7725 -4.3125 10.7325 -4.3125 14.8125 C-3.3225 14.8125 -2.3325 14.8125 -1.3125 14.8125 C-0.9825 13.1625 -0.6525 11.5125 -0.3125 9.8125 C-0.9725 9.4825 -1.6325 9.1525 -2.3125 8.8125 C-0.3325 8.8125 1.6475 8.8125 3.6875 8.8125 C3.6875 11.4525 3.6875 14.0925 3.6875 16.8125 C3.3575 16.1525 3.0275 15.4925 2.6875 14.8125 C2.130625 15.328125 1.57375 15.84375 1 16.375 C-1.3125 17.8125 -1.3125 17.8125 -3.875 17.8125 C-6.3125 16.8125 -6.3125 16.8125 -8.125 14.6875 C-9.62745373 11.04998045 -9.87014485 8.71601394 -9.3125 4.8125 C-6.60082036 0.74498053 -4.78458146 -0.58638743 0 0 Z " fill="#13AB9B" transform="translate(114.3125,105.1875)"/>
<path d="M0 0 C2.28476878 0.5077264 4.28415942 1.12386436 6.4375 2.0625 C9.18816195 3.06883974 11.09642036 3.3139005 14 3 C14.66 2.34 15.32 1.68 16 1 C19.5625 0.8125 19.5625 0.8125 23 1 C23.33 1.33 23.66 1.66 24 2 C24.33 1.34 24.66 0.68 25 0 C25.66 0 26.32 0 27 0 C27.33 0.66 27.66 1.32 28 2 C28.66 2 29.32 2 30 2 C29.34 3.32 28.68 4.64 28 6 C18.76 6 9.52 6 0 6 C0 4.02 0 2.04 0 0 Z " fill="#A8A59C" transform="translate(48,39)"/>
<path d="M0 0 C2.64 0 5.28 0 8 0 C7.01 0.495 7.01 0.495 6 1 C6 5.62 6 10.24 6 15 C7.65 14.67 9.3 14.34 11 14 C12.37466625 11.52363988 12.37466625 11.52363988 13 9 C13.33 9 13.66 9 14 9 C14 11.64 14 14.28 14 17 C9.38 17 4.76 17 0 17 C0 16.34 0 15.68 0 15 C0.66 15 1.32 15 2 15 C2 10.38 2 5.76 2 1 C1.34 0.67 0.68 0.34 0 0 Z " fill="#232220" transform="translate(92,134)"/>
<path d="M0 0 C4.62 0 9.24 0 14 0 C14 2.31 14 4.62 14 7 C12 4 12 4 12 2 C11.01 2 10.02 2 9 2 C9 6.62 9 11.24 9 16 C9.66 16.33 10.32 16.66 11 17 C9.02 17 7.04 17 5 17 C5 12.05 5 7.1 5 2 C4.01 2 3.02 2 2 2 C1.67 3.65 1.34 5.3 1 7 C0.67 7 0.34 7 0 7 C0 4.69 0 2.38 0 0 Z " fill="#20AE9F" transform="translate(62,105)"/>
<path d="M0 0 C0.33 0.66 0.66 1.32 1 2 C2.7015625 1.9690625 2.7015625 1.9690625 4.4375 1.9375 C8 2 8 2 9 3 C9 2.67 9 2.34 9 2 C11.97 2 14.94 2 18 2 C17.67 3.32 17.34 4.64 17 6 C13.04 6 9.08 6 5 6 C4.67 6.66 4.34 7.32 4 8 C3.34 8 2.68 8 2 8 C2 7.34 2 6.68 2 6 C1.01 6.495 1.01 6.495 0 7 C-2.3329866 7.04022391 -4.66706666 7.04320247 -7 7 C-7 3 -7 3 -5.75 1.25 C-4 0 -4 0 0 0 Z " fill="#ADA9A1" transform="translate(167,240)"/>
<path d="M0 0 C2.00720923 0.28674418 4.0085944 0.61866701 6 1 C5.67 2.65 5.34 4.3 5 6 C2.6875 6.6875 2.6875 6.6875 0 7 C-1.8125 5.5625 -1.8125 5.5625 -3 4 C-3.99 4.33 -4.98 4.66 -6 5 C-8.39490986 5.06970052 -10.79167691 5.08448003 -13.1875 5.0625 C-14.45980469 5.05347656 -15.73210937 5.04445313 -17.04296875 5.03515625 C-18.50669922 5.01775391 -18.50669922 5.01775391 -20 5 C-20 3.68 -20 2.36 -20 1 C-16.37 1 -12.74 1 -9 1 C-9 1.99 -9 2.98 -9 4 C-8.67 3.01 -8.34 2.02 -8 1 C-6.865625 1.020625 -5.73125 1.04125 -4.5625 1.0625 C-1.18424326 1.41577477 -1.18424326 1.41577477 0 0 Z " fill="#89867F" transform="translate(317,339)"/>
<path d="M0 0 C0.66 0 1.32 0 2 0 C2.33 0.66 2.66 1.32 3 2 C3.99 2 4.98 2 6 2 C5.67 3.32 5.34 4.64 5 6 C-12.50355619 7.83214794 -12.50355619 7.83214794 -18 6 C-18 4.68 -18 3.36 -18 2 C-12.39 2 -6.78 2 -1 2 C-0.67 1.34 -0.34 0.68 0 0 Z " fill="#ACA89F" transform="translate(241,320)"/>
<path d="M0 0 C1.32 0 2.64 0 4 0 C4.33 0.66 4.66 1.32 5 2 C10.28 2 15.56 2 21 2 C20.67 2.66 20.34 3.32 20 4 C20.33 4.33 20.66 4.66 21 5 C18 6 18 6 17 6 C15.50898464 6.07020936 14.01812542 6.14374212 12.52734375 6.21875 C11.62822266 6.26386719 10.72910156 6.30898438 9.80273438 6.35546875 C8.85720703 6.40316406 7.91167969 6.45085937 6.9375 6.5 C5.98810547 6.54769531 5.03871094 6.59539062 4.06054688 6.64453125 C1.70702 6.76279893 -0.64649496 6.88129874 -3 7 C-3.33 5.35 -3.66 3.7 -4 2 C-2.68 2 -1.36 2 0 2 C0 1.34 0 0.68 0 0 Z " fill="#96938C" transform="translate(186,309)"/>
<path d="M0 0 C0.66 0.66 1.32 1.32 2 2 C3.36125 1.4740625 3.36125 1.4740625 4.75 0.9375 C8.15644005 -0.04512694 8.78669499 0.13672403 12 1 C13.58211573 1.06548492 15.16670081 1.08578381 16.75 1.0625 C17.94882813 1.04896484 17.94882813 1.04896484 19.171875 1.03515625 C20.07679688 1.01775391 20.07679688 1.01775391 21 1 C21.33 2.32 21.66 3.64 22 5 C21.01 5.33 20.02 5.66 19 6 C18.67 5.67 18.34 5.34 18 5 C17.47921875 5.14308594 16.9584375 5.28617187 16.421875 5.43359375 C13.03862206 6.22483839 9.70231278 6.10491972 6.25 6.0625 C5.55261719 6.05798828 4.85523438 6.05347656 4.13671875 6.04882812 C2.42444197 6.0371002 0.71220967 6.01916653 -1 6 C-1.625 4.125 -1.625 4.125 -2 2 C-1.34 1.34 -0.68 0.68 0 0 Z " fill="#A29F97" transform="translate(190,287)"/>
<path d="M0 0 C0.33 0.66 0.66 1.32 1 2 C4.96 2 8.92 2 13 2 C13.33 1.34 13.66 0.68 14 0 C14.66 0 15.32 0 16 0 C16 0.66 16 1.32 16 2 C19.3 2 22.6 2 26 2 C26.33 1.34 26.66 0.68 27 0 C27 1.98 27 3.96 27 6 C26.67 5.01 26.34 4.02 26 3 C25.34 3 24.68 3 24 3 C23.67 3.99 23.34 4.98 23 6 C22.67 5.67 22.34 5.34 22 5 C20.6657895 5.32980484 19.33265363 5.66395953 18 6 C16.27268559 6.09021304 14.54216105 6.13010978 12.8125 6.125 C11.93207031 6.12757813 11.05164063 6.13015625 10.14453125 6.1328125 C8 6 8 6 7 5 C6.01 5.33 5.02 5.66 4 6 C2.68 6 1.36 6 0 6 C0 4.02 0 2.04 0 0 Z " fill="#8D8A83" transform="translate(161,338)"/>
<path d="M0 0 C0.66 0 1.32 0 2 0 C2 1.32 2 2.64 2 4 C2.99 4.33 3.98 4.66 5 5 C1.87819599 5.96661363 -0.52083795 5.98988909 -3.75 5.5625 C-4.94882813 5.40974609 -4.94882813 5.40974609 -6.171875 5.25390625 C-6.77515625 5.17011719 -7.3784375 5.08632813 -8 5 C-8 5.66 -8 6.32 -8 7 C-8.66 7 -9.32 7 -10 7 C-10 6.34 -10 5.68 -10 5 C-10.66 5 -11.32 5 -12 5 C-12.33 4.67 -12.66 4.34 -13 4 C-13.99 4.33 -14.98 4.66 -16 5 C-18.33299825 5.03954234 -20.66708189 5.04401732 -23 5 C-23 3.68 -23 2.36 -23 1 C-10 1 -10 1 -7.7734375 1.03515625 C-6.58621094 1.04869141 -6.58621094 1.04869141 -5.375 1.0625 C-4.18003906 1.07990234 -4.18003906 1.07990234 -2.9609375 1.09765625 C-0.99597458 1.21966147 -0.99597458 1.21966147 0 0 Z " fill="#9F9B94" transform="translate(155,270)"/>
<path d="M0 0 C0.9075 0.165 1.815 0.33 2.75 0.5 C8.13782475 1.28873311 13.56912556 1.08025923 19 1 C19 2.65 19 4.3 19 6 C17.53626953 5.98259766 17.53626953 5.98259766 16.04296875 5.96484375 C14.77066406 5.95582031 13.49835938 5.94679687 12.1875 5.9375 C10.92292969 5.92589844 9.65835938 5.91429687 8.35546875 5.90234375 C5.00394763 5.83840884 5.00394763 5.83840884 2 7 C1.34 6.67 0.68 6.34 0 6 C0 4.02 0 2.04 0 0 Z " fill="#9E9A93" transform="translate(70,229)"/>
<path d="M0 0 C0.66 0 1.32 0 2 0 C2.33 0.66 2.66 1.32 3 2 C5.64 2 8.28 2 11 2 C11.33 3.65 11.66 5.3 12 7 C9.35409986 7.02684679 6.70846904 7.04676357 4.0625 7.0625 C2.93038086 7.07506836 2.93038086 7.07506836 1.77539062 7.08789062 C-0.14994313 7.09652441 -2.07535581 7.05224333 -4 7 C-4.33 6.67 -4.66 6.34 -5 6 C-5.928125 6.309375 -5.928125 6.309375 -6.875 6.625 C-7.57625 6.74875 -8.2775 6.8725 -9 7 C-10.75 5.5625 -10.75 5.5625 -12 4 C-9.11788698 3.03929566 -7.30149956 2.89418117 -4.3125 2.9375 C-3.10013672 2.95103516 -3.10013672 2.95103516 -1.86328125 2.96484375 C-0.94095703 2.98224609 -0.94095703 2.98224609 0 3 C0 2.01 0 1.02 0 0 Z " fill="#A4A098" transform="translate(134,257)"/>
<path d="M0 0 C0.78375 0.185625 1.5675 0.37125 2.375 0.5625 C4.97089775 1.25962266 4.97089775 1.25962266 7 0 C9.33672984 0.3086247 11.66993089 0.64456573 14 1 C15.66628955 1.03545297 17.33409803 1.05048188 19 1 C19 2.65 19 4.3 19 6 C12.66666667 6 6.33333333 6 0 6 C0 4.02 0 2.04 0 0 Z " fill="#9A9790" transform="translate(305,258)"/>
<path d="M0 0 C1.65 0.33 3.3 0.66 5 1 C5 4.96 5 8.92 5 13 C3.02 13.99 3.02 13.99 1 15 C-1 13 -1 13 -1.23046875 10.21484375 C-1.21628906 9.13332031 -1.20210938 8.05179688 -1.1875 6.9375 C-1.18105469 5.85339844 -1.17460938 4.76929688 -1.16796875 3.65234375 C-1 1 -1 1 0 0 Z " fill="#F3EFE5" transform="translate(113,135)"/>
<path d="M0 0 C2.31 0 4.62 0 7 0 C7.12375 0.61875 7.2475 1.2375 7.375 1.875 C7.87197356 4.19120832 7.87197356 4.19120832 10 6 C10.66 4.35 11.32 2.7 12 1 C11.34 0.67 10.68 0.34 10 0 C11.65 0 13.3 0 15 0 C14.72285156 0.56847656 14.44570312 1.13695312 14.16015625 1.72265625 C11.89063217 6.56053853 10.45344816 10.67198412 10 16 C8.68 16 7.36 16 6 16 C5.81824219 14.98679688 5.81824219 14.98679688 5.6328125 13.953125 C5.46523437 13.06109375 5.29765625 12.1690625 5.125 11.25 C4.88136719 9.92742187 4.88136719 9.92742187 4.6328125 8.578125 C3.74197128 4.94877187 2.64560971 2.64560971 0 0 Z " fill="#21211F" transform="translate(141,134)"/>
<path d="M0 0 C0.66 0 1.32 0 2 0 C2 2.31 2 4.62 2 7 C1.34 7 0.68 7 0 7 C0 6.01 0 5.02 0 4 C-0.33 4.99 -0.66 5.98 -1 7 C-5.33333333 7 -9.66666667 7 -14 7 C-14 6.34 -14 5.68 -14 5 C-14.66 5.66 -15.32 6.32 -16 7 C-16.33 5.35 -16.66 3.7 -17 2 C-11.39 2 -5.78 2 0 2 C0 1.34 0 0.68 0 0 Z " fill="#9C9891" transform="translate(156,408)"/>
<path d="M0 0 C0.66 0 1.32 0 2 0 C2 0.66 2 1.32 2 2 C2.99 2 3.98 2 5 2 C5.33 1.34 5.66 0.68 6 0 C6.66 0 7.32 0 8 0 C8 0.66 8 1.32 8 2 C11.3 2 14.6 2 18 2 C18 3.32 18 4.64 18 6 C11.33333333 6 4.66666667 6 -2 6 C-2 4.68 -2 3.36 -2 2 C-1.34 2 -0.68 2 0 2 C0 1.34 0 0.68 0 0 Z " fill="#99968F" transform="translate(190,386)"/>
<path d="M0 0 C0.66 0 1.32 0 2 0 C3.65 5.61 5.3 11.22 7 17 C5.35 17 3.7 17 2 17 C2 15.68 2 14.36 2 13 C-0.47266765 13.34444881 -0.47266765 13.34444881 -3 14 C-3.33 14.66 -3.66 15.32 -4 16 C-3.34 16.33 -2.68 16.66 -2 17 C-3.65 17 -5.3 17 -7 17 C-6.34 16.67 -5.68 16.34 -5 16 C-4.34786708 13.97536745 -4.34786708 13.97536745 -4 12 C-2.35 12 -0.7 12 1 12 C0.4740625 10.700625 0.4740625 10.700625 -0.0625 9.375 C-1.068959 5.75174758 -0.86063519 3.6146678 0 0 Z " fill="#28B1A2" transform="translate(146,105)"/>
<path d="M0 0 C2.60423592 -0.02697137 5.20819244 -0.04682489 7.8125 -0.0625 C8.55048828 -0.07087891 9.28847656 -0.07925781 10.04882812 -0.08789062 C13.29922068 -0.10259828 15.89404895 -0.03531702 19 1 C19 2.32 19 3.64 19 5 C18.34 5 17.68 5 17 5 C16.67 4.67 16.34 4.34 16 4 C14.66400079 4.32248257 13.33106622 4.65772583 12 5 C9 5 6 5 3 5 C2.67 4.01 2.34 3.02 2 2 C1.34 2 0.68 2 0 2 C-0.33 2.66 -0.66 3.32 -1 4 C-0.67 2.68 -0.34 1.36 0 0 Z " fill="#95918B" transform="translate(256,259)"/>
<path d="M0 0 C0.66 0 1.32 0 2 0 C2.33 0.66 2.66 1.32 3 2 C5.64 1.67 8.28 1.34 11 1 C11 2.65 11 4.3 11 6 C10.67 5.01 10.34 4.02 10 3 C9.67 3.99 9.34 4.98 9 6 C8.401875 5.814375 7.80375 5.62875 7.1875 5.4375 C4.83591238 4.77906313 4.83591238 4.77906313 2 6 C-0.06145107 6.068991 -2.12501401 6.08467727 -4.1875 6.0625 C-5.81751953 6.04896484 -5.81751953 6.04896484 -7.48046875 6.03515625 C-8.31191406 6.02355469 -9.14335937 6.01195312 -10 6 C-10 4.68 -10 3.36 -10 2 C-6.7 2 -3.4 2 0 2 C0 1.34 0 0.68 0 0 Z " fill="#97938C" transform="translate(277,338)"/>
<path d="M0 0 C0.66 0 1.32 0 2 0 C2.33 0.66 2.66 1.32 3 2 C3.99 2 4.98 2 6 2 C6 1.34 6 0.68 6 0 C6.66 0 7.32 0 8 0 C8 0.66 8 1.32 8 2 C9.98 2 11.96 2 14 2 C13.67 3.65 13.34 5.3 13 7 C8.71 7 4.42 7 0 7 C0 4.69 0 2.38 0 0 Z " fill="#ABA7A0" transform="translate(122,320)"/>
<path d="M0 0 C0 1.32 0 2.64 0 4 C-5.28 4 -10.56 4 -16 4 C-16 2.68 -16 1.36 -16 0 C-10.5475877 -2.89659403 -5.72324707 -1.90774902 0 0 Z " fill="#C0BBB3" transform="translate(135,300)"/>
<path d="M0 0 C0 0.66 0 1.32 0 2 C3.5219721 2.08004482 6.61981469 2.04005702 10 1 C10 2.65 10 4.3 10 6 C8.906875 5.979375 7.81375 5.95875 6.6875 5.9375 C3.05615809 5.81455548 3.05615809 5.81455548 0 7 C-2.00875442 6.72428861 -4.01178687 6.39764263 -6 6 C-6 5.01 -6 4.02 -6 3 C-6.66 3 -7.32 3 -8 3 C-8 2.34 -8 1.68 -8 1 C-5.23735711 0.40267181 -2.83967231 0 0 0 Z " fill="#8F8B84" transform="translate(212,338)"/>
<path d="M0 0 C0.9075 0.185625 1.815 0.37125 2.75 0.5625 C5.68314324 0.95734621 7.2644657 0.94691572 10 0 C10 0.66 10 1.32 10 2 C12.31 2 14.62 2 17 2 C16.34 3.98 15.68 5.96 15 8 C11.26988106 7.4978686 7.64243404 6.94433475 4 6 C3.34 6 2.68 6 2 6 C1.34 4.02 0.68 2.04 0 0 Z " fill="#595752" transform="translate(96,211)"/>
<path d="M0 0 C0.66 0 1.32 0 2 0 C2 0.66 2 1.32 2 2 C4.97 2 7.94 2 11 2 C11 1.34 11 0.68 11 0 C11.66 0 12.32 0 13 0 C13 1.98 13 3.96 13 6 C6.4 6 -0.2 6 -7 6 C-7 4.35 -7 2.7 -7 1 C-4.69 1.33 -2.38 1.66 0 2 C0 1.34 0 0.68 0 0 Z " fill="#B4B0A8" transform="translate(88,39)"/>
<path d="M0 0 C0.66 0 1.32 0 2 0 C2.33 0.66 2.66 1.32 3 2 C3.66 2 4.32 2 5 2 C5.33 1.34 5.66 0.68 6 0 C6.66 0 7.32 0 8 0 C8.33 0.66 8.66 1.32 9 2 C10.98 2 12.96 2 15 2 C14.67 3.32 14.34 4.64 14 6 C9.05 6.33 4.1 6.66 -1 7 C-1.33 5.35 -1.66 3.7 -2 2 C-1.34 2 -0.68 2 0 2 C0 1.34 0 0.68 0 0 Z " fill="#9F9B94" transform="translate(68,349)"/>
<path d="M0 0 C1.98 0.495 1.98 0.495 4 1 C4 5.29 4 9.58 4 14 C2.68 14.33 1.36 14.66 0 15 C-1 14 -1 14 -1.1328125 11.09375 C-1.13023438 9.9078125 -1.12765625 8.721875 -1.125 7.5 C-1.12757812 6.3140625 -1.13015625 5.128125 -1.1328125 3.90625 C-1 1 -1 1 0 0 Z " fill="#FAF7EE" transform="translate(81,135)"/>
<path d="M0 0 C2.79173055 -0.02690104 5.58320348 -0.04679053 8.375 -0.0625 C9.56609375 -0.07506836 9.56609375 -0.07506836 10.78125 -0.08789062 C16.7734375 -0.11328125 16.7734375 -0.11328125 19 1 C18.67 1.99 18.34 2.98 18 4 C18 3.34 18 2.68 18 2 C17.34 2 16.68 2 16 2 C16 2.66 16 3.32 16 4 C11.30224334 4.71660695 7.64849145 5.23048303 3 4 C2.34 4 1.68 4 1 4 C0.34 4 -0.32 4 -1 4 C-0.67 2.68 -0.34 1.36 0 0 Z " fill="#94908A" transform="translate(250,322)"/>
<path d="M0 0 C0.66 0 1.32 0 2 0 C2.33 0.66 2.66 1.32 3 2 C3.99 2 4.98 2 6 2 C6 3.32 6 4.64 6 6 C0.06 6 -5.88 6 -12 6 C-12 4.68 -12 3.36 -12 2 C-8.04 2 -4.08 2 0 2 C0 1.34 0 0.68 0 0 Z " fill="#928E88" transform="translate(116,269)"/>
<path d="M0 0 C2.64 0 5.28 0 8 0 C7.01 0.495 7.01 0.495 6 1 C6 5.95 6 10.9 6 16 C4.68 16 3.36 16 2 16 C2 11.05 2 6.1 2 1 C1.34 0.67 0.68 0.34 0 0 Z " fill="#242422" transform="translate(65,134)"/>
<path d="M0 0 C2.475 0.495 2.475 0.495 5 1 C5 4.96 5 8.92 5 13 C3.35 13.33 1.7 13.66 0 14 C0 9.38 0 4.76 0 0 Z " fill="#FCF9EE" transform="translate(163,107)"/>
<path d="M0 0 C0.66 0 1.32 0 2 0 C2 0.66 2 1.32 2 2 C2.86625 1.79375 3.7325 1.5875 4.625 1.375 C8.36428602 0.95952378 10.54942141 1.60333724 14 3 C14 4.32 14 5.64 14 7 C9.38 7 4.76 7 0 7 C0 4.69 0 2.38 0 0 Z " fill="#B0ACA4" transform="translate(106,257)"/>
<path d="M0 0 C0.66 0 1.32 0 2 0 C2.99 0 3.98 0 5 0 C4.67 1.32 4.34 2.64 4 4 C-0.67201205 5.20568053 -5.21496292 5.09382426 -10 5 C-10 4.01 -10 3.02 -10 2 C-10.66 2 -11.32 2 -12 2 C-12.33 2.99 -12.66 3.98 -13 5 C-13 3.68 -13 2.36 -13 1 C-8.58441554 -0.10389611 -4.52375596 -0.07415993 0 0 Z " fill="#A29E97" transform="translate(179,259)"/>
<path d="M0 0 C2.64 0.33 5.28 0.66 8 1 C8 3.31 8 5.62 8 8 C3.545 8.495 3.545 8.495 -1 9 C-1.07427838 5.65747276 -1.06546953 3.1964086 0 0 Z " fill="#EFEAE0" transform="translate(130,133)"/>
<path d="M0 0 C0.66 0 1.32 0 2 0 C2 1.98 2 3.96 2 6 C-3.61 6 -9.22 6 -15 6 C-15 4.68 -15 3.36 -15 2 C-10.05 2 -5.1 2 0 2 C0 1.34 0 0.68 0 0 Z " fill="#96928B" transform="translate(343,229)"/>
<path d="M0 0 C5.61 0 11.22 0 17 0 C17 0.66 17 1.32 17 2 C14.03 1.505 14.03 1.505 11 1 C11 3.31 11 5.62 11 8 C9.02 8 7.04 8 5 8 C5 5.69 5 3.38 5 1 C3.35 1.33 1.7 1.66 0 2 C0 1.34 0 0.68 0 0 Z " fill="#BFE4D8" transform="translate(79,105)"/>
<path d="M0 0 C1.32 0 2.64 0 4 0 C4 0.66 4 1.32 4 2 C4.99 2 5.98 2 7 2 C7 1.34 7 0.68 7 0 C7.66 0 8.32 0 9 0 C9.33 0.66 9.66 1.32 10 2 C10.66 2.33 11.32 2.66 12 3 C11.67 4.32 11.34 5.64 11 7 C10.34 6.67 9.68 6.34 9 6 C7.45386986 6.08651631 5.91090613 6.24002636 4.375 6.4375 C3.55773437 6.53933594 2.74046875 6.64117187 1.8984375 6.74609375 C1.27195313 6.82988281 0.64546875 6.91367187 0 7 C0 4.69 0 2.38 0 0 Z " fill="#AAA69E" transform="translate(154,349)"/>
<path d="M0 0 C1.423125 0.495 1.423125 0.495 2.875 1 C5.77062452 2.10159191 5.77062452 2.10159191 8 2 C8 1.34 8 0.68 8 0 C10 1 10 1 13 3 C13 3.99 13 4.98 13 6 C10.03 6 7.06 6 4 6 C3.67 6.66 3.34 7.32 3 8 C1.68 7.34 0.36 6.68 -1 6 C-1.042721 4.33388095 -1.04063832 2.66617115 -1 1 C-0.67 0.67 -0.34 0.34 0 0 Z " fill="#97948D" transform="translate(96,309)"/>
<path d="M0 0 C0.33 0.66 0.66 1.32 1 2 C5.29 2 9.58 2 14 2 C14 3.65 14 5.3 14 7 C9.21521178 7.09764874 4.72314313 6.77112541 0 6 C0 4.02 0 2.04 0 0 Z " fill="#B1ADA4" transform="translate(238,386)"/>
<path d="M0 0 C2.375 -0.1875 2.375 -0.1875 5 0 C7 3 7 3 7 6 C5.54364629 6.22174933 4.08477044 6.42698698 2.625 6.625 C1.81289062 6.74101562 1.00078125 6.85703125 0.1640625 6.9765625 C-0.55007812 6.98429687 -1.26421875 6.99203125 -2 7 C-2.66 6.34 -3.32 5.68 -4 5 C-4.99 5.495 -4.99 5.495 -6 6 C-6.33 4.68 -6.66 3.36 -7 2 C-4.69 2 -2.38 2 0 2 C0 1.34 0 0.68 0 0 Z " fill="#B2AEA6" transform="translate(242,338)"/>
<path d="M0 0 C4.95 0 9.9 0 15 0 C15 1.32 15 2.64 15 4 C14.113125 3.95875 13.22625 3.9175 12.3125 3.875 C9.03215854 3.80031789 9.03215854 3.80031789 6.375 5.125 C4 6 4 6 1.6875 5.125 C1.130625 4.75375 0.57375 4.3825 0 4 C0 2.68 0 1.36 0 0 Z " fill="#8E8A83" transform="translate(142,242)"/>
<path d="M0 0 C0.5775 0.37125 1.155 0.7425 1.75 1.125 C4 2.29166667 4 2.29166667 6.25 1.125 C7.11625 0.568125 7.11625 0.568125 8 0 C8 0.66 8 1.32 8 2 C9.98 2 11.96 2 14 2 C14 3.32 14 4.64 14 6 C8.72 6 3.44 6 -2 6 C-1 2 -1 2 0 0 Z " fill="#817E78" transform="translate(94,229)"/>
<path d="M0 0 C1.32 0.33 2.64 0.66 4 1 C3.67 5.95 3.34 10.9 3 16 C3.99 16 4.98 16 6 16 C6 13.36 6 10.72 6 8 C7.32 8.33 8.64 8.66 10 9 C10.33 11.64 10.66 14.28 11 17 C7.7 17 4.4 17 1 17 C1.33 11.72 1.66 6.44 2 1 C1.34 0.67 0.68 0.34 0 0 Z " fill="#74716C" transform="translate(48,134)"/>
<path d="M0 0 C0.99 0 1.98 0 3 0 C3.91657981 5.38490641 4.11138159 10.54230189 4 16 C2.02 16 0.04 16 -2 16 C-1.34 15.67 -0.68 15.34 0 15 C0 10.05 0 5.1 0 0 Z " fill="#19AC9C" transform="translate(81,106)"/>
<path d="M0 0 C0.74765625 0.0721875 1.4953125 0.144375 2.265625 0.21875 C3.25046875 0.3115625 4.2353125 0.404375 5.25 0.5 C6.22453125 0.5928125 7.1990625 0.685625 8.203125 0.78125 C10.46302153 0.95800168 12.73320193 1 15 1 C16.66666667 1 18.33333333 1 20 1 C18 4 18 4 16 5 C13.66379908 4.91124727 11.32987628 4.75586063 9 4.5625 C4.50517996 4.15971888 4.50517996 4.15971888 0 4 C0 2.68 0 1.36 0 0 Z " fill="#AAA69E" transform="translate(70,52)"/>
<path d="M0 0 C0.7425 0.185625 1.485 0.37125 2.25 0.5625 C5.04042671 1.00643152 6.34410484 0.74697051 9 0 C10.66623639 -0.03786901 12.33397597 -0.04627845 14 0 C14 1.65 14 3.3 14 5 C9.38 5 4.76 5 0 5 C0 3.35 0 1.7 0 0 Z " fill="#A6A29B" transform="translate(111,410)"/>
<path d="M0 0 C0 0.66 0 1.32 0 2 C0.66 2 1.32 2 2 2 C2 1.34 2 0.68 2 0 C2.66 0 3.32 0 4 0 C4 0.66 4 1.32 4 2 C4.66 2 5.32 2 6 2 C5.67 3.32 5.34 4.64 5 6 C1.7 6 -1.6 6 -5 6 C-5 5.01 -5 4.02 -5 3 C-5.66 3 -6.32 3 -7 3 C-7.33 3.99 -7.66 4.98 -8 6 C-8 4.68 -8 3.36 -8 2 C-4.91190305 0.23537317 -3.76687864 0 0 0 Z " fill="#98948E" transform="translate(309,229)"/>
<path d="M0 0 C1.65 0 3.3 0 5 0 C5 2.31 5 4.62 5 7 C6.98 7 8.96 7 11 7 C11 7.66 11 8.32 11 9 C5.39 9 -0.22 9 -6 9 C-6 8.67 -6 8.34 -6 8 C-4.02 8 -2.04 8 0 8 C0 5.36 0 2.72 0 0 Z " fill="#E4F0E4" transform="translate(85,114)"/>
<path d="M0 0 C0.66 0 1.32 0 2 0 C2 0.99 2 1.98 2 3 C2.99 3.33 3.98 3.66 5 4 C5 4.99 5 5.98 5 7 C3.741875 7.020625 2.48375 7.04125 1.1875 7.0625 C0.47980469 7.07410156 -0.22789063 7.08570313 -0.95703125 7.09765625 C-3 7 -3 7 -6 6 C-6 4.68 -6 3.36 -6 2 C-6.66 2 -7.32 2 -8 2 C-8.33 3.32 -8.66 4.64 -9 6 C-9 4.35 -9 2.7 -9 1 C-6.03 1.33 -3.06 1.66 0 2 C0 1.34 0 0.68 0 0 Z " fill="#B3AFA7" transform="translate(104,408)"/>
<path d="M0 0 C1.32 0 2.64 0 4 0 C4 1.32 4 2.64 4 4 C4.99 4 5.98 4 7 4 C7 4.66 7 5.32 7 6 C6.0925 5.649375 5.185 5.29875 4.25 4.9375 C0.84974081 3.956656 0.20223713 4.05816555 -3 5 C-5.67303078 5.09804553 -8.32391191 5.04460147 -11 5 C-11 3.68 -11 2.36 -11 1 C-10.28972656 1.01160156 -9.57945313 1.02320313 -8.84765625 1.03515625 C-7.92855469 1.04417969 -7.00945312 1.05320313 -6.0625 1.0625 C-4.68771484 1.07990234 -4.68771484 1.07990234 -3.28515625 1.09765625 C-1.03406673 1.25949049 -1.03406673 1.25949049 0 0 Z " fill="#88857E" transform="translate(132,230)"/>
<path d="M0 0 C0.66 0 1.32 0 2 0 C2 0.66 2 1.32 2 2 C3.32 2.33 4.64 2.66 6 3 C5.34 4.32 4.68 5.64 4 7 C2.35369672 6.85957123 0.70795821 6.71250671 -0.9375 6.5625 C-2.31228516 6.44068359 -2.31228516 6.44068359 -3.71484375 6.31640625 C-6 6 -6 6 -7 5 C-7.99 5.495 -7.99 5.495 -9 6 C-9 4.68 -9 3.36 -9 2 C-6.36 2 -3.72 2 -1 2 C-0.67 1.34 -0.34 0.68 0 0 Z " fill="#827F79" transform="translate(109,68)"/>
<path d="M0 0 C3.3 0.33 6.6 0.66 10 1 C10 2.65 10 4.3 10 6 C6.7 6 3.4 6 0 6 C0 4.02 0 2.04 0 0 Z " fill="#B9B5AD" transform="translate(47,80)"/>
<path d="M0 0 C1.32 0 2.64 0 4 0 C4.33 0.66 4.66 1.32 5 2 C8.89415629 3.52001649 8.89415629 3.52001649 13 4 C13 4.99 13 5.98 13 7 C8.71 7 4.42 7 0 7 C0 4.69 0 2.38 0 0 Z " fill="#ADA9A0" transform="translate(186,408)"/>
<path d="M0 0 C1.62490954 -0.02698189 3.24994633 -0.04638757 4.875 -0.0625 C5.77992188 -0.07410156 6.68484375 -0.08570313 7.6171875 -0.09765625 C10 0 10 0 12 1 C12 2.32 12 3.64 12 5 C8 5 4 5 0 5 C0 3.35 0 1.7 0 0 Z " fill="#A9A59D" transform="translate(178,322)"/>
<path d="M0 0 C4.29 0 8.58 0 13 0 C13 1.65 13 3.3 13 5 C8.924588 5.740984 5.1434382 6 1 6 C0.67 4.02 0.34 2.04 0 0 Z " fill="#A5A199" transform="translate(269,322)"/>
<path d="M0 0 C0 1.65 0 3.3 0 5 C-4.62 5.33 -9.24 5.66 -14 6 C-14 4.35 -14 2.7 -14 1 C-12.948125 1.20625 -11.89625 1.4125 -10.8125 1.625 C-6.4572783 2.05338246 -4.01753009 0 0 0 Z " fill="#939089" transform="translate(125,310)"/>
<path d="M0 0 C0.66 0 1.32 0 2 0 C2 0.66 2 1.32 2 2 C2.66 2 3.32 2 4 2 C4 3.32 4 4.64 4 6 C0 6 -4 6 -8 6 C-8.33 5.01 -8.66 4.02 -9 3 C-9.66 3 -10.32 3 -11 3 C-11.33 3.99 -11.66 4.98 -12 6 C-12 4.35 -12 2.7 -12 1 C-8.04 1.33 -4.08 1.66 0 2 C0 1.34 0 0.68 0 0 Z " fill="#56544F" transform="translate(67,211)"/>
<path d="M0 0 C2.28476878 0.5077264 4.28415942 1.12386436 6.4375 2.0625 C9.18816195 3.06883974 11.09642036 3.3139005 14 3 C14.66 2.34 15.32 1.68 16 1 C16.66 2.65 17.32 4.3 18 6 C12.06 6 6.12 6 0 6 C0 4.02 0 2.04 0 0 Z " fill="#98948D" transform="translate(48,39)"/>
<path d="M0 0 C2.31 0.33 4.62 0.66 7 1 C6.01 1.33 5.02 1.66 4 2 C4.66 3.98 5.32 5.96 6 8 C5.01 8 4.02 8 3 8 C3 7.34 3 6.68 3 6 C0.03 6 -2.94 6 -6 6 C-6 4.68 -6 3.36 -6 2 C-4.35 2 -2.7 2 -1 2 C-0.67 1.34 -0.34 0.68 0 0 Z " fill="#CFCBC1" transform="translate(191,229)"/>
<path d="M0 0 C0.66 0.33 1.32 0.66 2 1 C1.67 1.33 1.34 1.66 1 2 C0.92728259 4.35313555 0.91629132 6.70833668 0.9375 9.0625 C0.94652344 10.35285156 0.95554688 11.64320313 0.96484375 12.97265625 C0.97644531 13.97167969 0.98804688 14.97070312 1 16 C-2.875 14.25 -2.875 14.25 -4 12 C-4.58608059 4.73260073 -4.58608059 4.73260073 -2 1.5 C-1.34 1.005 -0.68 0.51 0 0 Z " fill="#171716" transform="translate(129,134)"/>
<path d="M0 0 C0.99 0 1.98 0 3 0 C3.33 5.28 3.66 10.56 4 16 C2.02 16 0.04 16 -2 16 C-1.34 15.67 -0.68 15.34 0 15 C0 10.05 0 5.1 0 0 Z " fill="#06A696" transform="translate(124,106)"/>
<path d="M0 0 C0.66 0.66 1.32 1.32 2 2 C4.58354218 2.16687448 4.58354218 2.16687448 7 2 C7.33 3.65 7.66 5.3 8 7 C6.37509046 7.02698189 4.75005367 7.04638757 3.125 7.0625 C1.76761719 7.07990234 1.76761719 7.07990234 0.3828125 7.09765625 C-2 7 -2 7 -4 6 C-4 4.68 -4 3.36 -4 2 C-3.01 2 -2.02 2 -1 2 C-0.67 1.34 -0.34 0.68 0 0 Z " fill="#A9A59D" transform="translate(160,397)"/>
<path d="M0 0 C0.66 0 1.32 0 2 0 C2 1.65 2 3.3 2 5 C1.34 5 0.68 5 0 5 C-0.33 4.67 -0.66 4.34 -1 4 C-3.83876432 3.85180039 -3.83876432 3.85180039 -5.8125 4.5625 C-8.72109132 5.14421826 -11.11883881 4.58932842 -14 4 C-14 3.01 -14 2.02 -14 1 C-13.07316406 1.01160156 -12.14632812 1.02320313 -11.19140625 1.03515625 C-9.39509766 1.04869141 -9.39509766 1.04869141 -7.5625 1.0625 C-5.77005859 1.07990234 -5.77005859 1.07990234 -3.94140625 1.09765625 C-1.11126659 1.33901792 -1.11126659 1.33901792 0 0 Z " fill="#8E8B84" transform="translate(108,241)"/>
<path d="M0 0 C0.99 0 1.98 0 3 0 C3 5.28 3 10.56 3 16 C1.35 16 -0.3 16 -2 16 C-1.34 15.67 -0.68 15.34 0 15 C0 10.05 0 5.1 0 0 Z " fill="#04A696" transform="translate(159,106)"/>
<path d="M0 0 C1.65 0.33 3.3 0.66 5 1 C5 0.67 5 0.34 5 0 C7.97 0 10.94 0 14 0 C13.67 1.32 13.34 2.64 13 4 C8.05 4 3.1 4 -2 4 C-1.34 3.67 -0.68 3.34 0 3 C0 2.01 0 1.02 0 0 Z " fill="#85827C" transform="translate(131,388)"/>
<path d="M0 0 C1.2065625 0.0309375 1.2065625 0.0309375 2.4375 0.0625 C2.7675 1.7125 3.0975 3.3625 3.4375 5.0625 C-1.1825 5.0625 -5.8025 5.0625 -10.5625 5.0625 C-10.5625 3.7425 -10.5625 2.4225 -10.5625 1.0625 C-9.428125 1.083125 -8.29375 1.10375 -7.125 1.125 C-3.34891585 1.05875291 -3.4052247 0.08305426 0 0 Z " fill="#565450" transform="translate(89.5625,371.9375)"/>
<path d="M0 0 C1.98 0.66 3.96 1.32 6 2 C5.67 3.32 5.34 4.64 5 6 C1.37 6 -2.26 6 -6 6 C-6 4.68 -6 3.36 -6 2 C-4.35 2 -2.7 2 -1 2 C-0.67 1.34 -0.34 0.68 0 0 Z " fill="#918E87" transform="translate(153,298)"/>
<path d="M0 0 C0.61875 0.165 1.2375 0.33 1.875 0.5 C6.25470729 1.20075317 10.57428989 1.07734251 15 1 C14.34 2.32 13.68 3.64 13 5 C8.66666667 5 4.33333333 5 0 5 C0 3.35 0 1.7 0 0 Z " fill="#ADA9A0" transform="translate(123,40)"/>
<path d="M0 0 C0.66 0 1.32 0 2 0 C2 1.98 2 3.96 2 6 C-1.63 6 -5.26 6 -9 6 C-9 4.35 -9 2.7 -9 1 C-6.03 1.33 -3.06 1.66 0 2 C0 1.34 0 0.68 0 0 Z " fill="#9C9891" transform="translate(56,338)"/>
<path d="M0 0 C2.64 0 5.28 0 8 0 C8 1.98 8 3.96 8 6 C5.69 6 3.38 6 1 6 C1 5.01 1 4.02 1 3 C0.34 3 -0.32 3 -1 3 C-0.67 2.01 -0.34 1.02 0 0 Z " fill="#BBB7AE" transform="translate(109,298)"/>
<path d="M0 0 C0.66 0 1.32 0 2 0 C2 5.28 2 10.56 2 16 C1.01 16 0.02 16 -1 16 C-1.02685095 13.52076199 -1.04676547 11.0418116 -1.0625 8.5625 C-1.07506836 7.50192383 -1.07506836 7.50192383 -1.08789062 6.41992188 C-1.09653588 4.61306441 -1.05220011 2.80612397 -1 1 C-0.67 0.67 -0.34 0.34 0 0 Z " fill="#070707" transform="translate(52,134)"/>
<path d="M0 0 C2 4 2 4 2 6 C-1.18884203 6.08857895 -3.95101866 5.98002972 -7 5 C-7.33 4.67 -7.66 4.34 -8 4 C-8.99 4 -9.98 4 -11 4 C-10.67 3.01 -10.34 2.02 -10 1 C-6.7 0.67 -3.4 0.34 0 0 Z " fill="#9A968F" transform="translate(198,241)"/>
<path d="M0 0 C2.97 0 5.94 0 9 0 C9.33 1.65 9.66 3.3 10 5 C7.03 5 4.06 5 1 5 C0.67 3.35 0.34 1.7 0 0 Z " fill="#A39F97" transform="translate(54,351)"/>
<path d="M0 0 C1.32 0.33 2.64 0.66 4 1 C4 2.98 4 4.96 4 7 C1.36 7.33 -1.28 7.66 -4 8 C-4 6.02 -4 4.04 -4 2 C-3.01 2 -2.02 2 -1 2 C-0.67 1.34 -0.34 0.68 0 0 Z " fill="#A9A59E" transform="translate(116,320)"/>
<path d="M0 0 C3.63 0 7.26 0 11 0 C11.33 1.32 11.66 2.64 12 4 C7.7957476 4.88510577 5.07289477 5.35763159 1 4 C0.67 2.68 0.34 1.36 0 0 Z " fill="#B0ACA4" transform="translate(83,288)"/>
<path d="M0 0 C0.66 0 1.32 0 2 0 C2 0.66 2 1.32 2 2 C3.32 2 4.64 2 6 2 C6.66 2.33 7.32 2.66 8 3 C8 3.99 8 4.98 8 6 C7.07767578 5.98259766 7.07767578 5.98259766 6.13671875 5.96484375 C4.92435547 5.95130859 4.92435547 5.95130859 3.6875 5.9375 C2.88699219 5.92589844 2.08648437 5.91429687 1.26171875 5.90234375 C-1.16861334 5.90342145 -1.16861334 5.90342145 -4 7 C-4 5.35 -4 3.7 -4 2 C-3.01 2 -2.02 2 -1 2 C-0.67 1.34 -0.34 0.68 0 0 Z " fill="#98958E" transform="translate(199,229)"/>
<path d="M0 0 C0.66 0 1.32 0 2 0 C2.33 4.62 2.66 9.24 3 14 C0 13 0 13 -1.1875 11.3125 C-2.21683212 8.38286241 -2.26266639 6.0863301 -2 3 C-1.34 2.01 -0.68 1.02 0 0 Z " fill="#151413" transform="translate(110,136)"/>
<path d="M0 0 C1.65 0.99 3.3 1.98 5 3 C4.67 4.32 4.34 5.64 4 7 C3.278125 6.649375 2.55625 6.29875 1.8125 5.9375 C-1.3122705 4.89590983 -2.88161996 5.10903428 -6 6 C-6.33 4.68 -6.66 3.36 -7 2 C-4.69 2 -2.38 2 0 2 C0 1.34 0 0.68 0 0 Z " fill="#9F9B94" transform="translate(170,408)"/>
<path d="M0 0 C3.3 0 6.6 0 10 0 C10 1.32 10 2.64 10 4 C5.545 4.495 5.545 4.495 1 5 C0.67 3.35 0.34 1.7 0 0 Z " fill="#A7A49C" transform="translate(139,311)"/>
<path d="M0 0 C2.97 0 5.94 0 9 0 C9.33 1.32 9.66 2.64 10 4 C9 5 9 5 6.0625 5.0625 C4.5465625 5.0315625 4.5465625 5.0315625 3 5 C2.34 5 1.68 5 1 5 C0.34 5 -0.32 5 -1 5 C-0.67 3.35 -0.34 1.7 0 0 Z " fill="#B4B0A8" transform="translate(98,288)"/>
<path d="M0 0 C0 1.98 0 3.96 0 6 C-1.175625 5.9690625 -1.175625 5.9690625 -2.375 5.9375 C-4.98114961 5.81315937 -4.98114961 5.81315937 -7 7 C-7.99 6.34 -8.98 5.68 -10 5 C-9.67 3.68 -9.34 2.36 -9 1 C-8.05125 1.020625 -7.1025 1.04125 -6.125 1.0625 C-3.66231667 1.01324633 -2.19420831 0 0 0 Z " fill="#A6A29A" transform="translate(160,258)"/>
<path d="M0 0 C0 1.65 0 3.3 0 5 C-0.66 4.67 -1.32 4.34 -2 4 C-2 3.34 -2 2.68 -2 2 C-2.66 2 -3.32 2 -4 2 C-3.67 2.99 -3.34 3.98 -3 5 C-3.66 5 -4.32 5 -5 5 C-5.33 4.67 -5.66 4.34 -6 4 C-7.33599921 4.32248257 -8.66893378 4.65772583 -10 5 C-11.32 5 -12.64 5 -14 5 C-14 3.68 -14 2.36 -14 1 C-13.07767578 1.01740234 -13.07767578 1.01740234 -12.13671875 1.03515625 C-10.92435547 1.04869141 -10.92435547 1.04869141 -9.6875 1.0625 C-8.88699219 1.07410156 -8.08648437 1.08570313 -7.26171875 1.09765625 C-4.67983261 0.98617585 -2.57562005 0 0 0 Z " fill="#8D8983" transform="translate(165,230)"/>
<path d="M0 0 C1.98 0 3.96 0 6 0 C6 2.64 6 5.28 6 8 C5.67 7.34 5.34 6.68 5 6 C4.443125 6.515625 3.88625 7.03125 3.3125 7.5625 C1 9 1 9 -1.75 8.6875 C-2.4925 8.460625 -3.235 8.23375 -4 8 C-4.33 7.01 -4.66 6.02 -5 5 C-2.03 5.495 -2.03 5.495 1 6 C1.33 4.35 1.66 2.7 2 1 C1.34 0.67 0.68 0.34 0 0 Z " fill="#37B6A7" transform="translate(112,114)"/>
<path d="M0 0 C0.33 0 0.66 0 1 0 C1 1.98 1 3.96 1 6 C0.34 6 -0.32 6 -1 6 C-1.33 6.33 -1.66 6.66 -2 7 C-3.51928038 7.07179964 -5.04167482 7.08392007 -6.5625 7.0625 C-7.38878906 7.05347656 -8.21507813 7.04445313 -9.06640625 7.03515625 C-9.70449219 7.02355469 -10.34257813 7.01195312 -11 7 C-10.67 5.68 -10.34 4.36 -10 3 C-6.53510463 2.27054834 -3.53576478 2 0 2 C0 1.34 0 0.68 0 0 Z " fill="#9B9790" transform="translate(110,320)"/>
<path d="M0 0 C0 1.65 0 3.3 0 5 C-3.3 5 -6.6 5 -10 5 C-10.33 3.68 -10.66 2.36 -11 1 C-7.26562152 0.12132271 -3.83225427 -0.08912219 0 0 Z " fill="#ADA9A1" transform="translate(181,299)"/>
<path d="M0 0 C0.33 0.66 0.66 1.32 1 2 C4.69418201 3.231394 7.2056261 2.64432764 11 2 C11 3.65 11 5.3 11 7 C10.06027344 6.98259766 10.06027344 6.98259766 9.1015625 6.96484375 C7.87566406 6.95130859 7.87566406 6.95130859 6.625 6.9375 C5.40683594 6.92009766 5.40683594 6.92009766 4.1640625 6.90234375 C1.95062858 6.85533666 1.95062858 6.85533666 0 8 C0 5.36 0 2.72 0 0 Z " fill="#95918A" transform="translate(156,286)"/>
<path d="M0 0 C4.29 0 8.58 0 13 0 C12.67 1.32 12.34 2.64 12 4 C8.37 4 4.74 4 1 4 C0.67 2.68 0.34 1.36 0 0 Z " fill="#928F89" transform="translate(90,271)"/>
<path d="M0 0 C4.66666667 0 9.33333333 0 14 0 C14 1.65 14 3.3 14 5 C11 4 11 4 10 3 C9.01 3.33 8.02 3.66 7 4 C4.66700175 4.03954234 2.33291811 4.04401732 0 4 C0 2.68 0 1.36 0 0 Z " fill="#7C7973" transform="translate(132,271)"/>
<path d="M0 0 C0.66 0 1.32 0 2 0 C2 2.31 2 4.62 2 7 C-0.31 7 -2.62 7 -5 7 C-5.33 5.35 -5.66 3.7 -6 2 C-4.02 2 -2.04 2 0 2 C0 1.34 0 0.68 0 0 Z " fill="#A7A49C" transform="translate(143,397)"/>
<path d="M0 0 C1.32 0 2.64 0 4 0 C4 2.31 4 4.62 4 7 C1.69 7 -0.62 7 -3 7 C-3.33 5.35 -3.66 3.7 -4 2 C-2.68 2 -1.36 2 0 2 C0 1.34 0 0.68 0 0 Z " fill="#A4A098" transform="translate(240,257)"/>
<path d="M0 0 C0.66 0 1.32 0 2 0 C2.66 0.66 3.32 1.32 4 2 C7.08347826 2.16681109 7.08347826 2.16681109 10 2 C9.67 3.32 9.34 4.64 9 6 C7.54176788 6.0270043 6.08339325 6.04639787 4.625 6.0625 C3.81289062 6.07410156 3.00078125 6.08570313 2.1640625 6.09765625 C0 6 0 6 -2 5 C-2 4.01 -2 3.02 -2 2 C-1.34 2 -0.68 2 0 2 C0 1.34 0 0.68 0 0 Z " fill="#8E8B84" transform="translate(64,240)"/>
<path d="M0 0 C3 1 3 1 4 3 C4.42535668 7.23720693 4.68440794 10.83080311 2.5 14.5625 C2.005 15.036875 1.51 15.51125 1 16 C0.34 15.67 -0.32 15.34 -1 15 C-0.67 14.67 -0.34 14.34 0 14 C0.07271741 11.64686445 0.08370868 9.29166332 0.0625 6.9375 C0.05347656 5.64714844 0.04445312 4.35679688 0.03515625 3.02734375 C0.02355469 2.02832031 0.01195312 1.02929688 0 0 Z " fill="#10A999" transform="translate(55,106)"/>
<path d="M0 0 C0 0.66 0 1.32 0 2 C0.99 2 1.98 2 3 2 C3 2.66 3 3.32 3 4 C3.66 4 4.32 4 5 4 C5 4.66 5 5.32 5 6 C1.37 6 -2.26 6 -6 6 C-5.67 4.35 -5.34 2.7 -5 1 C-2 0 -2 0 0 0 Z " fill="#B3AFA6" transform="translate(84,68)"/>
<path d="M0 0 C0.33 0.66 0.66 1.32 1 2 C2.98 1.67 4.96 1.34 7 1 C8 4 8 4 7 7 C4.36 7 1.72 7 -1 7 C-0.67 4.69 -0.34 2.38 0 0 Z " fill="#BBB6AE" transform="translate(114,349)"/>
<path d="M0 0 C0.66 0 1.32 0 2 0 C2 0.66 2 1.32 2 2 C2.99 2 3.98 2 5 2 C5.33 1.34 5.66 0.68 6 0 C6.66 0 7.32 0 8 0 C8 1.98 8 3.96 8 6 C5.36 6.33 2.72 6.66 0 7 C0 4.69 0 2.38 0 0 Z " fill="#827E78" transform="translate(120,211)"/>
<path d="M0 0 C0.66 0 1.32 0 2 0 C2 0.66 2 1.32 2 2 C3.65 2 5.3 2 7 2 C7.33 3.65 7.66 5.3 8 7 C5.36 6.67 2.72 6.34 0 6 C0 4.02 0 2.04 0 0 Z " fill="#A9A49C" transform="translate(127,397)"/>
<path d="M0 0 C1.98 0 3.96 0 6 0 C6 2.31 6 4.62 6 7 C4.02 7 2.04 7 0 7 C0 4.69 0 2.38 0 0 Z " fill="#ACA8A0" transform="translate(47,349)"/>
<path d="M0 0 C2 1.25 2 1.25 4 3 C4 4.32 4 5.64 4 7 C1.69 7 -0.62 7 -3 7 C-3.33 6.01 -3.66 5.02 -4 4 C-4.66 4.66 -5.32 5.32 -6 6 C-6 4.68 -6 3.36 -6 2 C-4.02 2 -2.04 2 0 2 C0 1.34 0 0.68 0 0 Z " fill="#A09C95" transform="translate(143,320)"/>
<path d="M0 0 C4.29 0 8.58 0 13 0 C13 1.32 13 2.64 13 4 C8.83861737 4.08159574 5.0527516 3.98248524 1 3 C0.67 2.01 0.34 1.02 0 0 Z " fill="#A4A098" transform="translate(56,260)"/>
<path d="M0 0 C3.96 0.33 7.92 0.66 12 1 C12 2.32 12 3.64 12 5 C8.66666667 5 5.33333333 5 2 5 C2 3.68 2 2.36 2 1 C1.34 0.67 0.68 0.34 0 0 Z " fill="#8F8B85" transform="translate(47,69)"/>
<path d="M0 0 C1.32 0.33 2.64 0.66 4 1 C4.125 6.75 4.125 6.75 3 9 C0.03 9 -2.94 9 -6 9 C-5.67 8.34 -5.34 7.68 -5 7 C-3.35 7 -1.7 7 0 7 C0 4.69 0 2.38 0 0 Z " fill="#D3EBDE" transform="translate(127,114)"/>
<path d="M0 0 C3.96 0.33 7.92 0.66 12 1 C11.67 2.32 11.34 3.64 11 5 C9.68 4.34 8.36 3.68 7 3 C6.67 3.66 6.34 4.32 6 5 C3.03 4.505 3.03 4.505 0 4 C0 2.68 0 1.36 0 0 Z " fill="#949089" transform="translate(99,80)"/>
<path d="M0 0 C3.63 0 7.26 0 11 0 C10.67 1.32 10.34 2.64 10 4 C8.35 4.33 6.7 4.66 5 5 C4.67 4.01 4.34 3.02 4 2 C3.34 2 2.68 2 2 2 C1.67 2.66 1.34 3.32 1 4 C0.67 2.68 0.34 1.36 0 0 Z " fill="#98958E" transform="translate(170,399)"/>
<path d="M0 0 C3.63 0 7.26 0 11 0 C11 1.32 11 2.64 11 4 C9.00045254 4.04254356 6.99958364 4.04080783 5 4 C4.67 3.67 4.34 3.34 4 3 C3.01 3 2.02 3 1 3 C0.67 2.01 0.34 1.02 0 0 Z " fill="#A6A39C" transform="translate(83,388)"/>
<path d="M0 0 C0.33 0 0.66 0 1 0 C1 2.31 1 4.62 1 7 C-2.3 6.67 -5.6 6.34 -9 6 C-9 4.68 -9 3.36 -9 2 C-6.36 2 -3.72 2 -1 2 C-0.67 1.34 -0.34 0.68 0 0 Z " fill="#928F88" transform="translate(132,349)"/>
<path d="M0 0 C3.96 0 7.92 0 12 0 C11.01 0.66 10.02 1.32 9 2 C8.67 2.99 8.34 3.98 8 5 C6.35 5 4.7 5 3 5 C2.67 4.01 2.34 3.02 2 2 C1.34 2 0.68 2 0 2 C-0.33 2.66 -0.66 3.32 -1 4 C-0.67 2.68 -0.34 1.36 0 0 Z " fill="#A4A099" transform="translate(256,259)"/>
<path d="M0 0 C0.625 1.875 0.625 1.875 1 4 C0.34 4.66 -0.32 5.32 -1 6 C-1 4.68 -1 3.36 -1 2 C-1.66 2 -2.32 2 -3 2 C-2.67 2.99 -2.34 3.98 -2 5 C-3.32 5.33 -4.64 5.66 -6 6 C-6 5.01 -6 4.02 -6 3 C-7.32 3.33 -8.64 3.66 -10 4 C-9.67 3.01 -9.34 2.02 -9 1 C-5.8035914 -0.06546953 -3.34252724 -0.07427838 0 0 Z " fill="#686661" transform="translate(139,213)"/>
<path d="M0 0 C1.32 0 2.64 0 4 0 C4.125 5.75 4.125 5.75 3 8 C1.68 7.67 0.36 7.34 -1 7 C-1.625 5.1875 -1.625 5.1875 -2 3 C-1.34 2.01 -0.68 1.02 0 0 Z " fill="#98D7CA" transform="translate(51,115)"/>
<path d="M0 0 C4.62 0 9.24 0 14 0 C14 2.31 14 4.62 14 7 C12 4 12 4 12 2 C8.7 2 5.4 2 2 2 C1.67 3.65 1.34 5.3 1 7 C0.67 7 0.34 7 0 7 C0 4.69 0 2.38 0 0 Z " fill="#45BBAC" transform="translate(62,105)"/>
<path d="M0 0 C0 1.65 0 3.3 0 5 C-0.66 5 -1.32 5 -2 5 C-2 4.34 -2 3.68 -2 3 C-3.98 3.33 -5.96 3.66 -8 4 C-8 2.35 -8 0.7 -8 -1 C-4.37673261 -2.2077558 -3.35853631 -1.54311128 0 0 Z " fill="#95928B" transform="translate(97,82)"/>
<path d="M0 0 C0 1.98 0 3.96 0 6 C-1.98 6 -3.96 6 -6 6 C-6 5.01 -6 4.02 -6 3 C-6.66 3 -7.32 3 -8 3 C-8 2.34 -8 1.68 -8 1 C-5.23735711 0.40267181 -2.83967231 0 0 0 Z " fill="#B5B1A8" transform="translate(212,338)"/>
<path d="M0 0 C2.97 0.495 2.97 0.495 6 1 C6.625 2.8125 6.625 2.8125 7 5 C6.01 6.485 6.01 6.485 5 8 C4.01 8 3.02 8 2 8 C0.74335022 5.09399739 0 3.20395416 0 0 Z " fill="#B0ACA4" transform="translate(63,269)"/>
<path d="M0 0 C0 1.98 0 3.96 0 6 C-2.31 6 -4.62 6 -7 6 C-7.33 4.68 -7.66 3.36 -8 2 C-2.25 0 -2.25 0 0 0 Z " fill="#9F9C94" transform="translate(97,258)"/>
<path d="M0 0 C0.33 0.66 0.66 1.32 1 2 C1.33 1.34 1.66 0.68 2 0 C4.97 0 7.94 0 11 0 C10.67 1.32 10.34 2.64 10 4 C6.04 4 2.08 4 -2 4 C-1.34 3.67 -0.68 3.34 0 3 C0 2.01 0 1.02 0 0 Z " fill="#87847E" transform="translate(174,242)"/>
<path d="M0 0 C0.66 0 1.32 0 2 0 C2 1.98 2 3.96 2 6 C-5 6 -5 6 -8 5 C-7.34 3.68 -6.68 2.36 -6 1 C-5.38125 1.20625 -4.7625 1.4125 -4.125 1.625 C-3.073125 1.810625 -3.073125 1.810625 -2 2 C-1.34 1.34 -0.68 0.68 0 0 Z " fill="#9B9890" transform="translate(325,229)"/>
<path d="M0 0 C0.66 0 1.32 0 2 0 C2.33 1.32 2.66 2.64 3 4 C3.33 3.34 3.66 2.68 4 2 C5.98 2 7.96 2 10 2 C10 3.32 10 4.64 10 6 C6.7 6 3.4 6 0 6 C0 4.02 0 2.04 0 0 Z " fill="#95918A" transform="translate(47,229)"/>
<path d="M0 0 C0.33 0 0.66 0 1 0 C1.19406478 1.64507218 1.38007935 3.29109594 1.5625 4.9375 C1.66691406 5.85402344 1.77132812 6.77054687 1.87890625 7.71484375 C1.91886719 8.46894531 1.95882812 9.22304687 2 10 C1 11 1 11 -1.5625 11.0625 C-2.366875 11.041875 -3.17125 11.02125 -4 11 C-4 8.69 -4 6.38 -4 4 C-3.01 4.33 -2.02 4.66 -1 5 C-0.67 3.35 -0.34 1.7 0 0 Z " fill="#EAF2E6" transform="translate(185,110)"/>
<path d="M0 0 C2.97 0 5.94 0 9 0 C9 2.31 9 4.62 9 7 C7.68 7.33 6.36 7.66 5 8 C5 5.69 5 3.38 5 1 C3.35 1.33 1.7 1.66 0 2 C0 1.34 0 0.68 0 0 Z " fill="#8AD2C5" transform="translate(122,105)"/>
<path d="M0 0 C0.66 0 1.32 0 2 0 C2 2.31 2 4.62 2 7 C1.34 7 0.68 7 0 7 C0 6.01 0 5.02 0 4 C-0.33 4.99 -0.66 5.98 -1 7 C-2.65 7 -4.3 7 -6 7 C-6 5.35 -6 3.7 -6 2 C-4.02 2 -2.04 2 0 2 C0 1.34 0 0.68 0 0 Z " fill="#B1ADA5" transform="translate(156,408)"/>
<path d="M0 0 C3.3 0 6.6 0 10 0 C9.67 1.32 9.34 2.64 9 4 C6.36 4.33 3.72 4.66 1 5 C0.67 3.35 0.34 1.7 0 0 Z " fill="#99958E" transform="translate(121,340)"/>
<path d="M0 0 C0.66 0 1.32 0 2 0 C2 1.98 2 3.96 2 6 C-1.05263664 6.98120464 -2.94736336 6.98120464 -6 6 C-6.33 4.68 -6.66 3.36 -7 2 C-4.69 2 -2.38 2 0 2 C0 1.34 0 0.68 0 0 Z " fill="#8B8881" transform="translate(341,338)"/>
<path d="M0 0 C0.66 0 1.32 0 2 0 C2 1.98 2 3.96 2 6 C-1.05263664 6.98120464 -2.94736336 6.98120464 -6 6 C-6.33 4.68 -6.66 3.36 -7 2 C-4.69 2 -2.38 2 0 2 C0 1.34 0 0.68 0 0 Z " fill="#8C8882" transform="translate(93,338)"/>
<path d="M0 0 C3.3 0 6.6 0 10 0 C10 1.32 10 2.64 10 4 C8.00045254 4.04254356 5.99958364 4.04080783 4 4 C3.67 3.67 3.34 3.34 3 3 C2.01 3 1.02 3 0 3 C0 2.01 0 1.02 0 0 Z " fill="#AAA69E" transform="translate(71,260)"/>
<path d="M0 0 C3.3 0 6.6 0 10 0 C10 1.32 10 2.64 10 4 C6.37 4 2.74 4 -1 4 C-0.67 2.68 -0.34 1.36 0 0 Z " fill="#76736D" transform="translate(84,213)"/>
<path d="M0 0 C0.33 0 0.66 0 1 0 C1 2.64 1 5.28 1 8 C-3.62 8 -8.24 8 -13 8 C-13 7.34 -13 6.68 -13 6 C-7.555 5.505 -7.555 5.505 -2 5 C-1.34 3.35 -0.68 1.7 0 0 Z " fill="#676460" transform="translate(105,143)"/>
<path d="M0 0 C0.33 0 0.66 0 1 0 C1 1.98 1 3.96 1 6 C-1.31 6 -3.62 6 -6 6 C-6 5.01 -6 4.02 -6 3 C-6.66 3 -7.32 3 -8 3 C-8.33 3.66 -8.66 4.32 -9 5 C-9 3.68 -9 2.36 -9 1 C-3.25 0.875 -3.25 0.875 -1 2 C-0.67 1.34 -0.34 0.68 0 0 Z " fill="#8C8882" transform="translate(135,409)"/>
<path d="M0 0 C0 1.65 0 3.3 0 5 C-2.97 5 -5.94 5 -9 5 C-8.67 3.68 -8.34 2.36 -8 1 C-2.25 0 -2.25 0 0 0 Z " fill="#95928B" transform="translate(167,387)"/>
<path d="M0 0 C0.928125 0.2784375 0.928125 0.2784375 1.875 0.5625 C4.04160178 1.23686176 4.04160178 1.23686176 6 0 C6 1.98 6 3.96 6 6 C4.34385343 6.38218767 2.67542976 6.71395102 1 7 C0 6 0 6 -0.0625 2.9375 C-0.041875 1.968125 -0.02125 0.99875 0 0 Z " fill="#B2AEA6" transform="translate(114,338)"/>
<path d="M0 0 C2.64 0 5.28 0 8 0 C8 1.32 8 2.64 8 4 C4.92677456 4.91058531 2.19902639 5.08886184 -1 5 C-0.67 3.35 -0.34 1.7 0 0 Z " fill="#9F9C95" transform="translate(202,259)"/>
<path d="M0 0 C0.66 0 1.32 0 2 0 C2 0.66 2 1.32 2 2 C4.31 2 6.62 2 9 2 C9 3.32 9 4.64 9 6 C6.03 6 3.06 6 0 6 C0 4.02 0 2.04 0 0 Z " fill="#9D9992" transform="translate(50,240)"/>
<path d="M0 0 C0.66 0 1.32 0 2 0 C2 0.66 2 1.32 2 2 C3.98 1.67 5.96 1.34 8 1 C8 2.65 8 4.3 8 6 C5.36 6 2.72 6 0 6 C0 4.02 0 2.04 0 0 Z " fill="#99958E" transform="translate(210,240)"/>
<path d="M0 0 C3.3 0 6.6 0 10 0 C9.67 1.32 9.34 2.64 9 4 C6.03 4 3.06 4 0 4 C0 2.68 0 1.36 0 0 Z " fill="#96938C" transform="translate(268,231)"/>
<path d="M0 0 C2.64 0 5.28 0 8 0 C8 1.32 8 2.64 8 4 C5.03 4 2.06 4 -1 4 C-0.67 2.68 -0.34 1.36 0 0 Z " fill="#939089" transform="translate(138,81)"/>
<path d="M0 0 C0 1.98 0 3.96 0 6 C-6.0546875 6.9765625 -6.0546875 6.9765625 -8 7 C-8.66 6.34 -9.32 5.68 -10 5 C-9.34 3.68 -8.68 2.36 -8 1 C-7.34 1.99 -6.68 2.98 -6 4 C-5.34 4 -4.68 4 -4 4 C-4 3.01 -4 2.02 -4 1 C-2 0 -2 0 0 0 Z " fill="#9D9992" transform="translate(112,50)"/>
<path d="M0 0 C2.31 0 4.62 0 7 0 C7 1.65 7 3.3 7 5 C4.36 5 1.72 5 -1 5 C-0.67 3.35 -0.34 1.7 0 0 Z " fill="#ABA7A0" transform="translate(94,51)"/>
<path d="M0 0 C0.66 0 1.32 0 2 0 C2 0.66 2 1.32 2 2 C3.98 2 5.96 2 8 2 C8 2.66 8 3.32 8 4 C7.34 4 6.68 4 6 4 C5.67 4.66 5.34 5.32 5 6 C3.02 6 1.04 6 -1 6 C-1.042721 4.33388095 -1.04063832 2.66617115 -1 1 C-0.67 0.67 -0.34 0.34 0 0 Z " fill="#B3AFA6" transform="translate(105,39)"/>
<path d="M0 0 C3.3 0 6.6 0 10 0 C10 1.32 10 2.64 10 4 C6.66666667 4 3.33333333 4 0 4 C0 2.68 0 1.36 0 0 Z " fill="#96938C" transform="translate(97,388)"/>
<path d="M0 0 C0.66 0 1.32 0 2 0 C2 0.66 2 1.32 2 2 C3.32 2.33 4.64 2.66 6 3 C5.6875 4.9375 5.6875 4.9375 5 7 C4.01 7.33 3.02 7.66 2 8 C1.34 7.67 0.68 7.34 0 7 C0 4.69 0 2.38 0 0 Z " fill="#64625D" transform="translate(72,370)"/>
<path d="M0 0 C1.32 0 2.64 0 4 0 C4.33 0.99 4.66 1.98 5 3 C4.01 3.99 3.02 4.98 2 6 C2.66 6.33 3.32 6.66 4 7 C1.36 6.67 -1.28 6.34 -4 6 C-3.67 5.34 -3.34 4.68 -3 4 C-3.33 3.67 -3.66 3.34 -4 3 C-3.01 2.67 -2.02 2.34 -1 2 C-0.67 1.34 -0.34 0.68 0 0 Z " fill="#AEAAA1" transform="translate(51,269)"/>
<path d="M0 0 C0 1.65 0 3.3 0 5 C-0.763125 4.979375 -1.52625 4.95875 -2.3125 4.9375 C-5.10185786 4.87057159 -5.10185786 4.87057159 -8 6 C-8 4.35 -8 2.7 -8 1 C-2.25 0 -2.25 0 0 0 Z " fill="#95928B" transform="translate(302,259)"/>
<path d="M0 0 C0 1.32 0 2.64 0 4 C-2.64 4 -5.28 4 -8 4 C-8.33 2.68 -8.66 1.36 -9 0 C-5.62182575 -0.84454356 -3.32534757 -1.10844919 0 0 Z " fill="#9F9C95" transform="translate(150,231)"/>
<path d="M0 0 C3.63 0 7.26 0 11 0 C11 1.32 11 2.64 11 4 C9.02 4 7.04 4 5 4 C5 3.34 5 2.68 5 2 C4.34 2 3.68 2 3 2 C2.67 2.66 2.34 3.32 2 4 C1.34 2.68 0.68 1.36 0 0 Z " fill="#928F88" transform="translate(179,351)"/>
<path d="M0 0 C0.33 0.66 0.66 1.32 1 2 C1.99 2 2.98 2 4 2 C3.67 3.32 3.34 4.64 3 6 C0.36 6 -2.28 6 -5 6 C-5 3 -5 3 -3.625 1.3125 C-2 0 -2 0 0 0 Z " fill="#928E87" transform="translate(243,320)"/>
<path d="M0 0 C0.66 0.33 1.32 0.66 2 1 C3.32860925 1.35169068 4.66158328 1.68770276 6 2 C5 5 5 5 2 7 C-0.1875 6.625 -0.1875 6.625 -2 6 C-2 4.35 -2 2.7 -2 1 C-1.34 0.67 -0.68 0.34 0 0 Z " fill="#9F9C94" transform="translate(169,309)"/>
<path d="M0 0 C2.0625 0.4375 2.0625 0.4375 4 1 C4 2.65 4 4.3 4 6 C2.125 6.625 2.125 6.625 0 7 C-0.66 6.34 -1.32 5.68 -2 5 C-1.46428571 1.46428571 -1.46428571 1.46428571 0 0 Z " fill="#A9A6A0" transform="translate(85,309)"/>
<path d="M0 0 C2.97 0.495 2.97 0.495 6 1 C6.33 2.65 6.66 4.3 7 6 C4.69 6 2.38 6 0 6 C0 4.02 0 2.04 0 0 Z " fill="#A9A59D" transform="translate(95,298)"/>
<path d="M0 0 C2.0625 0.4375 2.0625 0.4375 4 1 C4 2.65 4 4.3 4 6 C2.125 6.625 2.125 6.625 0 7 C-0.66 6.34 -1.32 5.68 -2 5 C-1.46428571 1.46428571 -1.46428571 1.46428571 0 0 Z " fill="#A9A6A0" transform="translate(85,298)"/>
<path d="M0 0 C3.63 0 7.26 0 11 0 C11.33 1.32 11.66 2.64 12 4 C10.68 4 9.36 4 8 4 C7.67 3.67 7.34 3.34 7 3 C6.38125 3.20625 5.7625 3.4125 5.125 3.625 C4.42375 3.74875 3.7225 3.8725 3 4 C1.25 2.625 1.25 2.625 0 1 C0 0.67 0 0.34 0 0 Z " fill="#908C85" transform="translate(122,260)"/>
<path d="M0 0 C2.97 0.495 2.97 0.495 6 1 C6 2.65 6 4.3 6 6 C4.02 6 2.04 6 0 6 C0 4.02 0 2.04 0 0 Z " fill="#A19E96" transform="translate(224,229)"/>
<path d="M0 0 C3.96 0 7.92 0 12 0 C12 1.65 12 3.3 12 5 C6.25 5.125 6.25 5.125 4 4 C4 3.01 4 2.02 4 1 C2.68 0.67 1.36 0.34 0 0 Z " fill="#B0ACA3" transform="translate(77,230)"/>
<path d="M0 0 C2.31 0.66 4.62 1.32 7 2 C7 3.32 7 4.64 7 6 C4.69 6 2.38 6 0 6 C0 4.02 0 2.04 0 0 Z " fill="#7E7B75" transform="translate(47,212)"/>
<path d="M0 0 C2.31 0 4.62 0 7 0 C6.67 2.97 6.34 5.94 6 9 C4.68 8.34 3.36 7.68 2 7 C2 5.02 2 3.04 2 1 C1.34 0.67 0.68 0.34 0 0 Z " fill="#31302D" transform="translate(132,142)"/>
<path d="M0 0 C1.65 0.33 3.3 0.66 5 1 C4.67 2.65 4.34 4.3 4 6 C2.35 5.67 0.7 5.34 -1 5 C-0.67 3.35 -0.34 1.7 0 0 Z " fill="#A7A49E" transform="translate(84,409)"/>
<path d="M0 0 C0.66 0 1.32 0 2 0 C2.33 0.66 2.66 1.32 3 2 C3.99 2 4.98 2 6 2 C5.67 2.99 5.34 3.98 5 5 C0.545 5.495 0.545 5.495 -4 6 C-3.67 4.68 -3.34 3.36 -3 2 C-2.34 2 -1.68 2 -1 2 C-0.67 1.34 -0.34 0.68 0 0 Z " fill="#5E5B57" transform="translate(104,371)"/>
<path d="M0 0 C0.66 0 1.32 0 2 0 C2.33 0.66 2.66 1.32 3 2 C3.99 2 4.98 2 6 2 C6 3.32 6 4.64 6 6 C3.69 6 1.38 6 -1 6 C-1 2 -1 2 0 0 Z " fill="#96938C" transform="translate(135,338)"/>
<path d="M0 0 C1.65 0.33 3.3 0.66 5 1 C4.67 2.65 4.34 4.3 4 6 C2.35 5.67 0.7 5.34 -1 5 C-0.67 3.35 -0.34 1.7 0 0 Z " fill="#A7A59E" transform="translate(84,321)"/>
<path d="M0 0 C0.33 0 0.66 0 1 0 C1 1.98 1 3.96 1 6 C-1.31 6 -3.62 6 -6 6 C-6 5.01 -6 4.02 -6 3 C-6.66 3 -7.32 3 -8 3 C-8.33 3.99 -8.66 4.98 -9 6 C-9 4.68 -9 3.36 -9 2 C-6.03 2 -3.06 2 0 2 C0 1.34 0 0.68 0 0 Z " fill="#7F7D77" transform="translate(135,309)"/>
<path d="M0 0 C2.64 0.66 5.28 1.32 8 2 C8 3.32 8 4.64 8 6 C5.36 6 2.72 6 0 6 C0 4.02 0 2.04 0 0 Z " fill="#99958E" transform="translate(160,298)"/>
<path d="M0 0 C0 1.65 0 3.3 0 5 C-2.31 5 -4.62 5 -7 5 C-7.33 3.68 -7.66 2.36 -8 1 C-5.29120665 -0.35439668 -2.99066732 -0.06501451 0 0 Z " fill="#9C9991" transform="translate(145,288)"/>
<path d="M0 0 C0.33 0 0.66 0 1 0 C1 1.98 1 3.96 1 6 C-2.3 6 -5.6 6 -9 6 C-9 4.68 -9 3.36 -9 2 C-6.36 2 -3.72 2 -1 2 C-0.67 1.34 -0.34 0.68 0 0 Z " fill="#83807A" transform="translate(244,229)"/>
<path d="M0 0 C0.33 0 0.66 0 1 0 C1 1.98 1 3.96 1 6 C0.67 5.01 0.34 4.02 0 3 C-0.66 3 -1.32 3 -2 3 C-2.33 3.99 -2.66 4.98 -3 6 C-3.33 5.67 -3.66 5.34 -4 5 C-4 5.33 -4 5.66 -4 6 C-5.65 6 -7.3 6 -9 6 C-8.67 4.68 -8.34 3.36 -8 2 C-2.25 0.875 -2.25 0.875 0 2 C0 1.34 0 0.68 0 0 Z " fill="#65625E" transform="translate(81,211)"/>
<path d="M0 0 C2.14576637 -0.02685938 4.29162645 -0.04633088 6.4375 -0.0625 C7.63246094 -0.07410156 8.82742187 -0.08570312 10.05859375 -0.09765625 C13 0 13 0 14 1 C14.04063832 2.66617115 14.042721 4.33388095 14 6 C13.34 6 12.68 6 12 6 C11.67 5.01 11.34 4.02 11 3 C7.37 2.67 3.74 2.34 0 2 C0 1.34 0 0.68 0 0 Z " fill="#72CABB" transform="translate(175,105)"/>
<path d="M0 0 C1.32 0.99 2.64 1.98 4 3 C3.67 4.32 3.34 5.64 3 7 C2.01 6.67 1.02 6.34 0 6 C-0.33 5.34 -0.66 4.68 -1 4 C-1.66 4.66 -2.32 5.32 -3 6 C-3.99 6 -4.98 6 -6 6 C-5.67 4.68 -5.34 3.36 -5 2 C-3.35 2 -1.7 2 0 2 C0 1.34 0 0.68 0 0 Z " fill="#918D86" transform="translate(110,397)"/>
<path d="M0 0 C1.98 0 3.96 0 6 0 C6.33 1.65 6.66 3.3 7 5 C5.02 5 3.04 5 1 5 C0.67 3.35 0.34 1.7 0 0 Z " fill="#A29F97" transform="translate(206,322)"/>
<path d="M0 0 C2.31 0 4.62 0 7 0 C7 1.32 7 2.64 7 4 C5.68 4 4.36 4 3 4 C2.67 4.66 2.34 5.32 2 6 C1.34 6 0.68 6 0 6 C0 4.02 0 2.04 0 0 Z " fill="#96938B" transform="translate(219,242)"/>
<path d="M0 0 C3.3 0 6.6 0 10 0 C10 1.32 10 2.64 10 4 C9.34 4 8.68 4 8 4 C7.67 3.67 7.34 3.34 7 3 C6.01 3.33 5.02 3.66 4 4 C1.8125 3.5625 1.8125 3.5625 0 3 C0 2.01 0 1.02 0 0 Z " fill="#8D8983" transform="translate(172,231)"/>
<path d="M0 0 C1.67542976 0.28604898 3.34385343 0.61781233 5 1 C4.67 2.65 4.34 4.3 4 6 C2.68 5.67 1.36 5.34 0 5 C-0.5625 3.0625 -0.5625 3.0625 -1 1 C-0.67 0.67 -0.34 0.34 0 0 Z " fill="#A7A59F" transform="translate(84,398)"/>
<path d="M0 0 C2.31 0 4.62 0 7 0 C7 1.65 7 3.3 7 5 C1.25 5.125 1.25 5.125 -1 4 C-0.67 2.68 -0.34 1.36 0 0 Z " fill="#A29F98" transform="translate(197,322)"/>
<path d="M0 0 C1.32 0.66 2.64 1.32 4 2 C3.67 3.98 3.34 5.96 3 8 C1.68 7.34 0.36 6.68 -1 6 C-1.042721 4.33388095 -1.04063832 2.66617115 -1 1 C-0.67 0.67 -0.34 0.34 0 0 Z " fill="#A2A09A" transform="translate(96,309)"/>
<path d="M0 0 C0.66 0 1.32 0 2 0 C2 1.98 2 3.96 2 6 C-0.64 6 -3.28 6 -6 6 C-5.34 4.68 -4.68 3.36 -4 2 C-2.68 2 -1.36 2 0 2 C0 1.34 0 0.68 0 0 Z " fill="#96928C" transform="translate(143,298)"/>
<path d="M0 0 C1.2065625 0.0309375 1.2065625 0.0309375 2.4375 0.0625 C2.7675 1.7125 3.0975 3.3625 3.4375 5.0625 C1.4575 5.0625 -0.5225 5.0625 -2.5625 5.0625 C-3.125 3.125 -3.125 3.125 -3.5625 1.0625 C-2.5625 0.0625 -2.5625 0.0625 0 0 Z " fill="#9E9B93" transform="translate(225.5625,287.9375)"/>
<path d="M0 0 C2.66666667 0 5.33333333 0 8 0 C8 0.99 8 1.98 8 3 C7.34 3 6.68 3 6 3 C6 3.99 6 4.98 6 6 C5.34 6 4.68 6 4 6 C4 5.34 4 4.68 4 4 C2.68 4 1.36 4 0 4 C0 2.68 0 1.36 0 0 Z " fill="#9C9891" transform="translate(165,242)"/>
<path d="M0 0 C1.98 0 3.96 0 6 0 C6.33 1.32 6.66 2.64 7 4 C3.71023192 5.09658936 2.28696233 4.79953138 -1 4 C-0.67 2.68 -0.34 1.36 0 0 Z " fill="#A5A19A" transform="translate(217,351)"/>
<path d="M0 0 C0.66 0.33 1.32 0.66 2 1 C2 2.65 2 4.3 2 6 C0.34385343 6.38218767 -1.32457024 6.71395102 -3 7 C-4 6 -4 6 -4.0625 3.4375 C-4.041875 2.633125 -4.02125 1.82875 -4 1 C-3.01 1.33 -2.02 1.66 -1 2 C-0.67 1.34 -0.34 0.68 0 0 Z " fill="#B9B6AE" transform="translate(193,338)"/>
<path d="M0 0 C1.98 0 3.96 0 6 0 C6.66 1.65 7.32 3.3 8 5 C7.21625 4.835 6.4325 4.67 5.625 4.5 C3.11791961 3.9376293 3.11791961 3.9376293 1 4 C0.34 4 -0.32 4 -1 4 C-0.67 2.68 -0.34 1.36 0 0 Z " fill="#A5A29A" transform="translate(250,322)"/>
<path d="M0 0 C0.66 0 1.32 0 2 0 C2 2.31 2 4.62 2 7 C-0.31 6.67 -2.62 6.34 -5 6 C-4.67 5.01 -4.34 4.02 -4 3 C-3.67 3.33 -3.34 3.66 -3 4 C-2.67 3.34 -2.34 2.68 -2 2 C-1.34 2 -0.68 2 0 2 C0 1.34 0 0.68 0 0 Z " fill="#9E9A93" transform="translate(159,320)"/>
<path d="M0 0 C1.65 0 3.3 0 5 0 C5.33 1.65 5.66 3.3 6 5 C4.02 5 2.04 5 0 5 C0 3.35 0 1.7 0 0 Z " fill="#A3A098" transform="translate(246,288)"/>
<path d="M0 0 C3.3 0 6.6 0 10 0 C9.67 1.32 9.34 2.64 9 4 C9 3.01 9 2.02 9 1 C8.34 1 7.68 1 7 1 C6.67 1.99 6.34 2.98 6 4 C4.02 4 2.04 4 0 4 C0 2.68 0 1.36 0 0 Z " fill="#8C8982" transform="translate(224,260)"/>
<path d="M0 0 C-0.33 2.31 -0.66 4.62 -1 7 C-3.9375 6.1875 -3.9375 6.1875 -7 5 C-7.33 4.01 -7.66 3.02 -8 2 C-2.25 0 -2.25 0 0 0 Z " fill="#C7C4BB" transform="translate(294,257)"/>
<path d="M0 0 C2.97 0.495 2.97 0.495 6 1 C6.33 2.32 6.66 3.64 7 5 C3 5 3 5 0 4 C0 2.68 0 1.36 0 0 Z " fill="#9E9B94" transform="translate(142,242)"/>
<path d="M0 0 C0.33 0.66 0.66 1.32 1 2 C2.98 2 4.96 2 7 2 C7 3.32 7 4.64 7 6 C4.69 6 2.38 6 0 6 C0 4.02 0 2.04 0 0 Z " fill="#A5A29A" transform="translate(101,229)"/>
<path d="M0 0 C1.65 0 3.3 0 5 0 C5.33 0.99 5.66 1.98 6 3 C6.66 3 7.32 3 8 3 C8 3.66 8 4.32 8 5 C2.25 5.125 2.25 5.125 0 4 C0 2.68 0 1.36 0 0 Z " fill="#9F9B94" transform="translate(188,399)"/>
<path d="M0 0 C2.97 0 5.94 0 9 0 C8.01 0.495 8.01 0.495 7 1 C7 1.66 7 2.32 7 3 C7.66 3.33 8.32 3.66 9 4 C6.03 4 3.06 4 0 4 C0 2.68 0 1.36 0 0 Z " fill="#8A8781" transform="translate(267,340)"/>
<path d="M0 0 C3.3 0 6.6 0 10 0 C9.67 1.32 9.34 2.64 9 4 C7.68 4 6.36 4 5 4 C4.34 4.66 3.68 5.32 3 6 C3 4.35 3 2.7 3 1 C2.34 1 1.68 1 1 1 C0.67 1.99 0.34 2.98 0 4 C0 2.68 0 1.36 0 0 Z " fill="#7D7A74" transform="translate(208,311)"/>
<path d="M0 0 C2.31 0.66 4.62 1.32 7 2 C7 3.32 7 4.64 7 6 C4.69 6 2.38 6 0 6 C0 4.02 0 2.04 0 0 Z " fill="#8F8C86" transform="translate(238,287)"/>
<path d="M0 0 C0.66 0 1.32 0 2 0 C2 1.98 2 3.96 2 6 C-0.31 6 -2.62 6 -5 6 C-4.67 4.68 -4.34 3.36 -4 2 C-2.68 2 -1.36 2 0 2 C0 1.34 0 0.68 0 0 Z " fill="#96938C" transform="translate(189,258)"/>
<path d="M0 0 C0.66 0 1.32 0 2 0 C2 0.66 2 1.32 2 2 C2.99 2.33 3.98 2.66 5 3 C5 4.32 5 5.64 5 7 C3.35 7 1.7 7 0 7 C0 4.69 0 2.38 0 0 Z " fill="#A9A59D" transform="translate(252,228)"/>
<path d="M0 0 C1.2065625 0.0309375 1.2065625 0.0309375 2.4375 0.0625 C1.7775 2.0425 1.1175 4.0225 0.4375 6.0625 C-1.8725 5.7325 -4.1825 5.4025 -6.5625 5.0625 C-5.9025 4.7325 -5.2425 4.4025 -4.5625 4.0625 C-4.2325 3.0725 -3.9025 2.0825 -3.5625 1.0625 C-2.5625 0.0625 -2.5625 0.0625 0 0 Z " fill="#ADA9A1" transform="translate(110.5625,212.9375)"/>
<path d="M0 0 C2.64 0 5.28 0 8 0 C8.33 1.32 8.66 2.64 9 4 C9.33 3.34 9.66 2.68 10 2 C10.66 2 11.32 2 12 2 C11.34 4.31 10.68 6.62 10 9 C6 4.25 6 4.25 6 2 C3.03 1.505 3.03 1.505 0 1 C0 0.67 0 0.34 0 0 Z " fill="#E1DED6" transform="translate(141,133)"/>
<path d="M0 0 C0.99 0.33 1.98 0.66 3 1 C3.33 2.98 3.66 4.96 4 7 C3.01 6.67 2.02 6.34 1 6 C1 8.31 1 10.62 1 13 C0.67 13 0.34 13 0 13 C0 8.71 0 4.42 0 0 Z " fill="#3C3A37" transform="translate(85,135)"/>
<path d="M0 0 C0 1.65 0 3.3 0 5 C-2.31 5 -4.62 5 -7 5 C-7 3.68 -7 2.36 -7 1 C-4 0 -4 0 0 0 Z " fill="#89857F" transform="translate(132,69)"/>
<path d="M0 0 C3.12290635 0.48578543 5.99580359 0.9986012 9 2 C9 2.99 9 3.98 9 5 C6 6 6 6 3 5 C3 3.68 3 2.36 3 1 C2.34 1 1.68 1 1 1 C0.67 2.32 0.34 3.64 0 5 C0 3.35 0 1.7 0 0 Z " fill="#88857E" transform="translate(95,409)"/>
<path d="M0 0 C2.31 0 4.62 0 7 0 C7.33 1.32 7.66 2.64 8 4 C5.36 4 2.72 4 0 4 C0 2.68 0 1.36 0 0 Z " fill="#928E87" transform="translate(147,399)"/>
<path d="M0 0 C2.31 0 4.62 0 7 0 C6.67 1.32 6.34 2.64 6 4 C4.35 4.33 2.7 4.66 1 5 C0.67 3.35 0.34 1.7 0 0 Z " fill="#96938C" transform="translate(119,399)"/>
<path d="M0 0 C2.31 0 4.62 0 7 0 C7 1.32 7 2.64 7 4 C4.69 4 2.38 4 0 4 C0 2.68 0 1.36 0 0 Z " fill="#96928B" transform="translate(178,388)"/>
<path d="M0 0 C1.98 0 3.96 0 6 0 C6 1.32 6 2.64 6 4 C4.35 4.33 2.7 4.66 1 5 C0.67 3.35 0.34 1.7 0 0 Z " fill="#A39F97" transform="translate(163,322)"/>
<path d="M0 0 C1.32 0.33 2.64 0.66 4 1 C4 2.98 4 4.96 4 7 C2.68 7 1.36 7 0 7 C0 4.69 0 2.38 0 0 Z " fill="#F0EDE5" transform="translate(54,142)"/>
<path d="M0 0 C2.64 0 5.28 0 8 0 C7.34 1.65 6.68 3.3 6 5 C3 5 3 5 1.3125 3.625 C0 2 0 2 0 0 Z " fill="#8F8C85" transform="translate(117,68)"/>
<path d="M0 0 C2.31 0 4.62 0 7 0 C6.67 1.65 6.34 3.3 6 5 C4.35 4.67 2.7 4.34 1 4 C0.67 2.68 0.34 1.36 0 0 Z " fill="#898680" transform="translate(92,68)"/>
<path d="M0 0 C2.475 0.495 2.475 0.495 5 1 C4.34 2.98 3.68 4.96 3 7 C2.01 7 1.02 7 0 7 C0 4.69 0 2.38 0 0 Z " fill="#BDB9B0" transform="translate(47,50)"/>
<path d="M0 0 C2.97 0.495 2.97 0.495 6 1 C5.67 2.65 5.34 4.3 5 6 C3.02 5.01 1.04 4.02 -1 3 C-0.67 2.01 -0.34 1.02 0 0 Z " fill="#B9B5AC" transform="translate(116,39)"/>
<path d="M0 0 C0 1.65 0 3.3 0 5 C-2.31 4.67 -4.62 4.34 -7 4 C-7 3.01 -7 2.02 -7 1 C-4.53721199 -0.231394 -2.7204945 -0.07159196 0 0 Z " fill="#95928B" transform="translate(125,410)"/>
<path d="M0 0 C0.33 0.66 0.66 1.32 1 2 C2.98 2 4.96 2 7 2 C7 3.32 7 4.64 7 6 C4.69 6 2.38 6 0 6 C0 4.02 0 2.04 0 0 Z " fill="#85827C" transform="translate(238,386)"/>
<path d="M0 0 C1.32 0.66 2.64 1.32 4 2 C4 3.32 4 4.64 4 6 C2.35 6.33 0.7 6.66 -1 7 C-1.04254356 5.00045254 -1.04080783 2.99958364 -1 1 C-0.67 0.67 -0.34 0.34 0 0 Z " fill="#9C9891" transform="translate(143,349)"/>
<path d="M0 0 C2.97 0 5.94 0 9 0 C8.67 1.32 8.34 2.64 8 4 C7.34 4 6.68 4 6 4 C6 3.01 6 2.02 6 1 C5.34 1 4.68 1 4 1 C3.67 1.99 3.34 2.98 3 4 C2.67 3.67 2.34 3.34 2 3 C1.01 3 0.02 3 -1 3 C-0.67 2.01 -0.34 1.02 0 0 Z " fill="#84817B" transform="translate(75,340)"/>
<path d="M0 0 C2.64 0 5.28 0 8 0 C8 1.32 8 2.64 8 4 C7.34 4 6.68 4 6 4 C6 3.01 6 2.02 6 1 C5.34 1 4.68 1 4 1 C4.33 1.99 4.66 2.98 5 4 C3.35 4 1.7 4 0 4 C0 2.68 0 1.36 0 0 Z " fill="#95918A" transform="translate(150,311)"/>
<path d="M0 0 C1.98 0 3.96 0 6 0 C6 1.65 6 3.3 6 5 C4.02 5 2.04 5 0 5 C-0.33 4.34 -0.66 3.68 -1 3 C-0.67 2.01 -0.34 1.02 0 0 Z " fill="#9E9A93" transform="translate(118,288)"/>
<path d="M0 0 C0.66 0.66 1.32 1.32 2 2 C2.99 1.67 3.98 1.34 5 1 C5 2.65 5 4.3 5 6 C2.69 6 0.38 6 -2 6 C-1.34 4.02 -0.68 2.04 0 0 Z " fill="#928E87" transform="translate(73,287)"/>
<path d="M0 0 C-0.33 0.99 -0.66 1.98 -1 3 C-1.66 3 -2.32 3 -3 3 C-3.33 3.66 -3.66 4.32 -4 5 C-5.65 4.67 -7.3 4.34 -9 4 C-8.67 3.01 -8.34 2.02 -8 1 C-5.29120665 -0.35439668 -2.99066732 -0.06501451 0 0 Z " fill="#C2BEB7" transform="translate(132,288)"/>
<path d="M0 0 C1.98 0.495 1.98 0.495 4 1 C3.67 2.65 3.34 4.3 3 6 C1.68 5.67 0.36 5.34 -1 5 C-0.67 3.35 -0.34 1.7 0 0 Z " fill="#131211" transform="translate(61,287)"/>
<path d="M0 0 C1.32 0 2.64 0 4 0 C4.33 0.99 4.66 1.98 5 3 C4.67 3.66 4.34 4.32 4 5 C2.02 5 0.04 5 -2 5 C-1.125 1.125 -1.125 1.125 0 0 Z " fill="#9B9891" transform="translate(348,259)"/>
<path d="M0 0 C0 1.65 0 3.3 0 5 C-2.31 5 -4.62 5 -7 5 C-7 3.68 -7 2.36 -7 1 C-2.25 0 -2.25 0 0 0 Z " fill="#928F88" transform="translate(118,230)"/>
<path d="M0 0 C0.33 0 0.66 0 1 0 C1 1.98 1 3.96 1 6 C2.32 5.01 3.64 4.02 5 3 C5 5.31 5 7.62 5 10 C3.68 9.01 2.36 8.02 1 7 C1 9.31 1 11.62 1 14 C0.67 14 0.34 14 0 14 C0 9.38 0 4.76 0 0 Z " fill="#2FB5A5" transform="translate(180,107)"/>
<path d="M0 0 C2.97 0.495 2.97 0.495 6 1 C6 2.32 6 3.64 6 5 C4.02 5 2.04 5 0 5 C0 3.35 0 1.7 0 0 Z " fill="#96938C" transform="translate(62,80)"/>
<path d="M0 0 C1.98 0 3.96 0 6 0 C5.67 1.65 5.34 3.3 5 5 C3.35 4.67 1.7 4.34 0 4 C0 2.68 0 1.36 0 0 Z " fill="#A39F98" transform="translate(193,351)"/>
<path d="M0 0 C2.31 0 4.62 0 7 0 C7.33 1.65 7.66 3.3 8 5 C4 5 4 5 2.25 3.5 C1.8375 3.005 1.425 2.51 1 2 C0.67 2.66 0.34 3.32 0 4 C0 2.68 0 1.36 0 0 Z " fill="#96938C" transform="translate(89,351)"/>
<path d="M0 0 C2.64 0.33 5.28 0.66 8 1 C8 1.99 8 2.98 8 4 C5.36 4 2.72 4 0 4 C0 2.68 0 1.36 0 0 Z " fill="#AEAAA3" transform="translate(297,340)"/>
<path d="M0 0 C0.33 0 0.66 0 1 0 C1 1.98 1 3.96 1 6 C0.67 5.01 0.34 4.02 0 3 C-0.66 3 -1.32 3 -2 3 C-2.33 3.99 -2.66 4.98 -3 6 C-3.33 5.67 -3.66 5.34 -4 5 C-4.99 5 -5.98 5 -7 5 C-7.33 4.01 -7.66 3.02 -8 2 C-5.36 2 -2.72 2 0 2 C0 1.34 0 0.68 0 0 Z " fill="#87837D" transform="translate(187,338)"/>
<path d="M0 0 C1.65 0 3.3 0 5 0 C5.33 1.65 5.66 3.3 6 5 C4.02 5 2.04 5 0 5 C0 3.35 0 1.7 0 0 Z " fill="#98958D" transform="translate(99,259)"/>
<path d="M0 0 C0.33 0 0.66 0 1 0 C1 1.98 1 3.96 1 6 C-1.31 6 -3.62 6 -6 6 C-6 4.68 -6 3.36 -6 2 C-4.35 2 -2.7 2 -1 2 C-0.67 1.34 -0.34 0.68 0 0 Z " fill="#84817A" transform="translate(191,229)"/>
<path d="M0 0 C0.33 0.66 0.66 1.32 1 2 C1.99 2 2.98 2 4 2 C4 3.65 4 5.3 4 7 C2.68 7.33 1.36 7.66 0 8 C0 5.36 0 2.72 0 0 Z " fill="#FDFAEE" transform="translate(110,113)"/>
<path d="M0 0 C1.98 0.99 1.98 0.99 4 2 C4 4.31 4 6.62 4 9 C3.01 9.33 2.02 9.66 1 10 C0.67 6.7 0.34 3.4 0 0 Z " fill="#0AA595" transform="translate(168,107)"/>
<path d="M0 0 C2.64 0.33 5.28 0.66 8 1 C7.67 1.99 7.34 2.98 7 4 C4.69 4 2.38 4 0 4 C0 2.68 0 1.36 0 0 Z " fill="#8E8A84" transform="translate(70,81)"/>
<path d="M0 0 C1.65 0 3.3 0 5 0 C5 1.32 5 2.64 5 4 C3.35 4.33 1.7 4.66 0 5 C-0.33 4.01 -0.66 3.02 -1 2 C-0.67 1.34 -0.34 0.68 0 0 Z " fill="#9D9991" transform="translate(169,351)"/>
<path d="M0 0 C2.97 0.495 2.97 0.495 6 1 C5.67 2.65 5.34 4.3 5 6 C3.35 6.33 1.7 6.66 0 7 C0.66 5.02 1.32 3.04 2 1 C1.34 0.67 0.68 0.34 0 0 Z " fill="#B8B4AB" transform="translate(317,339)"/>
<path d="M0 0 C0.66 0 1.32 0 2 0 C2 0.66 2 1.32 2 2 C3.32 2 4.64 2 6 2 C5.67 3.32 5.34 4.64 5 6 C3.35 6 1.7 6 0 6 C0 4.02 0 2.04 0 0 Z " fill="#9F9B93" transform="translate(289,338)"/>
<path d="M0 0 C0.33 0 0.66 0 1 0 C1 2.31 1 4.62 1 7 C-0.65 7 -2.3 7 -4 7 C-4 5.35 -4 3.7 -4 2 C-3.01 2 -2.02 2 -1 2 C-0.67 1.34 -0.34 0.68 0 0 Z " fill="#98948D" transform="translate(176,320)"/>
<path d="M0 0 C2.475 0.495 2.475 0.495 5 1 C5 2.32 5 3.64 5 5 C3.35 5 1.7 5 0 5 C0 3.35 0 1.7 0 0 Z " fill="#B1AEA6" transform="translate(111,311)"/>
<path d="M0 0 C1.98 0 3.96 0 6 0 C6 1.32 6 2.64 6 4 C4.02 4 2.04 4 0 4 C0 2.68 0 1.36 0 0 Z " fill="#98948D" transform="translate(129,300)"/>
<path d="M0 0 C1.98 0 3.96 0 6 0 C6 1.65 6 3.3 6 5 C4 5 2 5 0 5 C0 3.35 0 1.7 0 0 Z " fill="#9A9790" transform="translate(231,288)"/>
<path d="M0 0 C2.97 0.495 2.97 0.495 6 1 C6 2.32 6 3.64 6 5 C4.02 5 2.04 5 0 5 C0 3.35 0 1.7 0 0 Z " fill="#9A978F" transform="translate(332,259)"/>
<path d="M0 0 C0.66 0 1.32 0 2 0 C2 0.66 2 1.32 2 2 C2.99 2 3.98 2 5 2 C5 3.32 5 4.64 5 6 C3.35 6 1.7 6 0 6 C0 4.02 0 2.04 0 0 Z " fill="#9A968F" transform="translate(88,240)"/>
<path d="M0 0 C0.33 0.99 0.66 1.98 1 3 C1.66 3 2.32 3 3 3 C3 3.66 3 4.32 3 5 C3.66 5.33 4.32 5.66 5 6 C-1.75 6.125 -1.75 6.125 -4 5 C-4 4.01 -4 3.02 -4 2 C-3.01 2 -2.02 2 -1 2 C-0.67 1.34 -0.34 0.68 0 0 Z " fill="#88857F" transform="translate(121,240)"/>
<path d="M0 0 C2.31 0 4.62 0 7 0 C6.67 1.32 6.34 2.64 6 4 C4.35 4 2.7 4 1 4 C0.67 2.68 0.34 1.36 0 0 Z " fill="#8D8A83" transform="translate(58,231)"/>
<path d="M0 0 C1.32 0 2.64 0 4 0 C4 1.98 4 3.96 4 6 C2.68 6 1.36 6 0 6 C0 4.02 0 2.04 0 0 Z " fill="#F3F0E6" transform="translate(54,135)"/>
<path d="M0 0 C2.31 0.66 4.62 1.32 7 2 C6.01 3.485 6.01 3.485 5 5 C2.375 5.1875 2.375 5.1875 0 5 C0 3.35 0 1.7 0 0 Z " fill="#85827C" transform="translate(63,69)"/>
<path d="M0 0 C-0.33 1.65 -0.66 3.3 -1 5 C-2.65 4.67 -4.3 4.34 -6 4 C-6.33 3.01 -6.66 2.02 -7 1 C-2.25 0 -2.25 0 0 0 Z " fill="#C5C1B8" transform="translate(71,40)"/>
<path d="M0 0 C0 1.65 0 3.3 0 5 C-1.32 5.33 -2.64 5.66 -4 6 C-4.33 4.35 -4.66 2.7 -5 1 C-1.125 0 -1.125 0 0 0 Z " fill="#9D9A93" transform="translate(219,387)"/>
<path d="M0 0 C1.32 0 2.64 0 4 0 C4 1.65 4 3.3 4 5 C2.35 4.67 0.7 4.34 -1 4 C-0.67 2.68 -0.34 1.36 0 0 Z " fill="#080808" transform="translate(61,387)"/>
<path d="M0 0 C2.31 0 4.62 0 7 0 C7 1.32 7 2.64 7 4 C4.69 4 2.38 4 0 4 C0 2.68 0 1.36 0 0 Z " fill="#8B8881" transform="translate(64,340)"/>
<path d="M0 0 C2.31 0 4.62 0 7 0 C7 1.32 7 2.64 7 4 C6.236875 3.835 5.47375 3.67 4.6875 3.5 C1.96403764 2.90854604 1.96403764 2.90854604 -1 3 C-0.67 2.01 -0.34 1.02 0 0 Z " fill="#8A8780" transform="translate(98,340)"/>
<path d="M0 0 C1.65 0 3.3 0 5 0 C5.33 1.32 5.66 2.64 6 4 C5.01 4.33 4.02 4.66 3 5 C2.34 4.34 1.68 3.68 1 3 C0.01 3.495 0.01 3.495 -1 4 C-0.67 2.68 -0.34 1.36 0 0 Z " fill="#98958F" transform="translate(216,322)"/>
<path d="M0 0 C1.65 0 3.3 0 5 0 C5 1.65 5 3.3 5 5 C2 5 2 5 -1 4 C-0.67 2.68 -0.34 1.36 0 0 Z " fill="#94908A" transform="translate(148,288)"/>
<path d="M0 0 C1.65 0 3.3 0 5 0 C5 1.65 5 3.3 5 5 C2 5 2 5 -1 4 C-0.67 2.68 -0.34 1.36 0 0 Z " fill="#939089" transform="translate(110,288)"/>
<path d="M0 0 C2.31 0 4.62 0 7 0 C7 1.32 7 2.64 7 4 C6.401875 3.814375 5.80375 3.62875 5.1875 3.4375 C2.83591238 2.77906313 2.83591238 2.77906313 0 4 C0 2.68 0 1.36 0 0 Z " fill="#8C8881" transform="translate(72,271)"/>
<path d="M0 0 C0.66 0 1.32 0 2 0 C2 2.31 2 4.62 2 7 C0.68 6.67 -0.64 6.34 -2 6 C-2 4.68 -2 3.36 -2 2 C-1.34 2 -0.68 2 0 2 C0 1.34 0 0.68 0 0 Z " fill="#A5A199" transform="translate(341,257)"/>
<path d="M0 0 C1.65 0 3.3 0 5 0 C5 0.66 5 1.32 5 2 C4.01 2 3.02 2 2 2 C2 2.99 2 3.98 2 5 C-0.31 5 -2.62 5 -5 5 C-4.67 4.34 -4.34 3.68 -4 3 C-3.01 3 -2.02 3 -1 3 C-0.67 2.01 -0.34 1.02 0 0 Z " fill="#E2F0E4" transform="translate(143,118)"/>
<path d="M0 0 C0 1.65 0 3.3 0 5 C-1.65 5.33 -3.3 5.66 -5 6 C-5 4.35 -5 2.7 -5 1 C-2 0 -2 0 0 0 Z " fill="#84817A" transform="translate(127,80)"/>
<path d="M0 0 C0.66 0 1.32 0 2 0 C2.33 0.66 2.66 1.32 3 2 C3.66 2 4.32 2 5 2 C5 3.32 5 4.64 5 6 C3.35 6 1.7 6 0 6 C0 4.02 0 2.04 0 0 Z " fill="#97948D" transform="translate(134,349)"/>
<path d="M0 0 C2.31 0.33 4.62 0.66 7 1 C6.67 1.99 6.34 2.98 6 4 C4.02 4 2.04 4 0 4 C0 2.68 0 1.36 0 0 Z " fill="#8C8882" transform="translate(104,271)"/>
<path d="M0 0 C2.31 0 4.62 0 7 0 C6.67 1.32 6.34 2.64 6 4 C5.34 4 4.68 4 4 4 C3.67 3.67 3.34 3.34 3 3 C2.01 3 1.02 3 0 3 C0 2.01 0 1.02 0 0 Z " fill="#8F8B85" transform="translate(193,260)"/>
<path d="M0 0 C0.66 0 1.32 0 2 0 C2 0.66 2 1.32 2 2 C2.99 2.33 3.98 2.66 5 3 C4.34 4.32 3.68 5.64 3 7 C2.01 7 1.02 7 0 7 C0 4.69 0 2.38 0 0 Z " fill="#ADA9A0" transform="translate(106,257)"/>
<path d="M0 0 C2.31 0 4.62 0 7 0 C6.67 0.66 6.34 1.32 6 2 C6.33 2.33 6.66 2.66 7 3 C4.92446352 3.5534764 3.15634036 4 1 4 C0.67 2.68 0.34 1.36 0 0 Z " fill="#96938B" transform="translate(202,242)"/>
<path d="M0 0 C1.32 0.33 2.64 0.66 4 1 C4 2.65 4 4.3 4 6 C2.68 6 1.36 6 0 6 C0 4.02 0 2.04 0 0 Z " fill="#6D6B66" transform="translate(115,211)"/>
<path d="M0 0 C0.66 0 1.32 0 2 0 C2 0.66 2 1.32 2 2 C2.66 2 3.32 2 4 2 C4 3.32 4 4.64 4 6 C2.35 5.67 0.7 5.34 -1 5 C-1.33 4.01 -1.66 3.02 -2 2 C-1.34 2 -0.68 2 0 2 C0 1.34 0 0.68 0 0 Z " fill="#7D7A75" transform="translate(67,211)"/>
<path d="M0 0 C0.99 0.33 1.98 0.66 3 1 C2.75 3.875 2.75 3.875 2 7 C0.02 7.99 0.02 7.99 -2 9 C-1.34 6.03 -0.68 3.06 0 0 Z " fill="#0B0B0A" transform="translate(86,141)"/>
<path d="M0 0 C0.66 0.33 1.32 0.66 2 1 C2.625 4.0625 2.625 4.0625 3 7 C1.35 7 -0.3 7 -2 7 C-1.34 4.69 -0.68 2.38 0 0 Z " fill="#A4DCCF" transform="translate(144,110)"/>
<path d="M0 0 C0.66 0.33 1.32 0.66 2 1 C2 3.31 2 5.62 2 8 C1.01 8 0.02 8 -1 8 C-1.04241723 5.66705225 -1.04092937 3.33297433 -1 1 C-0.67 0.67 -0.34 0.34 0 0 Z " fill="#F4F6EA" transform="translate(53,106)"/>
<path d="M0 0 C0 1.98 0 3.96 0 6 C-0.7425 5.154375 -1.485 4.30875 -2.25 3.4375 C-3.1575 2.633125 -4.065 1.82875 -5 1 C-7.27523089 1.04497842 -7.27523089 1.04497842 -9 2 C-9.33 1.34 -9.66 0.68 -10 0 C-6.7169902 -1.6415049 -3.57454967 -0.51888624 0 0 Z " fill="#43BBAC" transform="translate(118,106)"/>
<path d="M0 0 C1.65 0 3.3 0 5 0 C5 1.32 5 2.64 5 4 C2.69 4 0.38 4 -2 4 C-1.34 3.67 -0.68 3.34 0 3 C0 2.01 0 1.02 0 0 Z " fill="#89867F" transform="translate(52,81)"/>
<path d="M0 0 C0.66 0 1.32 0 2 0 C2 0.66 2 1.32 2 2 C3.32 2.33 4.64 2.66 6 3 C5.34 4.32 4.68 5.64 4 7 C3.01 6.67 2.02 6.34 1 6 C0.67 4.02 0.34 2.04 0 0 Z " fill="#B5B1AA" transform="translate(109,68)"/>
<path d="M0 0 C2.97 0 5.94 0 9 0 C9 1.32 9 2.64 9 4 C5 4 5 4 2 3 C2 2.34 2 1.68 2 1 C1.34 0.67 0.68 0.34 0 0 Z " fill="#85827B" transform="translate(199,388)"/>
<path d="M0 0 C0 1.65 0 3.3 0 5 C-0.66 5 -1.32 5 -2 5 C-2.33 4.67 -2.66 4.34 -3 4 C-3.99 4 -4.98 4 -6 4 C-5.67 3.01 -5.34 2.02 -5 1 C-2 0 -2 0 0 0 Z " fill="#8D8A83" transform="translate(115,387)"/>
<path d="M0 0 C1.98 0 3.96 0 6 0 C5.67 1.32 5.34 2.64 5 4 C3.35 4 1.7 4 0 4 C0 2.68 0 1.36 0 0 Z " fill="#5F5C58" transform="translate(63,373)"/>
<path d="M0 0 C2.97 0.495 2.97 0.495 6 1 C5.67 2.32 5.34 3.64 5 5 C3.35 5 1.7 5 0 5 C0 3.35 0 1.7 0 0 Z " fill="#918E88" transform="translate(227,339)"/>
<path d="M0 0 C2.31 0 4.62 0 7 0 C6.67 1.32 6.34 2.64 6 4 C4.35 4 2.7 4 1 4 C0.67 2.68 0.34 1.36 0 0 Z " fill="#939089" transform="translate(170,300)"/>
<path d="M0 0 C2.31 0 4.62 0 7 0 C6.67 0.66 6.34 1.32 6 2 C6.33 2.33 6.66 2.66 7 3 C7 3.33 7 3.66 7 4 C4.69 4 2.38 4 0 4 C0 2.68 0 1.36 0 0 Z " fill="#94918A" transform="translate(132,271)"/>
<path d="M0 0 C2.475 0.495 2.475 0.495 5 1 C4.34 2.65 3.68 4.3 3 6 C2.01 6 1.02 6 0 6 C0 4.02 0 2.04 0 0 Z " fill="#A7A49C" transform="translate(305,258)"/>
<path d="M0 0 C2 0 4 0 6 0 C5.67 1.32 5.34 2.64 5 4 C3.35 4.33 1.7 4.66 0 5 C0 3.35 0 1.7 0 0 Z " fill="#8A8780" transform="translate(178,259)"/>
<path d="M0 0 C0 1.98 0 3.96 0 6 C-1.65 6 -3.3 6 -5 6 C-4.6875 4.125 -4.6875 4.125 -4 2 C-1 0 -1 0 0 0 Z " fill="#97948D" transform="translate(160,258)"/>
<path d="M0 0 C1.32 0 2.64 0 4 0 C4.33 1.65 4.66 3.3 5 5 C3.35 5 1.7 5 0 5 C-0.5625 3.0625 -0.5625 3.0625 -1 1 C-0.67 0.67 -0.34 0.34 0 0 Z " fill="#928F88" transform="translate(167,230)"/>
<path d="M0 0 C0.99 0.33 1.98 0.66 3 1 C4.1875 3.5625 4.1875 3.5625 5 6 C4.01 5.67 3.02 5.34 2 5 C2 5.66 2 6.32 2 7 C1.01 7 0.02 7 -1 7 C-0.67 4.69 -0.34 2.38 0 0 Z " fill="#6B6863" transform="translate(48,180)"/>
<path d="M0 0 C0.99 0.33 1.98 0.66 3 1 C3 2.65 3 4.3 3 6 C1.68 6.33 0.36 6.66 -1 7 C-0.67 4.69 -0.34 2.38 0 0 Z " fill="#111010" transform="translate(59,143)"/>
<path d="M0 0 C0.598125 0.33 1.19625 0.66 1.8125 1 C4.05386471 2.20787988 4.05386471 2.20787988 7 2 C6.67 2.99 6.34 3.98 6 5 C4.02 5 2.04 5 0 5 C0 3.35 0 1.7 0 0 Z " fill="#A4A099" transform="translate(62,51)"/>
<path d="M0 0 C1.65 0 3.3 0 5 0 C5.33 1.32 5.66 2.64 6 4 C4.02 4 2.04 4 0 4 C0 2.68 0 1.36 0 0 Z " fill="#8C8882" transform="translate(162,399)"/>
<path d="M0 0 C0 1.65 0 3.3 0 5 C-3 5 -3 5 -6 4 C-5.67 3.01 -5.34 2.02 -5 1 C-2 0 -2 0 0 0 Z " fill="#8B8781" transform="translate(153,387)"/>
<path d="M0 0 C1.98 0 3.96 0 6 0 C6 1.32 6 2.64 6 4 C4.02 4 2.04 4 0 4 C0 2.68 0 1.36 0 0 Z " fill="#928F88" transform="translate(118,388)"/>
<path d="M0 0 C1.98 0 3.96 0 6 0 C6 1.32 6 2.64 6 4 C4.02 4 2.04 4 0 4 C0 2.68 0 1.36 0 0 Z " fill="#8D8A83" transform="translate(231,388)"/>
<path d="M0 0 C0.99 0 1.98 0 3 0 C3 0.66 3 1.32 3 2 C3.66 2 4.32 2 5 2 C4.67 3.32 4.34 4.64 4 6 C2.68 6 1.36 6 0 6 C0 4.02 0 2.04 0 0 Z " fill="#8F8C85" transform="translate(99,349)"/>
<path d="M0 0 C0.66 0 1.32 0 2 0 C2 0.66 2 1.32 2 2 C2.66 2 3.32 2 4 2 C4.33 1.34 4.66 0.68 5 0 C5.66 0 6.32 0 7 0 C7 1.32 7 2.64 7 4 C4.69 3.67 2.38 3.34 0 3 C0 2.01 0 1.02 0 0 Z " fill="#97948C" transform="translate(183,323)"/>
<path d="M0 0 C1.32 0.33 2.64 0.66 4 1 C4 2.98 4 4.96 4 7 C2.68 6.67 1.36 6.34 0 6 C0 4.02 0 2.04 0 0 Z " fill="#A19D97" transform="translate(116,320)"/>
<path d="M0 0 C1.32 0 2.64 0 4 0 C4 1.32 4 2.64 4 4 C5.32 4.33 6.64 4.66 8 5 C5.69 5 3.38 5 1 5 C0.67 3.35 0.34 1.7 0 0 Z " fill="#AFABA3" transform="translate(182,311)"/>
<path d="M0 0 C1.65 0 3.3 0 5 0 C5 1.32 5 2.64 5 4 C3.35 4 1.7 4 0 4 C0 2.68 0 1.36 0 0 Z " fill="#97938C" transform="translate(119,300)"/>
<path d="M0 0 C1.65 0 3.3 0 5 0 C5 1.32 5 2.64 5 4 C3.35 4 1.7 4 0 4 C0 2.68 0 1.36 0 0 Z " fill="#97938C" transform="translate(182,300)"/>
<path d="M0 0 C1.98 0.66 3.96 1.32 6 2 C5.67 3.32 5.34 4.64 5 6 C4.01 6 3.02 6 2 6 C2 4.68 2 3.36 2 2 C1.34 2 0.68 2 0 2 C0 1.34 0 0.68 0 0 Z " fill="#A4A098" transform="translate(153,298)"/>
<path d="M0 0 C0.99 0.66 1.98 1.32 3 2 C2.67 3.32 2.34 4.64 2 6 C0.68 5.67 -0.64 5.34 -2 5 C-1.125 1.125 -1.125 1.125 0 0 Z " fill="#8F8C87" transform="translate(190,287)"/>
<path d="M0 0 C0.99 0 1.98 0 3 0 C3.33 0.33 3.66 0.66 4 1 C4.66 0.67 5.32 0.34 6 0 C5.67 1.32 5.34 2.64 5 4 C3.02 4 1.04 4 -1 4 C-0.67 2.68 -0.34 1.36 0 0 Z " fill="#95918A" transform="translate(180,289)"/>
<path d="M0 0 C2.97 0.495 2.97 0.495 6 1 C6 1.66 6 2.32 6 3 C4.02 3.33 2.04 3.66 0 4 C0 2.68 0 1.36 0 0 Z " fill="#ACA8A0" transform="translate(111,271)"/>
<path d="M0 0 C1.98 0 3.96 0 6 0 C5.67 1.32 5.34 2.64 5 4 C3.35 4 1.7 4 0 4 C0 2.68 0 1.36 0 0 Z " fill="#89867F" transform="translate(127,242)"/>
<path d="M0 0 C1.65 0 3.3 0 5 0 C5 1.32 5 2.64 5 4 C3.35 4 1.7 4 0 4 C0 2.68 0 1.36 0 0 Z " fill="#84817B" transform="translate(116,81)"/>
<path d="M0 0 C1.98 0 3.96 0 6 0 C5.67 1.32 5.34 2.64 5 4 C3.35 4 1.7 4 0 4 C0 2.68 0 1.36 0 0 Z " fill="#8F8C85" transform="translate(133,70)"/>
<path d="M0 0 C0.99 0 1.98 0 3 0 C3 2.31 3 4.62 3 7 C2.01 6.67 1.02 6.34 0 6 C0 4.02 0 2.04 0 0 Z " fill="#B1ADA4" transform="translate(56,50)"/>
<path d="M0 0 C2.31 0.66 4.62 1.32 7 2 C6.01 3.485 6.01 3.485 5 5 C2.375 5.1875 2.375 5.1875 0 5 C0 3.35 0 1.7 0 0 Z " fill="#A5A29A" transform="translate(81,40)"/>
<path d="M0 0 C1.32 0 2.64 0 4 0 C3.67 1.65 3.34 3.3 3 5 C1.68 5 0.36 5 -1 5 C-0.67 3.35 -0.34 1.7 0 0 Z " fill="#B0ACA4" transform="translate(217,410)"/>
<path d="M0 0 C1.65 0 3.3 0 5 0 C5 1.32 5 2.64 5 4 C3.35 4 1.7 4 0 4 C0 2.68 0 1.36 0 0 Z " fill="#95928B" transform="translate(182,399)"/>
<path d="M0 0 C0.33 1.32 0.66 2.64 1 4 C1.66 4 2.32 4 3 4 C3.33 2.68 3.66 1.36 4 0 C4.66 0.33 5.32 0.66 6 1 C5.67 2.32 5.34 3.64 5 5 C3.35 5 1.7 5 0 5 C0 3.35 0 1.7 0 0 Z " fill="#828079" transform="translate(95,398)"/>
<path d="M0 0 C0.66 0 1.32 0 2 0 C2 1.98 2 3.96 2 6 C0.68 5.67 -0.64 5.34 -2 5 C-2 4.01 -2 3.02 -2 2 C-1.34 2 -0.68 2 0 2 C0 1.34 0 0.68 0 0 Z " fill="#65635E" transform="translate(97,371)"/>
<path d="M0 0 C1.65 0 3.3 0 5 0 C5.33 0.99 5.66 1.98 6 3 C2.98968256 3.93423645 2.13349732 4.04449911 -1 3 C-0.67 2.01 -0.34 1.02 0 0 Z " fill="#898680" transform="translate(252,340)"/>
<path d="M0 0 C2.31 0 4.62 0 7 0 C6.67 1.32 6.34 2.64 6 4 C4.68 4 3.36 4 2 4 C1.34 2.68 0.68 1.36 0 0 Z " fill="#8A8680" transform="translate(235,340)"/>
<path d="M0 0 C1.32 0.33 2.64 0.66 4 1 C4 2.32 4 3.64 4 5 C2.68 5 1.36 5 0 5 C0 3.35 0 1.7 0 0 Z " fill="#A9A69F" transform="translate(176,311)"/>
<path d="M0 0 C1.98 0 3.96 0 6 0 C5.67 1.65 5.34 3.3 5 5 C4.01 4.67 3.02 4.34 2 4 C2 3.34 2 2.68 2 2 C1.34 2 0.68 2 0 2 C0 1.34 0 0.68 0 0 Z " fill="#A09C95" transform="translate(199,288)"/>
<path d="M0 0 C2.31 0.33 4.62 0.66 7 1 C5 4 5 4 4 5 C3.01 4.67 2.02 4.34 1 4 C0.3125 1.9375 0.3125 1.9375 0 0 Z " fill="#918E87" transform="translate(83,288)"/>
<path d="M0 0 C1.65 0 3.3 0 5 0 C5 1.65 5 3.3 5 5 C3.35 5 1.7 5 0 5 C0 3.35 0 1.7 0 0 Z " fill="#89867F" transform="translate(249,259)"/>
<path d="M0 0 C1.65 0 3.3 0 5 0 C5 1.65 5 3.3 5 5 C3.35 5 1.7 5 0 5 C0 3.35 0 1.7 0 0 Z " fill="#87847E" transform="translate(82,259)"/>
<path d="M0 0 C1.32 0 2.64 0 4 0 C4 1.32 4 2.64 4 4 C4.99 4 5.98 4 7 4 C7 4.66 7 5.32 7 6 C2.25 4.125 2.25 4.125 0 3 C0 2.01 0 1.02 0 0 Z " fill="#99958E" transform="translate(132,230)"/>
<path d="M0 0 C1.65 0 3.3 0 5 0 C5 1.65 5 3.3 5 5 C3.35 5 1.7 5 0 5 C0 3.35 0 1.7 0 0 Z " fill="#8A8780" transform="translate(258,230)"/>
<path d="M0 0 C-0.99 0.33 -1.98 0.66 -3 1 C-3 2.32 -3 3.64 -3 5 C-3.66 5 -4.32 5 -5 5 C-5.33 4.01 -5.66 3.02 -6 2 C-6.66 1.34 -7.32 0.68 -8 0 C-4.71023192 -1.09658936 -3.28696233 -0.79953138 0 0 Z " fill="#C1BCB3" transform="translate(213,230)"/>
<path d="M0 0 C0.66 0 1.32 0 2 0 C2 1.98 2 3.96 2 6 C-0.64 6 -3.28 6 -6 6 C-6 5.67 -6 5.34 -6 5 C-4.35 4.67 -2.7 4.34 -1 4 C-0.67 2.68 -0.34 1.36 0 0 Z " fill="#48BCAD" transform="translate(187,116)"/>
<path d="M0 0 C1.32 0 2.64 0 4 0 C4 1.65 4 3.3 4 5 C2.35 5 0.7 5 -1 5 C-0.67 3.35 -0.34 1.7 0 0 Z " fill="#6C6964" transform="translate(79,69)"/>
<path d="M0 0 C2.31 0 4.62 0 7 0 C6.34 1.32 5.68 2.64 5 4 C4.67 3.67 4.34 3.34 4 3 C3.01 3 2.02 3 1 3 C0.67 2.01 0.34 1.02 0 0 Z " fill="#89857F" transform="translate(83,388)"/>
<path d="M0 0 C4.875 2.625 4.875 2.625 6 6 C3.03 5.505 3.03 5.505 0 5 C0 3.35 0 1.7 0 0 Z " fill="#B3AFA6" transform="translate(197,386)"/>
<path d="M0 0 C0.66 0 1.32 0 2 0 C2 2.64 2 5.28 2 8 C1.34 8 0.68 8 0 8 C-0.79953138 4.71303767 -1.09658936 3.28976808 0 0 Z " fill="#C4BFB6" transform="translate(155,386)"/>
<path d="M0 0 C1.65 0 3.3 0 5 0 C5 1.32 5 2.64 5 4 C4.34 4 3.68 4 3 4 C3 3.34 3 2.68 3 2 C2.34 2 1.68 2 1 2 C1 2.66 1 3.32 1 4 C0.34 4 -0.32 4 -1 4 C-0.67 2.68 -0.34 1.36 0 0 Z " fill="#8A8780" transform="translate(209,351)"/>
<path d="M0 0 C0.33 0 0.66 0 1 0 C1 1.98 1 3.96 1 6 C0.34 6 -0.32 6 -1 6 C-1.33 5.67 -1.66 5.34 -2 5 C-2.99 5.495 -2.99 5.495 -4 6 C-3.67 4.68 -3.34 3.36 -3 2 C-2.01 2 -1.02 2 0 2 C0 1.34 0 0.68 0 0 Z " fill="#9A968F" transform="translate(152,349)"/>
<path d="M0 0 C2 0 4 0 6 0 C5.67 1.32 5.34 2.64 5 4 C3.35 4 1.7 4 0 4 C-0.33 3.01 -0.66 2.02 -1 1 C-0.67 0.67 -0.34 0.34 0 0 Z " fill="#898680" transform="translate(259,340)"/>
<path d="M0 0 C1.65 0 3.3 0 5 0 C5 1.32 5 2.64 5 4 C3.35 4 1.7 4 0 4 C0 2.68 0 1.36 0 0 Z " fill="#97948D" transform="translate(274,322)"/>
<path d="M0 0 C1.65 0 3.3 0 5 0 C4.67 1.65 4.34 3.3 4 5 C2.68 4.67 1.36 4.34 0 4 C0 2.68 0 1.36 0 0 Z " fill="#8C8982" transform="translate(223,322)"/>
<path d="M0 0 C0.66 0.33 1.32 0.66 2 1 C2 2.32 2 3.64 2 5 C0.35 5 -1.3 5 -3 5 C-3 3.68 -3 2.36 -3 1 C-2.01 0.67 -1.02 0.34 0 0 Z " fill="#8D8A83" transform="translate(118,259)"/>
<path d="M0 0 C2.31 0 4.62 0 7 0 C6.67 1.32 6.34 2.64 6 4 C4.35 3.67 2.7 3.34 1 3 C0.67 2.01 0.34 1.02 0 0 Z " fill="#8A8680" transform="translate(56,260)"/>
<path d="M0 0 C2.31 0 4.62 0 7 0 C6.01 0.495 6.01 0.495 5 1 C4.67 1.99 4.34 2.98 4 4 C3.67 3.67 3.34 3.34 3 3 C2.01 3 1.02 3 0 3 C0 2.01 0 1.02 0 0 Z " fill="#8A8780" transform="translate(71,260)"/>
<path d="M0 0 C1.98 0 3.96 0 6 0 C6 1.32 6 2.64 6 4 C5.01 4 4.02 4 3 4 C3 3.01 3 2.02 3 1 C2.34 1 1.68 1 1 1 C0.67 1.99 0.34 2.98 0 4 C0 2.68 0 1.36 0 0 Z " fill="#8D8983" transform="translate(301,231)"/>
<path d="M0 0 C0.99 0 1.98 0 3 0 C3 0.99 3 1.98 3 3 C3.66 3.33 4.32 3.66 5 4 C3.35 4.33 1.7 4.66 0 5 C-0.5625 3.0625 -0.5625 3.0625 -1 1 C-0.67 0.67 -0.34 0.34 0 0 Z " fill="#8E8B85" transform="translate(63,182)"/>
<path d="M0 0 C0.66 0 1.32 0 2 0 C2 0.66 2 1.32 2 2 C2.66 2.33 3.32 2.66 4 3 C3.67 3.99 3.34 4.98 3 6 C2.01 6 1.02 6 0 6 C-1.125 2.25 -1.125 2.25 0 0 Z " fill="#BBB7AE" transform="translate(88,39)"/>
<path d="M0 0 C0.66 0 1.32 0 2 0 C4 3 4 3 4 6 C2.68 5.67 1.36 5.34 0 5 C0 3.35 0 1.7 0 0 Z " fill="#CCCAC3" transform="translate(96,410)"/>
<path d="M0 0 C1.32 0.33 2.64 0.66 4 1 C3.67 1.66 3.34 2.32 3 3 C3.66 3.33 4.32 3.66 5 4 C2.69 4 0.38 4 -2 4 C-1.34 3.67 -0.68 3.34 0 3 C0 2.01 0 1.02 0 0 Z " fill="#9C9992" transform="translate(131,388)"/>
<path d="M0 0 C1.98 0 3.96 0 6 0 C6 1.32 6 2.64 6 4 C5.01 4 4.02 4 3 4 C3 3.01 3 2.02 3 1 C2.34 1 1.68 1 1 1 C0.67 1.99 0.34 2.98 0 4 C0 2.68 0 1.36 0 0 Z " fill="#585652" transform="translate(56,373)"/>
<path d="M0 0 C1.65 0 3.3 0 5 0 C5.33 1.65 5.66 3.3 6 5 C5.01 5 4.02 5 3 5 C3 3.68 3 2.36 3 1 C2.01 0.67 1.02 0.34 0 0 Z " fill="#A19D95" transform="translate(87,372)"/>
<path d="M0 0 C0.66 0 1.32 0 2 0 C2 0.66 2 1.32 2 2 C2.99 2.33 3.98 2.66 5 3 C4.01 3 3.02 3 2 3 C2 4.32 2 5.64 2 7 C1.34 7 0.68 7 0 7 C0 4.69 0 2.38 0 0 Z " fill="#A8A49C" transform="translate(72,370)"/>
<path d="M0 0 C0.66 0 1.32 0 2 0 C2 1.98 2 3.96 2 6 C0.68 6.33 -0.64 6.66 -2 7 C-2 6.01 -2 5.02 -2 4 C-1.34 4 -0.68 4 0 4 C0 2.68 0 1.36 0 0 Z " fill="#B5B1A9" transform="translate(341,338)"/>
<path d="M0 0 C0.66 0 1.32 0 2 0 C2 1.98 2 3.96 2 6 C0.68 6.33 -0.64 6.66 -2 7 C-2 6.01 -2 5.02 -2 4 C-1.34 4 -0.68 4 0 4 C0 2.68 0 1.36 0 0 Z " fill="#B5B1A8" transform="translate(93,338)"/>
<path d="M0 0 C1.9375 0.8125 1.9375 0.8125 4 2 C4.33 2.99 4.66 3.98 5 5 C4.38125 4.814375 3.7625 4.62875 3.125 4.4375 C0.95839822 3.76313824 0.95839822 3.76313824 -1 5 C-0.67 3.35 -0.34 1.7 0 0 Z " fill="#8F8C85" transform="translate(98,288)"/>
<path d="M0 0 C0.33 0 0.66 0 1 0 C1 1.98 1 3.96 1 6 C-0.32 5.67 -1.64 5.34 -3 5 C-1.125 1.125 -1.125 1.125 0 0 Z " fill="#8C8982" transform="translate(250,229)"/>
<path d="M0 0 C0.99 0 1.98 0 3 0 C3.66 1.65 4.32 3.3 5 5 C4.01 5.33 3.02 5.66 2 6 C1.34 4.02 0.68 2.04 0 0 Z " fill="#86837C" transform="translate(96,211)"/>
<path d="M0 0 C1.65 0 3.3 0 5 0 C5 1.98 5 3.96 5 6 C4.34 6 3.68 6 3 6 C2.01 4.02 1.02 2.04 0 0 Z " fill="#42403D" transform="translate(133,134)"/>
<path d="M0 0 C0.99 0 1.98 0 3 0 C3 1.65 3 3.3 3 5 C2.01 5.33 1.02 5.66 0 6 C0 4.02 0 2.04 0 0 Z " fill="#F6F8EC" transform="translate(128,107)"/>
<path d="M0 0 C1.32 0.33 2.64 0.66 4 1 C4.33 2.65 4.66 4.3 5 6 C4.01 5.67 3.02 5.34 2 5 C0.8125 2.4375 0.8125 2.4375 0 0 Z " fill="#16AB9B" transform="translate(130,106)"/>
<path d="M0 0 C2.97 0.495 2.97 0.495 6 1 C5.67 1.99 5.34 2.98 5 4 C3.35 4 1.7 4 0 4 C0 2.68 0 1.36 0 0 Z " fill="#84817A" transform="translate(82,81)"/>
<path d="M0 0 C1.32 0.33 2.64 0.66 4 1 C3.67 2.32 3.34 3.64 3 5 C2.01 4.67 1.02 4.34 0 4 C0 2.68 0 1.36 0 0 Z " fill="#E5E2DA" transform="translate(105,50)"/>
<path d="M0 0 C0 0.66 0 1.32 0 2 C-1.98 2.33 -3.96 2.66 -6 3 C-6 2.01 -6 1.02 -6 0 C-3.50907189 -1.24546405 -2.58919267 -0.7767578 0 0 Z " fill="#A3A098" transform="translate(97,42)"/>
</svg>
