<?xml version="1.0" encoding="UTF-8"?>
<svg version="1.1" xmlns="http://www.w3.org/2000/svg" width="400" height="517">
<path d="M0 0 C132 0 264 0 400 0 C400 170.61 400 341.22 400 517 C268 517 136 517 0 517 C0 346.39 0 175.78 0 0 Z " fill="#FBFBFB" transform="translate(0,0)"/>
<path d="M0 0 C0.99 0 1.98 0 3 0 C3.99 0 4.98 0 6 0 C6.86625 -0.2784375 6.86625 -0.2784375 7.75 -0.5625 C10 -1 10 -1 13.3125 -0.5 C17.15048948 0.02040535 20.19841612 -0.40367312 24 -1 C24.66 -0.67 25.32 -0.34 26 0 C26 0.99 26 1.98 26 3 C28.99613135 2.29014897 28.99613135 2.29014897 30.375 0.375 C30.91125 -0.07875 31.4475 -0.5325 32 -1 C34.3125 -0.6875 34.3125 -0.6875 37 0 C38.99961564 0.03920815 41.00049364 0.04443347 43 0 C45.33333333 0 47.66666667 0 50 0 C50.495 1.98 50.495 1.98 51 4 C46.71 4 42.42 4 38 4 C37.34 5.32 36.68 6.64 36 8 C36.66 8 37.32 8 38 8 C38.495 9.98 38.495 9.98 39 12 C28.77 12 18.54 12 8 12 C8 11.01 8 10.02 8 9 C7.34 9 6.68 9 6 9 C6 9.99 6 10.98 6 12 C5.44014404 11.99476318 4.88028809 11.98952637 4.3034668 11.98413086 C1.76482263 11.96333309 -0.77380359 11.95033096 -3.3125 11.9375 C-4.19357422 11.92912109 -5.07464844 11.92074219 -5.98242188 11.91210938 C-6.82998047 11.90888672 -7.67753906 11.90566406 -8.55078125 11.90234375 C-9.72120972 11.89448853 -9.72120972 11.89448853 -10.9152832 11.88647461 C-13.1961555 11.91862137 -13.1961555 11.91862137 -16 13 C-16 11.35 -16 9.7 -16 8 C-12.66666667 8 -9.33333333 8 -6 8 C-4.2488427 6.5833253 -4.2488427 6.5833253 -3 5 C-5.64 4.67 -8.28 4.34 -11 4 C-11 2.68 -11 1.36 -11 0 C-6.99493545 -1.06016415 -4.04195662 -0.7908176 0 0 Z " fill="#F0F0F0" transform="translate(278,465)"/>
<path d="M0 0 C0 0.99 0 1.98 0 3 C2.99613135 2.29014897 2.99613135 2.29014897 4.375 0.375 C4.91125 -0.07875 5.4475 -0.5325 6 -1 C8.3125 -0.6875 8.3125 -0.6875 11 0 C12.99961564 0.03920815 15.00049364 0.04443347 17 0 C19.33333333 0 21.66666667 0 24 0 C24.495 1.98 24.495 1.98 25 4 C20.71 4 16.42 4 12 4 C11.34 5.32 10.68 6.64 10 8 C10.66 8 11.32 8 12 8 C12.33 9.32 12.66 10.64 13 12 C8.71 12 4.42 12 0 12 C0 10.68 0 9.36 0 8 C-0.66 8 -1.32 8 -2 8 C-2.33 8.66 -2.66 9.32 -3 10 C-5.475 9.01 -5.475 9.01 -8 8 C-8 7.34 -8 6.68 -8 6 C-8.66 6 -9.32 6 -10 6 C-10 4.02 -10 2.04 -10 0 C-6.30458414 -0.95024979 -3.69541586 -0.95024979 0 0 Z " fill="#F7F7F7" transform="translate(304,465)"/>
<path d="M0 0 C0.66 0 1.32 0 2 0 C2.66 0.66 3.32 1.32 4 2 C6.00124361 1.67421616 8.00102872 1.33944795 10 1 C12.34165499 1.26871451 14.67884289 1.59038404 17 2 C18.19700628 2 19.39077082 1.86323736 20.58203125 1.74609375 C21.64808594 1.64425781 22.71414062 1.54242188 23.8125 1.4375 C25.39998047 1.28087891 25.39998047 1.28087891 27.01953125 1.12109375 C29.66079631 1.01378154 31.51289229 1.1870229 34 2 C33.67 3.32 33.34 4.64 33 6 C28.72170263 6.07130496 25.13273734 6.06651286 21 5 C15.81710235 4.70662843 11.86521704 5.4113577 7 7 C6.34 6.34 5.68 5.68 5 5 C2.55036446 5 0.35288649 5.17493864 -2.0625 5.5 C-6 6 -6 6 -8 6 C-8.556875 6.185625 -9.11375 6.37125 -9.6875 6.5625 C-12.92810902 7.17558819 -15.77577477 6.55803898 -19 6 C-19 4.68 -19 3.36 -19 2 C-16.69 2 -14.38 2 -12 2 C-12 2.99 -12 3.98 -12 5 C-11.01 5 -10.02 5 -9 5 C-9 4.01 -9 3.02 -9 2 C-6.03 2 -3.06 2 0 2 C0 1.34 0 0.68 0 0 Z " fill="#EDB79E" transform="translate(173,86)"/>
<path d="M0 0 C1.14662109 -0.00386719 1.14662109 -0.00386719 2.31640625 -0.0078125 C4.4375 0.125 4.4375 0.125 7.4375 1.125 C8.015 0.96 8.5925 0.795 9.1875 0.625 C12.40615733 -0.09025718 15.22021155 0.56816161 18.4375 1.125 C18.1075 2.775 17.7775 4.425 17.4375 6.125 C16.51130859 5.99931641 16.51130859 5.99931641 15.56640625 5.87109375 C10.37463961 5.2468174 5.78901885 5.20584672 0.62109375 5.93359375 C-2.88067371 6.24054653 -6.10310751 5.69108241 -9.5625 5.125 C-9.2325 3.805 -8.9025 2.485 -8.5625 1.125 C-5.64174603 0.28669704 -3.03585217 -0.01027361 0 0 Z " fill="#9E9E9E" transform="translate(279.5625,415.875)"/>
<path d="M0 0 C2.37507855 -0.02719556 4.74983964 -0.04693247 7.125 -0.0625 C8.12273437 -0.07506836 8.12273437 -0.07506836 9.140625 -0.08789062 C13.21814474 -0.10787847 16.99120691 0.316683 21 1 C23.34214207 0.7355646 25.68025766 0.41755362 28 0 C28 1.32 28 2.64 28 4 C25.62543835 4.1963696 23.25079981 4.38231294 20.875 4.5625 C19.87726563 4.64661133 19.87726563 4.64661133 18.859375 4.73242188 C14.70901991 5.03759504 11.07470623 4.77831467 7 4 C5.54279072 3.93907988 4.08326541 3.91235749 2.625 3.9375 C0.830625 3.9684375 0.830625 3.9684375 -1 4 C-0.67 2.68 -0.34 1.36 0 0 Z " fill="#9F9F9F" transform="translate(212,259)"/>
<path d="M0 0 C4 0 8 0 12 0 C12.84433594 -0.01160156 13.68867188 -0.02320313 14.55859375 -0.03515625 C15.50863281 -0.04417969 16.45867187 -0.05320312 17.4375 -0.0625 C18.38496094 -0.07410156 19.33242187 -0.08570313 20.30859375 -0.09765625 C22.71715663 -0.01026282 24.70225597 0.31013359 27 1 C26.67 2.32 26.34 3.64 26 5 C25.23429687 4.83628906 24.46859375 4.67257812 23.6796875 4.50390625 C18.80984281 3.83701669 14.03309368 3.89427153 9.125 3.9375 C7.66320312 3.94426758 7.66320312 3.94426758 6.171875 3.95117188 C3.78118566 3.96289094 1.3906256 3.97929781 -1 4 C-0.67 2.68 -0.34 1.36 0 0 Z " fill="#A8A8A8" transform="translate(155,426)"/>
<path d="M0 0 C-0.33 1.32 -0.66 2.64 -1 4 C-6.28 4 -11.56 4 -17 4 C-17 3.01 -17 2.02 -17 1 C-17.66 1 -18.32 1 -19 1 C-18.67 1.99 -18.34 2.98 -18 4 C-21.3 4 -24.6 4 -28 4 C-28 3.01 -28 2.02 -28 1 C-20.96316247 -2.51841876 -7.86488753 0 0 0 Z " fill="#A9A9A9" transform="translate(269,417)"/>
<path d="M0 0 C1.32 -0.66 2.64 -1.32 4 -2 C4.99 -1.34 5.98 -0.68 7 0 C6.67 0.99 6.34 1.98 6 3 C4.86111328 2.98259766 4.86111328 2.98259766 3.69921875 2.96484375 C2.70535156 2.95582031 1.71148437 2.94679688 0.6875 2.9375 C-0.29863281 2.92589844 -1.28476562 2.91429687 -2.30078125 2.90234375 C-5.09963849 2.87670138 -5.09963849 2.87670138 -8 4 C-10.26171875 3.87890625 -10.26171875 3.87890625 -12.6875 3.5625 C-13.89986328 3.40974609 -13.89986328 3.40974609 -15.13671875 3.25390625 C-15.75160156 3.17011719 -16.36648438 3.08632813 -17 3 C-16.67 1.68 -16.34 0.36 -16 -1 C-10.49379367 -2.37655158 -4.86504849 -3.24336566 0 0 Z " fill="#A1A1A1" transform="translate(285,368)"/>
<path d="M0 0 C1.79518144 0.09306125 3.58707209 0.25135326 5.375 0.4375 C16.26871207 1.56196871 16.26871207 1.56196871 27 0 C27 1.32 27 2.64 27 4 C24.17670081 5.41164959 21.7709921 5.13206965 18.625 5.125 C17.48289062 5.12757813 16.34078125 5.13015625 15.1640625 5.1328125 C12.56763848 5.0238268 10.46375117 4.76461243 8 4 C8 3.34 8 2.68 8 2 C7.34 2 6.68 2 6 2 C6 2.66 6 3.32 6 4 C4.02 4.33 2.04 4.66 0 5 C-0.5625 3.0625 -0.5625 3.0625 -1 1 C-0.67 0.67 -0.34 0.34 0 0 Z " fill="#979797" transform="translate(270,202)"/>
<path d="M0 0 C0.33 1.32 0.66 2.64 1 4 C1.66 3.67 2.32 3.34 3 3 C3 2.01 3 1.02 3 0 C3.99 0.33 4.98 0.66 6 1 C7.010625 0.835 8.02125 0.67 9.0625 0.5 C13.86493956 -0.1098336 18.22374386 0.37533873 23 1 C23 2.32 23 3.64 23 5 C20.33333333 5 17.66666667 5 15 5 C14.2575 5.37125 13.515 5.7425 12.75 6.125 C9.1581744 7.2678536 7.45705207 6.32397739 4 5 C2.68 5 1.36 5 0 5 C0 3.35 0 1.7 0 0 Z " fill="#979797" transform="translate(203,346)"/>
<path d="M0 0 C0.99 0 1.98 0 3 0 C3.99 0 4.98 0 6 0 C6.680625 -0.20625 7.36125 -0.4125 8.0625 -0.625 C8.701875 -0.74875 9.34125 -0.8725 10 -1 C10.66 -0.34 11.32 0.32 12 1 C11.67 1.99 11.34 2.98 11 4 C9.86111328 3.98259766 9.86111328 3.98259766 8.69921875 3.96484375 C7.70535156 3.95582031 6.71148437 3.94679688 5.6875 3.9375 C4.70136719 3.92589844 3.71523438 3.91429687 2.69921875 3.90234375 C-0.09963849 3.87670138 -0.09963849 3.87670138 -3 5 C-5.04296875 4.87890625 -5.04296875 4.87890625 -7.1875 4.5625 C-8.445625 4.376875 -9.70375 4.19125 -11 4 C-11 2.68 -11 1.36 -11 0 C-6.99493545 -1.06016415 -4.04195662 -0.7908176 0 0 Z " fill="#9D9D9D" transform="translate(278,465)"/>
<path d="M0 0 C1.6396875 0.2475 1.6396875 0.2475 3.3125 0.5 C6.93549566 0.99125365 9.59725938 1.07107187 13.1875 0.4375 C17.44131337 -0.05064252 20.7890835 0.33511845 25 1 C24.34 2.32 23.68 3.64 23 5 C15.41 5 7.82 5 0 5 C0 3.35 0 1.7 0 0 Z " fill="#A0A0A0" transform="translate(154,134)"/>
<path d="M0 0 C0.66 0 1.32 0 2 0 C2.33 0.66 2.66 1.32 3 2 C3.33 1.34 3.66 0.68 4 0 C4.66 0 5.32 0 6 0 C6 0.66 6 1.32 6 2 C11.28 2 16.56 2 22 2 C22 3.32 22 4.64 22 6 C14.66666667 6 7.33333333 6 0 6 C0 4.02 0 2.04 0 0 Z " fill="#818181" transform="translate(174,46)"/>
<path d="M0 0 C0.61875 0.165 1.2375 0.33 1.875 0.5 C4.16786836 1.23577017 4.16786836 1.23577017 7 0 C10 1 10 1 11 2 C11.99 1.67 12.98 1.34 14 1 C14.66 1 15.32 1 16 1 C15.67 2.32 15.34 3.64 15 5 C14.16597656 4.98839844 13.33195312 4.97679687 12.47265625 4.96484375 C5.88254338 4.91200207 -0.46906374 5.11444932 -7 6 C-6.67 4.35 -6.34 2.7 -6 1 C-4.7934375 1.0309375 -4.7934375 1.0309375 -3.5625 1.0625 C-1.06645115 1.29633621 -1.06645115 1.29633621 0 0 Z " fill="#9D9D9D" transform="translate(269,134)"/>
<path d="M0 0 C0.61875 0.165 1.2375 0.33 1.875 0.5 C4.16786836 1.23577017 4.16786836 1.23577017 7 0 C10 1 10 1 11 2 C11.99 1.67 12.98 1.34 14 1 C14.66 1.33 15.32 1.66 16 2 C15.67 2.99 15.34 3.98 15 5 C14.44014404 4.99476318 13.88028809 4.98952637 13.3034668 4.98413086 C10.76482263 4.96333309 8.22619641 4.95033096 5.6875 4.9375 C4.80642578 4.92912109 3.92535156 4.92074219 3.01757812 4.91210938 C2.17001953 4.90888672 1.32246094 4.90566406 0.44921875 4.90234375 C-0.72120972 4.89448853 -0.72120972 4.89448853 -1.9152832 4.88647461 C-4.1961555 4.91862137 -4.1961555 4.91862137 -7 6 C-7 4.35 -7 2.7 -7 1 C-5.5459375 1.0309375 -5.5459375 1.0309375 -4.0625 1.0625 C-1.12534105 1.35618499 -1.12534105 1.35618499 0 0 Z " fill="#A4A4A4" transform="translate(269,472)"/>
<path d="M0 0 C-0.33 1.32 -0.66 2.64 -1 4 C-4.96 4 -8.92 4 -13 4 C-13 3.01 -13 2.02 -13 1 C-13.66 1 -14.32 1 -15 1 C-14.67 1.99 -14.34 2.98 -14 4 C-17.3 4 -20.6 4 -24 4 C-24 3.01 -24 2.02 -24 1 C-17.87889327 -2.06055336 -6.85081903 0 0 0 Z " fill="#AAAAAA" transform="translate(265,465)"/>
<path d="M0 0 C-0.33 1.32 -0.66 2.64 -1 4 C-4.96 4 -8.92 4 -13 4 C-13 3.01 -13 2.02 -13 1 C-13.66 1 -14.32 1 -15 1 C-14.67 1.99 -14.34 2.98 -14 4 C-17.3 4 -20.6 4 -24 4 C-24 3.01 -24 2.02 -24 1 C-17.87889327 -2.06055336 -6.85081903 0 0 0 Z " fill="#AAAAAA" transform="translate(265,300)"/>
<path d="M0 0 C0.99 0.33 1.98 0.66 3 1 C2.67 1.33 2.34 1.66 2 2 C2.66 2.33 3.32 2.66 4 3 C4 2.01 4 1.02 4 0 C7.33333333 0 10.66666667 0 14 0 C14 1.65 14 3.3 14 5 C14.66 4.67 15.32 4.34 16 4 C16 3.01 16 2.02 16 1 C16.99 1.33 17.98 1.66 19 2 C19 3.32 19 4.64 19 6 C12.73 6 6.46 6 0 6 C0.33 5.34 0.66 4.68 1 4 C0.34 3.67 -0.32 3.34 -1 3 C-0.67 2.01 -0.34 1.02 0 0 Z " fill="#525252" transform="translate(39,125)"/>
<path d="M0 0 C7.66666667 0 15.33333333 0 23 0 C23 1.32 23 2.64 23 4 C15.41 4 7.82 4 0 4 C0 2.68 0 1.36 0 0 Z " fill="#C3C3C3" transform="translate(154,405)"/>
<path d="M0 0 C1.03833984 0.10828125 1.03833984 0.10828125 2.09765625 0.21875 C10.43157759 1.00931961 18.63740393 1.1028188 27 1 C26.67 1.99 26.34 2.98 26 4 C24.12054688 3.98259766 24.12054688 3.98259766 22.203125 3.96484375 C20.55208483 3.95546284 18.90104304 3.94636296 17.25 3.9375 C16.425 3.92912109 15.6 3.92074219 14.75 3.91210938 C13.95078125 3.90888672 13.1515625 3.90566406 12.328125 3.90234375 C11.5949707 3.89710693 10.86181641 3.89187012 10.10644531 3.88647461 C7.98037593 3.93280797 7.98037593 3.93280797 5.90136719 4.53344727 C3.38442024 5.15104943 1.48366757 4.62091689 -1 4 C-0.67 2.68 -0.34 1.36 0 0 Z " fill="#939393" transform="translate(155,376)"/>
<path d="M0 0 C7.66666667 0 15.33333333 0 23 0 C23 1.32 23 2.64 23 4 C15.41 4 7.82 4 0 4 C0 2.68 0 1.36 0 0 Z " fill="#C3C3C3" transform="translate(154,288)"/>
<path d="M0 0 C0.66 -0.33 1.32 -0.66 2 -1 C2 -0.34 2 0.32 2 1 C3.2065625 0.7215625 3.2065625 0.7215625 4.4375 0.4375 C5.7059375 0.2209375 5.7059375 0.2209375 7 0 C7.33 0.33 7.66 0.66 8 1 C8.99 1 9.98 1 11 1 C11 1.99 11 2.98 11 4 C9.86111328 3.98259766 9.86111328 3.98259766 8.69921875 3.96484375 C7.70535156 3.95582031 6.71148437 3.94679687 5.6875 3.9375 C4.70136719 3.92589844 3.71523438 3.91429687 2.69921875 3.90234375 C-0.09963849 3.87670138 -0.09963849 3.87670138 -3 5 C-5.04296875 4.87890625 -5.04296875 4.87890625 -7.1875 4.5625 C-8.445625 4.376875 -9.70375 4.19125 -11 4 C-11 2.68 -11 1.36 -11 0 C-6.98980464 -1.0615223 -4.05002539 -0.72000451 0 0 Z " fill="#989898" transform="translate(278,194)"/>
<path d="M0 0 C0.66 -0.33 1.32 -0.66 2 -1 C2 -0.34 2 0.32 2 1 C3.2065625 0.7215625 3.2065625 0.7215625 4.4375 0.4375 C5.7059375 0.2209375 5.7059375 0.2209375 7 0 C7.33 0.33 7.66 0.66 8 1 C8.99 1 9.98 1 11 1 C11 1.99 11 2.98 11 4 C9.86111328 3.98259766 9.86111328 3.98259766 8.69921875 3.96484375 C7.70535156 3.95582031 6.71148437 3.94679687 5.6875 3.9375 C4.70136719 3.92589844 3.71523438 3.91429687 2.69921875 3.90234375 C-0.09963849 3.87670138 -0.09963849 3.87670138 -3 5 C-5.04296875 4.87890625 -5.04296875 4.87890625 -7.1875 4.5625 C-8.445625 4.376875 -9.70375 4.19125 -11 4 C-11 2.68 -11 1.36 -11 0 C-6.98980464 -1.0615223 -4.05002539 -0.72000451 0 0 Z " fill="#A1A1A1" transform="translate(278,126)"/>
<path d="M0 0 C0.66 0 1.32 0 2 0 C2 0.66 2 1.32 2 2 C2.66 2 3.32 2 4 2 C4.33 1.34 4.66 0.68 5 0 C10.94 0 16.88 0 23 0 C23 1.32 23 2.64 23 4 C15.41 4 7.82 4 0 4 C0 2.68 0 1.36 0 0 Z " fill="#CFCFCF" transform="translate(154,355)"/>
<path d="M0 0 C0.66 0 1.32 0 2 0 C2 0.66 2 1.32 2 2 C2.66 2 3.32 2 4 2 C4.33 1.34 4.66 0.68 5 0 C10.94 0 16.88 0 23 0 C23 1.32 23 2.64 23 4 C15.41 4 7.82 4 0 4 C0 2.68 0 1.36 0 0 Z " fill="#CFCFCF" transform="translate(154,238)"/>
<path d="M0 0 C1.299375 0.2475 1.299375 0.2475 2.625 0.5 C5.81819331 0.97306568 8.77911172 1.07320201 12 1 C14.33333333 1 16.66666667 1 19 1 C19.33 2.32 19.66 3.64 20 5 C12.74 5 5.48 5 -2 5 C-1.34 3.35 -0.68 1.7 0 0 Z " fill="#999999" transform="translate(309,249)"/>
<path d="M0 0 C0.84820312 0.16371094 1.69640625 0.32742187 2.5703125 0.49609375 C6.0645531 1.00948445 9.34627574 1.09850739 12.875 1.0625 C14.02742188 1.05347656 15.17984375 1.04445313 16.3671875 1.03515625 C17.67042969 1.01775391 17.67042969 1.01775391 19 1 C19.33 2.32 19.66 3.64 20 5 C12.74 5 5.48 5 -2 5 C-1.34 3.35 -0.68 1.7 0 0 Z " fill="#A3A3A3" transform="translate(309,125)"/>
<path d="M0 0 C0.66 0 1.32 0 2 0 C2 0.66 2 1.32 2 2 C2.99 2 3.98 2 5 2 C5.33 2.33 5.66 2.66 6 3 C6.99 2.67 7.98 2.34 9 2 C9.66 2.33 10.32 2.66 11 3 C10.67 3.66 10.34 4.32 10 5 C9.31292969 4.98839844 8.62585938 4.97679687 7.91796875 4.96484375 C7.01691406 4.95582031 6.11585938 4.94679687 5.1875 4.9375 C4.29417969 4.92589844 3.40085937 4.91429687 2.48046875 4.90234375 C-0.13413791 4.88990033 -0.13413791 4.88990033 -3 6 C-4.56118428 6.06740865 -6.1250252 6.08514456 -7.6875 6.0625 C-8.89986328 6.04896484 -8.89986328 6.04896484 -10.13671875 6.03515625 C-11.05904297 6.01775391 -11.05904297 6.01775391 -12 6 C-12 4.68 -12 3.36 -12 2 C-8.66666667 2 -5.33333333 2 -2 2 C-1.34 1.34 -0.68 0.68 0 0 Z " fill="#969696" transform="translate(331,201)"/>
<path d="M0 0 C0.66 0.66 1.32 1.32 2 2 C3.34286132 1.70740407 4.6744238 1.36295539 6 1 C8.24907152 0.93209325 10.50001605 0.91500016 12.75 0.9375 C14.50570313 0.95103516 14.50570313 0.95103516 16.296875 0.96484375 C17.18890625 0.97644531 18.0809375 0.98804688 19 1 C19.33 2.32 19.66 3.64 20 5 C12.74 5 5.48 5 -2 5 C-1.34 3.35 -0.68 1.7 0 0 Z " fill="#A3A3A3" transform="translate(309,193)"/>
<path d="M0 0 C1.299375 0.2475 1.299375 0.2475 2.625 0.5 C5.81819331 0.97306568 8.77911172 1.07320201 12 1 C14.33333333 1 16.66666667 1 19 1 C19.33 2.32 19.66 3.64 20 5 C12.74 5 5.48 5 -2 5 C-1.34 3.35 -0.68 1.7 0 0 Z " fill="#989898" transform="translate(309,464)"/>
<path d="M0 0 C1.299375 0.2475 1.299375 0.2475 2.625 0.5 C5.81819331 0.97306568 8.77911172 1.07320201 12 1 C14.33333333 1 16.66666667 1 19 1 C19.33 2.32 19.66 3.64 20 5 C12.74 5 5.48 5 -2 5 C-1.34 3.35 -0.68 1.7 0 0 Z " fill="#989898" transform="translate(309,299)"/>
<path d="M0 0 C0.66 0 1.32 0 2 0 C2 0.66 2 1.32 2 2 C2.66 2 3.32 2 4 2 C4.33 1.34 4.66 0.68 5 0 C10.94 0 16.88 0 23 0 C23 1.32 23 2.64 23 4 C15.33333333 4 7.66666667 4 0 4 C0 2.68 0 1.36 0 0 Z " fill="#C1C1C1" transform="translate(154,182)"/>
<path d="M0 0 C0.66 0.33 1.32 0.66 2 1 C1.67 2.65 1.34 4.3 1 6 C1.66 6.33 2.32 6.66 3 7 C0.03 7 -2.94 7 -6 7 C-6 6.34 -6 5.68 -6 5 C-6.66 5 -7.32 5 -8 5 C-8 5.66 -8 6.32 -8 7 C-9.65 6.67 -11.3 6.34 -13 6 C-12.67 4.68 -12.34 3.36 -12 2 C-10.68 2 -9.36 2 -8 2 C-3.66420425 1.82890456 -3.66420425 1.82890456 0 0 Z " fill="#F4845E" transform="translate(109,74)"/>
<path d="M0 0 C6.66666667 0 13.33333333 0 20 0 C19.67 1.65 19.34 3.3 19 5 C18.0925 4.835 17.185 4.67 16.25 4.5 C10.86217525 3.71126689 5.43087444 3.91974077 0 4 C0 2.68 0 1.36 0 0 Z " fill="#9B9B9B" transform="translate(212,473)"/>
<path d="M0 0 C6.66666667 0 13.33333333 0 20 0 C19.67 1.65 19.34 3.3 19 5 C18.0925 4.835 17.185 4.67 16.25 4.5 C10.86217525 3.71126689 5.43087444 3.91974077 0 4 C0 2.68 0 1.36 0 0 Z " fill="#979797" transform="translate(212,135)"/>
<path d="M0 0 C-0.33 1.32 -0.66 2.64 -1 4 C-5.27829737 4.07130496 -8.86726266 4.06651286 -13 3 C-16.69506822 2.87034848 -19.48215817 2.82738606 -23 4 C-23.33 3.01 -23.66 2.02 -24 1 C-23 0 -23 0 -20 -0.0625 C-19.01 -0.041875 -18.02 -0.02125 -17 0 C-15.88740122 0 -14.77791551 -0.13328103 -13.671875 -0.25390625 C-12.70765625 -0.35574219 -11.7434375 -0.45757812 -10.75 -0.5625 C-9.79609375 -0.66691406 -8.8421875 -0.77132812 -7.859375 -0.87890625 C-5.03715091 -0.99842667 -2.73222734 -0.6730852 0 0 Z " fill="#ECB297" transform="translate(207,88)"/>
<path d="M0 0 C1.8871875 0.2475 1.8871875 0.2475 3.8125 0.5 C9.2144509 1.11073012 14.57060338 1.09133564 20 1 C20 2.32 20 3.64 20 5 C13.33333333 5 6.66666667 5 0 5 C0 3.35 0 1.7 0 0 Z " fill="#9F9F9F" transform="translate(255,425)"/>
<path d="M0 0 C0.33 0.66 0.66 1.32 1 2 C3.12534659 1.85930804 5.25027529 1.71229079 7.375 1.5625 C8.55835938 1.48128906 9.74171875 1.40007812 10.9609375 1.31640625 C13.91518901 1.18915064 13.91518901 1.18915064 16 0 C16 1.65 16 3.3 16 5 C8.41 5 0.82 5 -7 5 C-6.67 3.68 -6.34 2.36 -6 1 C-3.03 1.495 -3.03 1.495 0 2 C0 1.34 0 0.68 0 0 Z " fill="#979797" transform="translate(204,425)"/>
<path d="M0 0 C0.66386719 0.0721875 1.32773438 0.144375 2.01171875 0.21875 C3.33623047 0.35796875 3.33623047 0.35796875 4.6875 0.5 C5.99267578 0.63921875 5.99267578 0.63921875 7.32421875 0.78125 C9.89723339 0.99159864 12.41984364 1.03719144 15 1 C14.25 3.4375 14.25 3.4375 13 6 C11.1875 6.9375 11.1875 6.9375 9 7 C7.32254318 6.36096883 5.65438613 5.69658363 4 5 C3.01 5.495 3.01 5.495 2 6 C1.34 5.67 0.68 5.34 0 5 C0 3.35 0 1.7 0 0 Z " fill="#8F8F8F" transform="translate(203,395)"/>
<path d="M0 0 C4.54523046 0.47246475 8.3448662 0.39352676 12.8125 -0.5 C12.8125 0.82 12.8125 2.14 12.8125 3.5 C10.41708732 3.69585135 8.02157226 3.88192107 5.625 4.0625 C4.61469727 4.14661133 4.61469727 4.14661133 3.58398438 4.23242188 C-0.204631 4.50963763 -3.50577794 4.46511161 -7.1875 3.5 C-7.1875 2.51 -7.1875 1.52 -7.1875 0.5 C-4.53453069 -0.82648465 -2.93136598 -0.35580718 0 0 Z " fill="#959595" transform="translate(227.1875,308.5)"/>
<path d="M0 0 C0.9075 0.185625 1.815 0.37125 2.75 0.5625 C5.8437466 1.18633615 5.8437466 1.18633615 8.1875 0.4375 C8.785625 0.293125 9.38375 0.14875 10 0 C10.99 0.66 11.98 1.32 13 2 C15.64632287 1.6878236 15.64632287 1.6878236 18 1 C18.33 2.32 18.66 3.64 19 5 C18.01 4.67 17.02 4.34 16 4 C15.67 4.33 15.34 4.66 15 5 C12.46950598 5.07313567 9.96695163 5.09247527 7.4375 5.0625 C6.72658203 5.05798828 6.01566406 5.05347656 5.28320312 5.04882812 C3.52209987 5.03700864 1.76103964 5.01907263 0 5 C0 3.35 0 1.7 0 0 Z " fill="#A1A1A1" transform="translate(327,134)"/>
<path d="M0 0 C7.33333333 0 14.66666667 0 22 0 C22 1.32 22 2.64 22 4 C20.68 4 19.36 4 18 4 C18 3.01 18 2.02 18 1 C17.34 1 16.68 1 16 1 C15.67 1.99 15.34 2.98 15 4 C10.05 4 5.1 4 0 4 C0 2.68 0 1.36 0 0 Z " fill="#BBBBBB" transform="translate(197,405)"/>
<path d="M0 0 C3 0 3 0 5.625 0.5 C9.77842401 1.11532208 13.81071215 1.08378576 18 1 C18.33 2.32 18.66 3.64 19 5 C12.66666667 5 6.33333333 5 0 5 C0 3.35 0 1.7 0 0 Z " fill="#787878" transform="translate(178,395)"/>
<path d="M0 0 C7.33333333 0 14.66666667 0 22 0 C22 1.32 22 2.64 22 4 C20.68 4 19.36 4 18 4 C18 3.01 18 2.02 18 1 C17.34 1 16.68 1 16 1 C15.67 1.99 15.34 2.98 15 4 C10.05 4 5.1 4 0 4 C0 2.68 0 1.36 0 0 Z " fill="#BBBBBB" transform="translate(197,238)"/>
<path d="M0 0 C1.97909398 -0.02686553 3.95828971 -0.04633375 5.9375 -0.0625 C7.03964844 -0.07410156 8.14179687 -0.08570313 9.27734375 -0.09765625 C12 0 12 0 13 1 C13.04092937 3.33297433 13.04241723 5.66705225 13 8 C12.01 8 11.02 8 10 8 C10 6.02 10 4.04 10 2 C9.01 2.495 9.01 2.495 8 3 C7.34444881 5.52733235 7.34444881 5.52733235 7 8 C6.34 8 5.68 8 5 8 C5 6.02 5 4.04 5 2 C4.01 2.495 4.01 2.495 3 3 C2.34444881 5.52733235 2.34444881 5.52733235 2 8 C1.34 8 0.68 8 0 8 C0 5.36 0 2.72 0 0 Z " fill="#161616" transform="translate(60,57)"/>
<path d="M0 0 C0.33 0.66 0.66 1.32 1 2 C5.29 2 9.58 2 14 2 C13.67 3.32 13.34 4.64 13 6 C8.05 6 3.1 6 -2 6 C-2.33 5.34 -2.66 4.68 -3 4 C-3.66 4.66 -4.32 5.32 -5 6 C-5 4.35 -5 2.7 -5 1 C-2 0 -2 0 0 0 Z " fill="#737373" transform="translate(183,345)"/>
<path d="M0 0 C0.99 0 1.98 0 3 0 C3.99 0 4.98 0 6 0 C6 0.99 6 1.98 6 3 C5.2575 3.144375 4.515 3.28875 3.75 3.4375 C1.12921046 3.91152838 1.12921046 3.91152838 -0.8125 4.625 C-4.29656071 5.22226755 -7.51556289 4.52266557 -11 4 C-11 2.68 -11 1.36 -11 0 C-6.99493545 -1.06016415 -4.04195662 -0.7908176 0 0 Z " fill="#A1A1A1" transform="translate(278,300)"/>
<path d="M0 0 C0.99 0 1.98 0 3 0 C3.99 0 4.98 0 6 0 C6 0.99 6 1.98 6 3 C5.2575 3.144375 4.515 3.28875 3.75 3.4375 C1.12921046 3.91152838 1.12921046 3.91152838 -0.8125 4.625 C-4.29656071 5.22226755 -7.51556289 4.52266557 -11 4 C-11 2.68 -11 1.36 -11 0 C-6.99493545 -1.06016415 -4.04195662 -0.7908176 0 0 Z " fill="#A8A8A8" transform="translate(278,250)"/>
<path d="M0 0 C0.66 0.99 1.32 1.98 2 3 C2.33 2.01 2.66 1.02 3 0 C8.66666667 0 14.33333333 0 20 0 C20 1.32 20 2.64 20 4 C13.07 4 6.14 4 -1 4 C-0.67 2.68 -0.34 1.36 0 0 Z " fill="#989898" transform="translate(233,126)"/>
<path d="M0 0 C3.76687864 1.88343932 4.79421646 2.69132469 7 6 C7.33 4.02 7.66 2.04 8 0 C8.66 0 9.32 0 10 0 C10 3.63 10 7.26 10 11 C9.01 11 8.02 11 7 11 C4 7.66666667 4 7.66666667 4 5 C3.34 5 2.68 5 2 5 C2 6.98 2 8.96 2 11 C1.34 11 0.68 11 0 11 C0 7.37 0 3.74 0 0 Z " fill="#1C1C1C" transform="translate(39,54)"/>
<path d="M0 0 C4.33333333 0 8.66666667 0 13 0 C13 1.65 13 3.3 13 5 C8.61414671 5.70173653 4.44209357 6.10834375 0 6 C0 4.02 0 2.04 0 0 Z " fill="#A2A2A2" transform="translate(193,64)"/>
<path d="M0 0 C1.1446875 0.2475 1.1446875 0.2475 2.3125 0.5 C7.22145849 1.16562149 12.05435114 1.07920078 17 1 C16.67 2.32 16.34 3.64 16 5 C14.86111328 4.98259766 14.86111328 4.98259766 13.69921875 4.96484375 C12.70535156 4.95582031 11.71148437 4.94679688 10.6875 4.9375 C9.70136719 4.92589844 8.71523437 4.91429687 7.69921875 4.90234375 C4.90036151 4.87670138 4.90036151 4.87670138 2 6 C1.34 5.67 0.68 5.34 0 5 C0 3.35 0 1.7 0 0 Z " fill="#A4A4A4" transform="translate(173,416)"/>
<path d="M0 0 C0.9075 0.185625 1.815 0.37125 2.75 0.5625 C5.68314324 0.95734621 7.2644657 0.94691572 10 0 C10.33 0.66 10.66 1.32 11 2 C12.423125 1.9071875 12.423125 1.9071875 13.875 1.8125 C14.90625 1.874375 15.9375 1.93625 17 2 C17.99 3.485 17.99 3.485 19 5 C12.73 5 6.46 5 0 5 C0 3.35 0 1.7 0 0 Z " fill="#919191" transform="translate(327,307)"/>
<path d="M0 0 C0.78375 0.165 1.5675 0.33 2.375 0.5 C6.93966142 1.12960847 11.40072601 1.08180527 16 1 C16.33 2.32 16.66 3.64 17 5 C16.16855469 4.98839844 15.33710938 4.97679687 14.48046875 4.96484375 C12.85044922 4.95130859 12.85044922 4.95130859 11.1875 4.9375 C9.56908203 4.92009766 9.56908203 4.92009766 7.91796875 4.90234375 C4.93487831 4.86375234 4.93487831 4.86375234 2 6 C1.34 5.67 0.68 5.34 0 5 C0 3.35 0 1.7 0 0 Z " fill="#A5A5A5" transform="translate(173,249)"/>
<path d="M0 0 C2.12493141 -0.02693575 4.24995912 -0.04636628 6.375 -0.0625 C7.55835938 -0.07410156 8.74171875 -0.08570313 9.9609375 -0.09765625 C13 0 13 0 15 1 C14.67 2.65 14.34 4.3 14 6 C13.319375 5.649375 12.63875 5.29875 11.9375 4.9375 C7.76607862 3.60619531 3.93041265 4.03479368 0 6 C0 4.02 0 2.04 0 0 Z " fill="#7B7B7B" transform="translate(170,229)"/>
<path d="M0 0 C0.7425 0.185625 1.485 0.37125 2.25 0.5625 C5.02182892 1.00347278 6.36581285 0.76476401 9 0 C12.11257569 0 14.10765685 0.17361624 17 1 C17 2.32 17 3.64 17 5 C11.39 5 5.78 5 0 5 C0 3.35 0 1.7 0 0 Z " fill="#A8A8A8" transform="translate(287,134)"/>
<path d="M0 0 C3.96 0.33 7.92 0.66 12 1 C12 1.66 12 2.32 12 3 C12.66 3 13.32 3 14 3 C14 2.34 14 1.68 14 1 C15.32 0.67 16.64 0.34 18 0 C18 1.65 18 3.3 18 5 C12.06 5 6.12 5 0 5 C0 3.35 0 1.7 0 0 Z " fill="#929292" transform="translate(222,202)"/>
<path d="M0 0 C0.66 0.99 1.32 1.98 2 3 C2.33 2.01 2.66 1.02 3 0 C14 0 14 0 17 2 C17.33 2.33 17.66 2.66 18 3 C18 2.01 18 1.02 18 0 C18.66 0 19.32 0 20 0 C20 1.32 20 2.64 20 4 C13.07 4 6.14 4 -1 4 C-0.67 2.68 -0.34 1.36 0 0 Z " fill="#969696" transform="translate(233,194)"/>
<path d="M0 0 C2.475 0.99 2.475 0.99 5 2 C5.33 1.34 5.66 0.68 6 0 C6.53625 0.144375 7.0725 0.28875 7.625 0.4375 C10.39915827 1.09453748 13.18525388 1.55219948 16 2 C16.33 2.99 16.66 3.98 17 5 C16.195625 4.814375 15.39125 4.62875 14.5625 4.4375 C13.716875 4.293125 12.87125 4.14875 12 4 C11.67 4.33 11.34 4.66 11 5 C8.81360547 5.07258946 6.62499611 5.08373783 4.4375 5.0625 C2.64119141 5.04896484 2.64119141 5.04896484 0.80859375 5.03515625 C-0.11824219 5.02355469 -1.04507812 5.01195312 -2 5 C-1.125 1.125 -1.125 1.125 0 0 Z " fill="#9B9B9B" transform="translate(279,425)"/>
<path d="M0 0 C1.6396875 0.2475 1.6396875 0.2475 3.3125 0.5 C6.87525873 1.06718184 6.87525873 1.06718184 10 1 C12 1 14 1 16 1 C16 2.32 16 3.64 16 5 C13.5211787 5.19389096 11.04219069 5.38040123 8.5625 5.5625 C7.50192383 5.64661133 7.50192383 5.64661133 6.41992188 5.73242188 C4.61572163 5.86190993 2.80768048 5.93521608 1 6 C0 5 0 5 -0.0625 2.4375 C-0.041875 1.633125 -0.02125 0.82875 0 0 Z " fill="#9C9C9C" transform="translate(172,366)"/>
<path d="M0 0 C2.43816585 -0.0809723 4.87364384 -0.14046972 7.3125 -0.1875 C8.34793945 -0.22520508 8.34793945 -0.22520508 9.40429688 -0.26367188 C14.55674183 -0.33834499 14.55674183 -0.33834499 16.98046875 1.51171875 C17.31691406 2.00285156 17.65335938 2.49398438 18 3 C14.38132441 4.2062252 11.07493749 4.10816918 7.3125 4.0625 C6.61060547 4.05798828 5.90871094 4.05347656 5.18554688 4.04882812 C3.45699462 4.03706927 1.72848635 4.01913454 0 4 C0 2.68 0 1.36 0 0 Z " fill="#A2A2A2" transform="translate(231,367)"/>
<path d="M0 0 C0.70511719 0.16371094 1.41023437 0.32742187 2.13671875 0.49609375 C5.09658688 1.01699824 7.81061273 1.09866732 10.8125 1.0625 C11.78832031 1.05347656 12.76414063 1.04445312 13.76953125 1.03515625 C14.87361328 1.01775391 14.87361328 1.01775391 16 1 C16 2.65 16 4.3 16 6 C14.8553125 5.7525 14.8553125 5.7525 13.6875 5.5 C10.52888574 4.91235084 8.16125151 4.96976534 5 5.5625 C2 6 2 6 -1 5 C-0.67 3.35 -0.34 1.7 0 0 Z " fill="#ACACAC" transform="translate(182,56)"/>
<path d="M0 0 C0.70511719 0.16371094 1.41023437 0.32742188 2.13671875 0.49609375 C5.09658688 1.01699824 7.81061273 1.09866732 10.8125 1.0625 C11.78832031 1.05347656 12.76414063 1.04445313 13.76953125 1.03515625 C14.50558594 1.02355469 15.24164063 1.01195312 16 1 C15.67 2.32 15.34 3.64 15 5 C13.86111328 4.98259766 13.86111328 4.98259766 12.69921875 4.96484375 C11.70535156 4.95582031 10.71148437 4.94679688 9.6875 4.9375 C8.70136719 4.92589844 7.71523437 4.91429687 6.69921875 4.90234375 C3.90036151 4.87670138 3.90036151 4.87670138 1 6 C0 5 0 5 -0.0625 2.4375 C-0.041875 1.633125 -0.02125 0.82875 0 0 Z " fill="#A4A4A4" transform="translate(174,464)"/>
<path d="M0 0 C1.11375 0.2475 1.11375 0.2475 2.25 0.5 C7.50409401 1.20054587 12.70751749 1.07707499 18 1 C17.67 1.99 17.34 2.98 17 4 C13.51451619 5.51867509 9.95209205 4.89568828 6.25 4.5625 C5.07953125 4.46066406 3.9090625 4.35882813 2.703125 4.25390625 C1.81109375 4.17011719 0.9190625 4.08632813 0 4 C0 2.68 0 1.36 0 0 Z " fill="#A8A8A8" transform="translate(250,376)"/>
<path d="M0 0 C0.70511719 0.16371094 1.41023437 0.32742188 2.13671875 0.49609375 C5.09658688 1.01699824 7.81061273 1.09866732 10.8125 1.0625 C11.78832031 1.05347656 12.76414063 1.04445313 13.76953125 1.03515625 C14.50558594 1.02355469 15.24164063 1.01195312 16 1 C15.67 2.32 15.34 3.64 15 5 C13.86111328 4.98259766 13.86111328 4.98259766 12.69921875 4.96484375 C11.70535156 4.95582031 10.71148437 4.94679688 9.6875 4.9375 C8.70136719 4.92589844 7.71523437 4.91429687 6.69921875 4.90234375 C3.90036151 4.87670138 3.90036151 4.87670138 1 6 C0 5 0 5 -0.0625 2.4375 C-0.041875 1.633125 -0.02125 0.82875 0 0 Z " fill="#A4A4A4" transform="translate(174,299)"/>
<path d="M0 0 C0.99 0.33 1.98 0.66 3 1 C3.639375 0.835 4.27875 0.67 4.9375 0.5 C7.33943521 -0.08228732 8.66373973 0.29912192 11 1 C11.66 1 12.32 1 13 1 C12.34 2.32 11.68 3.64 11 5 C6.71 5 2.42 5 -2 5 C-1 1 -1 1 0 0 Z " fill="#A5A5A5" transform="translate(193,193)"/>
<path d="M0 0 C4.62 0 9.24 0 14 0 C14 1.32 14 2.64 14 4 C12.22932584 4.16834933 10.45845388 4.33461909 8.6875 4.5 C7.70136719 4.5928125 6.71523437 4.685625 5.69921875 4.78125 C3 5 3 5 0 5 C0 3.35 0 1.7 0 0 Z " fill="#CBCBCB" transform="translate(178,182)"/>
<path d="M0 0 C0.99 0.33 1.98 0.66 3 1 C3.639375 0.835 4.27875 0.67 4.9375 0.5 C7.33943521 -0.08228732 8.66373973 0.29912192 11 1 C11.66 1 12.32 1 13 1 C12.34 2.32 11.68 3.64 11 5 C6.71 5 2.42 5 -2 5 C-1 1 -1 1 0 0 Z " fill="#9B9B9B" transform="translate(193,125)"/>
<path d="M0 0 C0.99 0 1.98 0 3 0 C3 0.66 3 1.32 3 2 C4.093125 1.814375 5.18625 1.62875 6.3125 1.4375 C10 1 10 1 13 2 C13 2.99 13 3.98 13 5 C10.35541621 6.32229189 8.32238699 6.09677194 5.375 6.0625 C4.37210937 6.05347656 3.36921875 6.04445313 2.3359375 6.03515625 C1.56507813 6.02355469 0.79421875 6.01195312 0 6 C0 4.02 0 2.04 0 0 Z " fill="#A7A7A7" transform="translate(327,471)"/>
<path d="M0 0 C6.33333333 0 12.66666667 0 19 0 C18.67 1.32 18.34 2.64 18 4 C18 3.01 18 2.02 18 1 C17.34 1 16.68 1 16 1 C15.67 1.99 15.34 2.98 15 4 C10.05 4 5.1 4 0 4 C0 2.68 0 1.36 0 0 Z " fill="#B7B7B7" transform="translate(197,355)"/>
<path d="M0 0 C1.32 0 2.64 0 4 0 C4.99 0.33 5.98 0.66 7 1 C6.01 2.485 6.01 2.485 5 4 C3.0546875 4.29296875 3.0546875 4.29296875 0.875 4.1875 C-0.40375 4.125625 -1.6825 4.06375 -3 4 C-3 4.66 -3 5.32 -3 6 C-3.66 6 -4.32 6 -5 6 C-5 5.34 -5 4.68 -5 4 C-5.99 3.67 -6.98 3.34 -8 3 C-8.33 2.01 -8.66 1.02 -9 0 C-3.375 -1.125 -3.375 -1.125 0 0 Z " fill="#666666" transform="translate(52,174)"/>
<path d="M0 0 C3 0.125 3 0.125 4 1.125 C4.1875 3.5625 4.1875 3.5625 4 6.125 C3.34 6.785 2.68 7.445 2 8.125 C-2.55555556 7.56944444 -2.55555556 7.56944444 -4 6.125 C-4.125 3.625 -4.125 3.625 -4 1.125 C-3 0.125 -3 0.125 0 0 Z " fill="#585858" transform="translate(53,38.875)"/>
<path d="M0 0 C0.33 0.66 0.66 1.32 1 2 C5.455 1.505 5.455 1.505 10 1 C10 2.32 10 3.64 10 5 C4.06 5 -1.88 5 -8 5 C-8 4.01 -8 3.02 -8 2 C-7.01 2.33 -6.02 2.66 -5 3 C-4.67 2.67 -4.34 2.34 -4 2 C-2.67479497 1.31731862 -1.34187818 0.6492959 0 0 Z " fill="#9C9C9C" transform="translate(236,425)"/>
<path d="M0 0 C0.99 0.33 1.98 0.66 3 1 C3.639375 0.835 4.27875 0.67 4.9375 0.5 C8.05948167 -0.25684404 10.188435 0.5942175 13 2 C12.01 3.485 12.01 3.485 11 5 C8.1796875 5.29296875 8.1796875 5.29296875 4.875 5.1875 C3.23144531 5.14689453 3.23144531 5.14689453 1.5546875 5.10546875 C0.29011719 5.05326172 0.29011719 5.05326172 -1 5 C-1 1 -1 1 0 0 Z " fill="#A1A1A1" transform="translate(193,249)"/>
<path d="M0 0 C3.66666667 0 7.33333333 0 11 0 C10.67 0.66 10.34 1.32 10 2 C10.66 2 11.32 2 12 2 C12.33 1.34 12.66 0.68 13 0 C13.66 0 14.32 0 15 0 C15.33 1.32 15.66 2.64 16 4 C14.27185839 4.19672365 12.54240803 4.38196799 10.8125 4.5625 C9.84957031 4.66691406 8.88664063 4.77132812 7.89453125 4.87890625 C5.05766623 4.99758751 2.74576329 4.67765639 0 4 C0 2.68 0 1.36 0 0 Z " fill="#C3C3C3" transform="translate(225,182)"/>
<path d="M0 0 C4.455 0.99 4.455 0.99 9 2 C9 2.66 9 3.32 9 4 C9.66 4 10.32 4 11 4 C11 3.34 11 2.68 11 2 C12.65 1.67 14.3 1.34 16 1 C16.33 2.32 16.66 3.64 17 5 C14.54203147 5.19436491 12.08390706 5.3807742 9.625 5.5625 C8.92632812 5.61857422 8.22765625 5.67464844 7.5078125 5.73242188 C2.2265625 6.11328125 2.2265625 6.11328125 0 5 C0 3.35 0 1.7 0 0 Z " fill="#A0A0A0" transform="translate(173,125)"/>
<path d="M0 0 C1.2065625 0.0309375 1.2065625 0.0309375 2.4375 0.0625 C2.4375 0.7225 2.4375 1.3825 2.4375 2.0625 C3.7575 2.3925 5.0775 2.7225 6.4375 3.0625 C5.7775 3.0625 5.1175 3.0625 4.4375 3.0625 C4.4375 4.3825 4.4375 5.7025 4.4375 7.0625 C1.0625 7.1875 1.0625 7.1875 -2.5625 7.0625 C-3.2225 6.4025 -3.8825 5.7425 -4.5625 5.0625 C-3.80953264 0.09291543 -3.80953264 0.09291543 0 0 Z " fill="#F7A78C" transform="translate(42.5625,73.9375)"/>
<path d="M0 0 C0 1.98 0 3.96 0 6 C-0.804375 5.814375 -1.60875 5.62875 -2.4375 5.4375 C-3.283125 5.293125 -4.12875 5.14875 -5 5 C-5.33 5.33 -5.66 5.66 -6 6 C-7.99958364 6.04080783 -10.00045254 6.04254356 -12 6 C-11.67 4.35 -11.34 2.7 -11 1 C-9.35422741 0.83273455 -7.70838013 0.66620388 -6.0625 0.5 C-4.68771484 0.36078125 -4.68771484 0.36078125 -3.28515625 0.21875 C-1 0 -1 0 0 0 Z " fill="#757575" transform="translate(62,464)"/>
<path d="M0 0 C4.04352289 0.46656033 8.01928836 1.15560662 12 2 C12 2.99 12 3.98 12 5 C7.38 5 2.76 5 -2 5 C-1 1 -1 1 0 0 Z " fill="#9C9C9C" transform="translate(322,366)"/>
<path d="M0 0 C0.33 0.66 0.66 1.32 1 2 C4.63 2 8.26 2 12 2 C12 1.34 12 0.68 12 0 C12.66 0 13.32 0 14 0 C14 1.98 14 3.96 14 6 C9.38 6 4.76 6 0 6 C0 4.02 0 2.04 0 0 Z " fill="#666666" transform="translate(162,345)"/>
<path d="M0 0 C5.28 0 10.56 0 16 0 C15.34 1.65 14.68 3.3 14 5 C12.948125 4.7525 12.948125 4.7525 11.875 4.5 C7.62282738 3.76049172 4.11179668 3.62940111 0 5 C0 3.35 0 1.7 0 0 Z " fill="#6C6C6C" transform="translate(170,174)"/>
<path d="M0 0 C0.59167969 0.08378906 1.18335938 0.16757812 1.79296875 0.25390625 C6.09939457 0.80889424 9.75552644 1.23226652 14 0 C14 1.65 14 3.3 14 5 C9.38 5 4.76 5 0 5 C0 3.35 0 1.7 0 0 Z " fill="#727272" transform="translate(162,395)"/>
<path d="M0 0 C3.96 0 7.92 0 12 0 C12.33 0.99 12.66 1.98 13 3 C12.67 3.66 12.34 4.32 12 5 C10.948125 4.814375 9.89625 4.62875 8.8125 4.4375 C5.42880118 4.04920669 3.23574112 4.11752515 0 5 C-0.33 4.01 -0.66 3.02 -1 2 C-0.67 1.34 -0.34 0.68 0 0 Z " fill="#757575" transform="translate(194,229)"/>
<path d="M0 0 C4.29 0 8.58 0 13 0 C13 0.99 13 1.98 13 3 C13.66 3.33 14.32 3.66 15 4 C9.72 4 4.44 4 -1 4 C-0.67 2.68 -0.34 1.36 0 0 Z " fill="#9A9A9A" transform="translate(216,465)"/>
<path d="M0 0 C1.671549 0.30791692 3.33805547 0.64386903 5 1 C5.99 1 6.98 1 8 1 C9.66666667 1 11.33333333 1 13 1 C12.34 2.32 11.68 3.64 11 5 C7.04 5 3.08 5 -1 5 C-1 1 -1 1 0 0 Z " fill="#9F9F9F" transform="translate(193,464)"/>
<path d="M0 0 C4.29 0 8.58 0 13 0 C13 0.99 13 1.98 13 3 C13.66 3.33 14.32 3.66 15 4 C9.72 4 4.44 4 -1 4 C-0.67 2.68 -0.34 1.36 0 0 Z " fill="#9A9A9A" transform="translate(216,417)"/>
<path d="M0 0 C1.671549 0.30791692 3.33805547 0.64386903 5 1 C5.99 1 6.98 1 8 1 C9.66666667 1 11.33333333 1 13 1 C12.34 2.32 11.68 3.64 11 5 C7.04 5 3.08 5 -1 5 C-1 1 -1 1 0 0 Z " fill="#9F9F9F" transform="translate(193,416)"/>
<path d="M0 0 C4.29 0 8.58 0 13 0 C13 0.99 13 1.98 13 3 C13.66 3.33 14.32 3.66 15 4 C9.72 4 4.44 4 -1 4 C-0.67 2.68 -0.34 1.36 0 0 Z " fill="#9A9A9A" transform="translate(216,300)"/>
<path d="M0 0 C1.671549 0.30791692 3.33805547 0.64386903 5 1 C5.99 1 6.98 1 8 1 C9.66666667 1 11.33333333 1 13 1 C12.34 2.32 11.68 3.64 11 5 C7.04 5 3.08 5 -1 5 C-1 1 -1 1 0 0 Z " fill="#9F9F9F" transform="translate(193,299)"/>
<path d="M0 0 C0.33 0.66 0.66 1.32 1 2 C1.56847656 1.91621094 2.13695312 1.83242187 2.72265625 1.74609375 C7.76635545 1.08089803 12.00294069 1.0431163 17 2 C17 2.66 17 3.32 17 4 C17.66 4.33 18.32 4.66 19 5 C13.39 5 7.78 5 2 5 C2 4.34 2 3.68 2 3 C1.34 3 0.68 3 0 3 C-0.33 3.66 -0.66 4.32 -1 5 C-0.67 3.35 -0.34 1.7 0 0 Z " fill="#949494" transform="translate(176,209)"/>
<path d="M0 0 C3.63 0 7.26 0 11 0 C11.33 0.66 11.66 1.32 12 2 C11.34 2 10.68 2 10 2 C10 2.66 10 3.32 10 4 C10.66 4.33 11.32 4.66 12 5 C7.71 5 3.42 5 -1 5 C-0.67 3.35 -0.34 1.7 0 0 Z " fill="#6A6A6A" transform="translate(63,173)"/>
<path d="M0 0 C1.00289063 0.10183594 2.00578125 0.20367187 3.0390625 0.30859375 C3.80992187 0.39238281 4.58078125 0.47617187 5.375 0.5625 C5.045 1.8825 4.715 3.2025 4.375 4.5625 C0.415 4.5625 -3.545 4.5625 -7.625 4.5625 C-7.625 3.2425 -7.625 1.9225 -7.625 0.5625 C-4.89657939 -0.80171031 -3.01546682 -0.31557211 0 0 Z " fill="#ACACAC" transform="translate(329.625,416.4375)"/>
<path d="M0 0 C2.97 0.495 2.97 0.495 6 1 C6 3.31 6 5.62 6 8 C3.69 8 1.38 8 -1 8 C-1 4.88742431 -0.82638376 2.89234315 0 0 Z " fill="#404040" transform="translate(52,57)"/>
<path d="M0 0 C0.66 -0.33 1.32 -0.66 2 -1 C2.99 -0.34 3.98 0.32 5 1 C5 1.99 5 2.98 5 4 C0.71 4 -3.58 4 -8 4 C-7.67 2.68 -7.34 1.36 -7 0 C-3.7807732 -1.0730756 -3.09793558 -0.79946725 0 0 Z " fill="#9A9A9A" transform="translate(191,426)"/>
<path d="M0 0 C4.29 0 8.58 0 13 0 C13 0.66 13 1.32 13 2 C13.99 2.33 14.98 2.66 16 3 C10.29014022 3.74016701 4.75813575 4.10469338 -1 4 C-0.34 3.34 0.32 2.68 1 2 C0.67 1.34 0.34 0.68 0 0 Z " fill="#C6C6C6" transform="translate(179,405)"/>
<path d="M0 0 C0.99 0 1.98 0 3 0 C4.66666667 0 6.33333333 0 8 0 C7.67 1.32 7.34 2.64 7 4 C2.71 4 -1.58 4 -6 4 C-6 2.68 -6 1.36 -6 0 C-3.47064411 -1.26467795 -2.65809097 -0.7249339 0 0 Z " fill="#989898" transform="translate(196,367)"/>
<path d="M0 0 C4.29 0 8.58 0 13 0 C13 0.66 13 1.32 13 2 C13.99 2.33 14.98 2.66 16 3 C10.29014022 3.74016701 4.75813575 4.10469338 -1 4 C-0.34 3.34 0.32 2.68 1 2 C0.67 1.34 0.34 0.68 0 0 Z " fill="#C6C6C6" transform="translate(179,355)"/>
<path d="M0 0 C7 0 7 0 10 1 C10 2.32 10 3.64 10 5 C6.04 5 2.08 5 -2 5 C-2.33 3.68 -2.66 2.36 -3 1 C-2.67 1.66 -2.34 2.32 -2 3 C-1.34 3 -0.68 3 0 3 C0 2.01 0 1.02 0 0 Z " fill="#5F5F5F" transform="translate(51,346)"/>
<path d="M0 0 C3.63 0.66 7.26 1.32 11 2 C10.67 2.99 10.34 3.98 10 5 C5.38 5 0.76 5 -4 5 C-3.67 3.68 -3.34 2.36 -3 1 C-2.34 1.33 -1.68 1.66 -1 2 C-0.67 1.34 -0.34 0.68 0 0 Z " fill="#A2A2A2" transform="translate(274,307)"/>
<path d="M0 0 C4.29 0 8.58 0 13 0 C13 0.66 13 1.32 13 2 C13.99 2.33 14.98 2.66 16 3 C10.29014022 3.74016701 4.75813575 4.10469338 -1 4 C-0.34 3.34 0.32 2.68 1 2 C0.67 1.34 0.34 0.68 0 0 Z " fill="#C6C6C6" transform="translate(179,288)"/>
<path d="M0 0 C4.29 0 8.58 0 13 0 C13 0.66 13 1.32 13 2 C13.99 2.33 14.98 2.66 16 3 C10.29014022 3.74016701 4.75813575 4.10469338 -1 4 C-0.34 3.34 0.32 2.68 1 2 C0.67 1.34 0.34 0.68 0 0 Z " fill="#C6C6C6" transform="translate(179,238)"/>
<path d="M0 0 C4.05606165 0.46800711 7.46588679 0.87953208 11 3 C9.9375 4.5 9.9375 4.5 8 6 C4.4375 6.3125 4.4375 6.3125 1 6 C0.34 5.34 -0.32 4.68 -1 4 C-0.625 1.875 -0.625 1.875 0 0 Z " fill="#9A9A9A" transform="translate(170,64)"/>
<path d="M0 0 C2.00720923 0.28674418 4.0085944 0.61866701 6 1 C6.33 2.32 6.66 3.64 7 5 C6.01 5.33 5.02 5.66 4 6 C4.66 6.33 5.32 6.66 6 7 C5 8 5 8 2.5625 8.1875 C0 8 0 8 -2 6 C-1.44444444 1.44444444 -1.44444444 1.44444444 0 0 Z " fill="#595959" transform="translate(76,57)"/>
<path d="M0 0 C0.66 0 1.32 0 2 0 C2 2.31 2 4.62 2 7 C2.99 7 3.98 7 5 7 C5 4.69 5 2.38 5 0 C5.99 0 6.98 0 8 0 C8 2.97 8 5.94 8 9 C5.66705225 9.04241723 3.33297433 9.04092937 1 9 C0 8 0 8 -0.09765625 6.15234375 C-0.06510417 4.1015625 -0.03255208 2.05078125 0 0 Z " fill="#3A3A3A" transform="translate(59,38)"/>
<path d="M0 0 C0.33 0.66 0.66 1.32 1 2 C1.99 2 2.98 2 4 2 C4 1.34 4 0.68 4 0 C4.66 0 5.32 0 6 0 C6.33 1.98 6.66 3.96 7 6 C3.37 6 -0.26 6 -4 6 C-4 4.68 -4 3.36 -4 2 C-2.68 2 -1.36 2 0 2 C0 1.34 0 0.68 0 0 Z " fill="#C0C0C0" transform="translate(185,471)"/>
<path d="M0 0 C4.29 0 8.58 0 13 0 C13.33 1.32 13.66 2.64 14 4 C9.38 4 4.76 4 0 4 C0 2.68 0 1.36 0 0 Z " fill="#C5C5C5" transform="translate(221,405)"/>
<path d="M0 0 C4.29 0 8.58 0 13 0 C13.33 1.32 13.66 2.64 14 4 C9.38 4 4.76 4 0 4 C0 2.68 0 1.36 0 0 Z " fill="#C5C5C5" transform="translate(221,288)"/>
<path d="M0 0 C2.0625 0.4375 2.0625 0.4375 4 1 C3.01 1 2.02 1 1 1 C1 1.99 1 2.98 1 4 C1.99 4 2.98 4 4 4 C4.33 3.01 4.66 2.02 5 1 C7.97 1 10.94 1 14 1 C13.67 2.32 13.34 3.64 13 5 C8.71 5 4.42 5 0 5 C-0.33 3.68 -0.66 2.36 -1 1 C-0.67 0.67 -0.34 0.34 0 0 Z " fill="#686868" transform="translate(155,278)"/>
<path d="M0 0 C4.29 0 8.58 0 13 0 C13 0.99 13 1.98 13 3 C13.66 3.33 14.32 3.66 15 4 C9.72 4 4.44 4 -1 4 C-0.67 2.68 -0.34 1.36 0 0 Z " fill="#9E9E9E" transform="translate(216,250)"/>
<path d="M0 0 C2.0625 0.4375 2.0625 0.4375 4 1 C3.01 1 2.02 1 1 1 C1 1.99 1 2.98 1 4 C1.99 4 2.98 4 4 4 C4.33 3.01 4.66 2.02 5 1 C7.97 1 10.94 1 14 1 C13.67 2.32 13.34 3.64 13 5 C8.71 5 4.42 5 0 5 C-0.33 3.68 -0.66 2.36 -1 1 C-0.67 0.67 -0.34 0.34 0 0 Z " fill="#696969" transform="translate(155,228)"/>
<path d="M0 0 C4.29 0 8.58 0 13 0 C13 0.99 13 1.98 13 3 C13.66 3.33 14.32 3.66 15 4 C9.72 4 4.44 4 -1 4 C-0.67 2.68 -0.34 1.36 0 0 Z " fill="#A0A0A0" transform="translate(216,126)"/>
<path d="M0 0 C0.77601563 -0.00257813 1.55203125 -0.00515625 2.3515625 -0.0078125 C4.375 0.125 4.375 0.125 6.375 1.125 C5.715 2.445 5.055 3.765 4.375 5.125 C4.045 4.465 3.715 3.805 3.375 3.125 C2.385 3.455 1.395 3.785 0.375 4.125 C-1.01939664 4.19165376 -2.41669875 4.21038199 -3.8125 4.1875 C-5.6996875 4.1565625 -5.6996875 4.1565625 -7.625 4.125 C-7.955 4.785 -8.285 5.445 -8.625 6.125 C-8.625 4.475 -8.625 2.825 -8.625 1.125 C-5.68397771 0.27895249 -3.05733732 -0.01022521 0 0 Z " fill="#676767" transform="translate(178.625,278.875)"/>
<path d="M0 0 C4.29 0 8.58 0 13 0 C13 0.99 13 1.98 13 3 C13.66 3 14.32 3 15 3 C14.67 3.66 14.34 4.32 14 5 C12.515 4.7525 12.515 4.7525 11 4.5 C6.97267058 3.91525483 3.06525377 3.92867976 -1 4 C-0.67 2.68 -0.34 1.36 0 0 Z " fill="#9E9E9E" transform="translate(216,194)"/>
<path d="M0 0 C0 0.66 0 1.32 0 2 C0.66 2 1.32 2 2 2 C2 1.34 2 0.68 2 0 C3.65 -0.33 5.3 -0.66 7 -1 C7.33 0.32 7.66 1.64 8 3 C3.05 3.33 -1.9 3.66 -7 4 C-7.33 2.68 -7.66 1.36 -8 0 C-5.13822943 -1.43088528 -3.06624227 -0.59991697 0 0 Z " fill="#9D9D9D" transform="translate(182,195)"/>
<path d="M0 0 C0.86625 0.2784375 0.86625 0.2784375 1.75 0.5625 C3.98119199 1.16852477 3.98119199 1.16852477 6.0625 0.4375 C6.701875 0.293125 7.34125 0.14875 8 0 C8.99 0.66 9.98 1.32 11 2 C11 2.99 11 3.98 11 5 C7.37 5 3.74 5 0 5 C0 3.35 0 1.7 0 0 Z " fill="#AFAFAF" transform="translate(306,134)"/>
<path d="M0 0 C0.33 0.66 0.66 1.32 1 2 C1.928125 1.773125 2.85625 1.54625 3.8125 1.3125 C7 1 7 1 8.875 2.3125 C10 4 10 4 10 6 C6.37 6 2.74 6 -1 6 C-1 1 -1 1 0 0 Z " fill="#B1B1B1" transform="translate(307,471)"/>
<path d="M0 0 C2 1 4 2 6 3 C6 3.66 6 4.32 6 5 C6.66 5 7.32 5 8 5 C8 4.01 8 3.02 8 2 C7.01 1.67 6.02 1.34 5 1 C6.32 1 7.64 1 9 1 C9.33 2.65 9.66 4.3 10 6 C5.80838094 6 2.11142314 5.86556277 -2 5 C-1.125 1.125 -1.125 1.125 0 0 Z " fill="#F58763" transform="translate(51,75)"/>
<path d="M0 0 C0.99 0 1.98 0 3 0 C5.66666667 0 8.33333333 0 11 0 C10.67 0.99 10.34 1.98 10 3 C4.72 3 -0.56 3 -6 3 C-6 2.01 -6 1.02 -6 0 C-3.47064411 -1.26467795 -2.65809097 -0.7249339 0 0 Z " fill="#999999" transform="translate(276,377)"/>
<path d="M0 0 C0.886875 0.185625 1.77375 0.37125 2.6875 0.5625 C5.88729962 0.98511504 7.89926124 0.67043 11 0 C11.99 0.33 12.98 0.66 14 1 C13.67 1.99 13.34 2.98 13 4 C8.71 4 4.42 4 0 4 C0 2.68 0 1.36 0 0 Z " fill="#959595" transform="translate(253,367)"/>
<path d="M0 0 C0 1.32 0 2.64 0 4 C-2.88415883 5.44207941 -5.41721528 5.09394887 -8.625 5.0625 C-9.81351562 5.05347656 -11.00203125 5.04445312 -12.2265625 5.03515625 C-13.14179688 5.02355469 -14.05703125 5.01195312 -15 5 C-14.34 4.01 -13.68 3.02 -13 2 C-12.34 2 -11.68 2 -11 2 C-9.49589478 1.68570936 -7.99625193 1.34977318 -6.5 1 C-2.22222222 0 -2.22222222 0 0 0 Z " fill="#B4B4B4" transform="translate(297,202)"/>
<path d="M0 0 C0.66 0 1.32 0 2 0 C2 0.66 2 1.32 2 2 C5.63 2 9.26 2 13 2 C12.67 2.99 12.34 3.98 12 5 C8.01404384 6.32865205 4.15964589 6 0 6 C0 4.02 0 2.04 0 0 Z " fill="#A0A0A0" transform="translate(154,471)"/>
<path d="M0 0 C3.96 0 7.92 0 12 0 C12 0.99 12 1.98 12 3 C12.66 3.33 13.32 3.66 14 4 C9.05 4 4.1 4 -1 4 C-0.67 2.68 -0.34 1.36 0 0 Z " fill="#9A9A9A" transform="translate(215,367)"/>
<path d="M0 0 C4.66666667 0 9.33333333 0 14 0 C14 1.32 14 2.64 14 4 C9.71 4 5.42 4 1 4 C0.67 2.68 0.34 1.36 0 0 Z " fill="#C4C4C4" transform="translate(254,355)"/>
<path d="M0 0 C4.66666667 0 9.33333333 0 14 0 C14 1.32 14 2.64 14 4 C9.71 4 5.42 4 1 4 C0.67 2.68 0.34 1.36 0 0 Z " fill="#C4C4C4" transform="translate(254,238)"/>
<path d="M0 0 C0.66 0 1.32 0 2 0 C2.33 0.66 2.66 1.32 3 2 C4.98 1.34 6.96 0.68 9 0 C9 1.98 9 3.96 9 6 C5.7 6 2.4 6 -1 6 C-1 1 -1 1 0 0 Z " fill="#9D9D9D" transform="translate(252,201)"/>
<path d="M0 0 C0.33 0.66 0.66 1.32 1 2 C0.34 3.32 -0.32 4.64 -1 6 C-4.96 5.67 -8.92 5.34 -13 5 C-13 3.68 -13 2.36 -13 1 C-11.54207116 0.94600264 -10.08357288 0.90720823 -8.625 0.875 C-7.81289062 0.85179687 -7.00078125 0.82859375 -6.1640625 0.8046875 C-4 1 -4 1 -2 3 C-1.34 2.01 -0.68 1.02 0 0 Z " fill="#787878" transform="translate(210,173)"/>
<path d="M0 0 C0.33 0.66 0.66 1.32 1 2 C3.31 2 5.62 2 8 2 C7.01 3.485 7.01 3.485 6 5 C3.1796875 5.51171875 3.1796875 5.51171875 -0.125 5.6875 C-1.76855469 5.78611328 -1.76855469 5.78611328 -3.4453125 5.88671875 C-4.28835937 5.92410156 -5.13140625 5.96148437 -6 6 C-6 4.68 -6 3.36 -6 2 C-4.02 2 -2.04 2 0 2 C0 1.34 0 0.68 0 0 Z " fill="#A6A6A6" transform="translate(203,375)"/>
<path d="M0 0 C0.33 0.99 0.66 1.98 1 3 C1.66 3 2.32 3 3 3 C3.33 2.01 3.66 1.02 4 0 C5.65 0.33 7.3 0.66 9 1 C9 1.66 9 2.32 9 3 C12.0745356 2.2236068 12.0745356 2.2236068 14 0 C14.66 1.32 15.32 2.64 16 4 C15.41992188 3.98839844 14.83984375 3.97679687 14.2421875 3.96484375 C9.7001754 3.91237826 5.47286431 4.08248937 1 5 C0.67 3.35 0.34 1.7 0 0 Z " fill="#C0C0C0" transform="translate(238,355)"/>
<path d="M0 0 C0.33 0.66 0.66 1.32 1 2 C2.32 2 3.64 2 5 2 C5 1.34 5 0.68 5 0 C6.65 0.33 8.3 0.66 10 1 C10.33 2.32 10.66 3.64 11 5 C7.04 5 3.08 5 -1 5 C-0.67 3.35 -0.34 1.7 0 0 Z " fill="#A0A0A0" transform="translate(155,209)"/>
<path d="M0 0 C1.093125 0.185625 2.18625 0.37125 3.3125 0.5625 C6.93624133 1.2578068 6.93624133 1.2578068 10 0 C10 1.65 10 3.3 10 5 C6.37 5 2.74 5 -1 5 C-0.67 3.35 -0.34 1.7 0 0 Z " fill="#9F9F9F" transform="translate(194,134)"/>
<path d="M0 0 C0.99 0 1.98 0 3 0 C3.33 0.66 3.66 1.32 4 2 C6.97 2 9.94 2 13 2 C13 2.99 13 3.98 13 5 C4.42857143 6.28571429 4.42857143 6.28571429 1 5 C0.67 3.35 0.34 1.7 0 0 Z " fill="#A8A8A8" transform="translate(154,64)"/>
<path d="M0 0 C0.66 0 1.32 0 2 0 C2.33 0.66 2.66 1.32 3 2 C4.98 1.67 6.96 1.34 9 1 C9 2.65 9 4.3 9 6 C5.7 6 2.4 6 -1 6 C-1 1 -1 1 0 0 Z " fill="#989898" transform="translate(252,471)"/>
<path d="M0 0 C1.093125 0.350625 2.18625 0.70125 3.3125 1.0625 C6.90920373 2.33039454 6.90920373 2.33039454 10 1 C9.67 2.65 9.34 4.3 9 6 C6 6 3 6 0 6 C-1.24546405 3.50907189 -0.7767578 2.58919267 0 0 Z " fill="#9F9F9F" transform="translate(194,471)"/>
<path d="M0 0 C5.75 0.875 5.75 0.875 8 2 C7.67 2.99 7.34 3.98 7 5 C3.37 5 -0.26 5 -4 5 C-4 4.01 -4 3.02 -4 2 C-2.68 2 -1.36 2 0 2 C0 1.34 0 0.68 0 0 Z " fill="#A8A8A8" transform="translate(187,375)"/>
<path d="M0 0 C1.11375 0.185625 2.2275 0.37125 3.375 0.5625 C6.82568861 1.31680657 6.82568861 1.31680657 9 0 C9 1.65 9 3.3 9 5 C3.58461538 6.23076923 3.58461538 6.23076923 0.625 5.0625 C0.08875 4.711875 -0.4475 4.36125 -1 4 C-0.67 2.68 -0.34 1.36 0 0 Z " fill="#9B9B9B" transform="translate(252,307)"/>
<path d="M0 0 C2.09821215 -0.39938767 2.09821215 -0.39938767 4 -1 C4.33 0.65 4.66 2.3 5 4 C1.37 4 -2.26 4 -6 4 C-6 2.68 -6 1.36 -6 0 C-2.25 -1.125 -2.25 -1.125 0 0 Z " fill="#AAAAAA" transform="translate(187,135)"/>
<path d="M0 0 C3.3 0 6.6 0 10 0 C9.67 1.32 9.34 2.64 9 4 C5.7 4 2.4 4 -1 4 C-0.67 2.68 -0.34 1.36 0 0 Z " fill="#A4A4A4" transform="translate(255,126)"/>
<path d="M0 0 C4 0 4 0 6 1 C5.67 2.65 5.34 4.3 5 6 C2.03 6 -0.94 6 -4 6 C-4 4.35 -4 2.7 -4 1 C-3.34 1 -2.68 1 -2 1 C-1.67 1.99 -1.34 2.98 -1 4 C-0.67 2.68 -0.34 1.36 0 0 Z " fill="#EAAB8D" transform="translate(159,78)"/>
<path d="M0 0 C1.66611905 -0.042721 3.33382885 -0.04063832 5 0 C6 1 6 1 6.125 3.5 C6 6 6 6 5 7 C3.33382885 7.04063832 1.66611905 7.042721 0 7 C0 4.69 0 2.38 0 0 Z " fill="#F69675" transform="translate(83,74)"/>
<path d="M0 0 C3.96 0 7.92 0 12 0 C11.67 1.32 11.34 2.64 11 4 C7.37 4 3.74 4 0 4 C0 2.68 0 1.36 0 0 Z " fill="#5F5F5F" transform="translate(160,48)"/>
<path d="M0 0 C0.66 0.33 1.32 0.66 2 1 C4.09821215 0.60061233 4.09821215 0.60061233 6 0 C6.33 1.65 6.66 3.3 7 5 C3.37 5 -0.26 5 -4 5 C-3.67 3.68 -3.34 2.36 -3 1 C-2.01 0.67 -1.02 0.34 0 0 Z " fill="#AAAAAA" transform="translate(185,307)"/>
<path d="M0 0 C3.3 0 6.6 0 10 0 C9.67 1.32 9.34 2.64 9 4 C5.7 4 2.4 4 -1 4 C-0.67 2.68 -0.34 1.36 0 0 Z " fill="#A2A2A2" transform="translate(255,250)"/>
<path d="M0 0 C0.33 0.99 0.66 1.98 1 3 C1.66 3 2.32 3 3 3 C3.33 2.01 3.66 1.02 4 0 C5.65 0.33 7.3 0.66 9 1 C9 1.66 9 2.32 9 3 C12.0745356 2.2236068 12.0745356 2.2236068 14 0 C14.66 1.32 15.32 2.64 16 4 C10.72 4 5.44 4 0 4 C0 2.68 0 1.36 0 0 Z " fill="#BFBFBF" transform="translate(238,238)"/>
<path d="M0 0 C2 1 2 1 3 2 C4.66617115 2.04063832 6.33388095 2.042721 8 2 C8 1.34 8 0.68 8 0 C8.66 0 9.32 0 10 0 C10 1.65 10 3.3 10 5 C6.59437148 5.77842938 3.49234244 6.09978121 0 6 C0 4.02 0 2.04 0 0 Z " fill="#9C9C9C" transform="translate(194,201)"/>
<path d="M0 0 C3.3 0 6.6 0 10 0 C9.67 1.32 9.34 2.64 9 4 C5.7 4 2.4 4 -1 4 C-0.67 2.68 -0.34 1.36 0 0 Z " fill="#B0B0B0" transform="translate(255,194)"/>
<path d="M0 0 C0.66 0 1.32 0 2 0 C0.66666667 4 -0.66666667 8 -2 12 C-2.66 12 -3.32 12 -4 12 C-4.99 8.37 -5.98 4.74 -7 1 C-6.34 1 -5.68 1 -5 1 C-4.67 2.32 -4.34 3.64 -4 5 C-3.34 5 -2.68 5 -2 5 C-1.34 3.35 -0.68 1.7 0 0 Z " fill="#262626" transform="translate(46,35)"/>
<path d="M0 0 C0.33 0.99 0.66 1.98 1 3 C1.66 3 2.32 3 3 3 C3.33 2.01 3.66 1.02 4 0 C5.65 0.33 7.3 0.66 9 1 C9 1.66 9 2.32 9 3 C12.0745356 2.2236068 12.0745356 2.2236068 14 0 C14.66 1.32 15.32 2.64 16 4 C10.72 4 5.44 4 0 4 C0 2.68 0 1.36 0 0 Z " fill="#BDBDBD" transform="translate(238,405)"/>
<path d="M0 0 C0.86625 0.2784375 0.86625 0.2784375 1.75 0.5625 C4.20692525 1.04023546 5.64397534 0.75729364 8 0 C8 0.66 8 1.32 8 2 C8.99 2.33 9.98 2.66 11 3 C11 3.66 11 4.32 11 5 C7.37 5 3.74 5 0 5 C0 3.35 0 1.7 0 0 Z " fill="#9A9A9A" transform="translate(306,307)"/>
<path d="M0 0 C3.66666667 0 7.33333333 0 11 0 C11.33 0.66 11.66 1.32 12 2 C10 4 10 4 7.6171875 4.1953125 C6.71226562 4.17210937 5.80734375 4.14890625 4.875 4.125 C3.50988281 4.09792969 3.50988281 4.09792969 2.1171875 4.0703125 C1.41851562 4.04710937 0.71984375 4.02390625 0 4 C0 2.68 0 1.36 0 0 Z " fill="#C2C2C2" transform="translate(197,288)"/>
<path d="M0 0 C-0.33 1.32 -0.66 2.64 -1 4 C-4.63 4 -8.26 4 -12 4 C-12 3.01 -12 2.02 -12 1 C-8.40865654 -0.79567173 -3.97031196 0 0 0 Z " fill="#9A9A9A" transform="translate(253,250)"/>
<path d="M0 0 C0 0.99 0 1.98 0 3 C0.66 3.33 1.32 3.66 2 4 C-1.3 4 -4.6 4 -8 4 C-8 2.68 -8 1.36 -8 0 C-4.71023192 -1.09658936 -3.28696233 -0.79953138 0 0 Z " fill="#A9A9A9" transform="translate(306,367)"/>
<path d="M0 0 C0 1.32 0 2.64 0 4 C-3.63 4.33 -7.26 4.66 -11 5 C-11.33 3.68 -11.66 2.36 -12 1 C-7.95858806 0.36605303 -4.0934693 -0.12404452 0 0 Z " fill="#969696" transform="translate(240,259)"/>
<path d="M0 0 C3.63 0 7.26 0 11 0 C11 1.32 11 2.64 11 4 C7.37 4 3.74 4 0 4 C0 2.68 0 1.36 0 0 Z " fill="#555555" transform="translate(185,48)"/>
<path d="M0 0 C-0.33 0.99 -0.66 1.98 -1 3 C-0.34 3.33 0.32 3.66 1 4 C-1.97 4 -4.94 4 -8 4 C-8 2.68 -8 1.36 -8 0 C-5.13822943 -1.43088528 -3.06624227 -0.59991697 0 0 Z " fill="#A2A2A2" transform="translate(308,417)"/>
<path d="M0 0 C0 1.65 0 3.3 0 5 C-3.3 5 -6.6 5 -10 5 C-10 3.68 -10 2.36 -10 1 C-8.68 1 -7.36 1 -6 1 C-1.75 0 -1.75 0 0 0 Z " fill="#9F9F9F" transform="translate(319,366)"/>
<path d="M0 0 C0.99 0.495 0.99 0.495 2 1 C4.83967231 1 7.23735711 0.59732819 10 0 C10 1.65 10 3.3 10 5 C6.7 5 3.4 5 0 5 C0 3.35 0 1.7 0 0 Z " fill="#979797" transform="translate(194,307)"/>
<path d="M0 0 C0.99 0.495 0.99 0.495 2 1 C4.83967231 1 7.23735711 0.59732819 10 0 C10 1.65 10 3.3 10 5 C6.7 5 3.4 5 0 5 C0 3.35 0 1.7 0 0 Z " fill="#979797" transform="translate(194,258)"/>
<path d="M0 0 C1.093125 0.185625 2.18625 0.37125 3.3125 0.5625 C6.93624133 1.2578068 6.93624133 1.2578068 10 0 C10 1.65 10 3.3 10 5 C6.7 5 3.4 5 0 5 C0 3.33333333 0 1.66666667 0 0 Z " fill="#909090" transform="translate(251,134)"/>
<path d="M0 0 C1.51400391 0.01740234 1.51400391 0.01740234 3.05859375 0.03515625 C4.07050781 0.04417969 5.08242187 0.05320312 6.125 0.0625 C7.29869141 0.07990234 7.29869141 0.07990234 8.49609375 0.09765625 C8.16609375 1.08765625 7.83609375 2.07765625 7.49609375 3.09765625 C3.86609375 3.42765625 0.23609375 3.75765625 -3.50390625 4.09765625 C-3.50390625 0.13665781 -3.50390625 0.13665781 0 0 Z " fill="#EEB89F" transform="translate(211.50390625,87.90234375)"/>
<path d="M0 0 C0 0.99 0 1.98 0 3 C0.66 3.33 1.32 3.66 2 4 C-1.3 4 -4.6 4 -8 4 C-8 2.68 -8 1.36 -8 0 C-4.71023192 -1.09658936 -3.28696233 -0.79953138 0 0 Z " fill="#9F9F9F" transform="translate(304,465)"/>
<path d="M0 0 C3.63 0 7.26 0 11 0 C11.33 0.66 11.66 1.32 12 2 C10 4 10 4 7.8359375 4.1953125 C6.61777344 4.16050781 6.61777344 4.16050781 5.375 4.125 C4.55773437 4.10695313 3.74046875 4.08890625 2.8984375 4.0703125 C2.27195312 4.04710937 1.64546875 4.02390625 1 4 C0.67 2.68 0.34 1.36 0 0 Z " fill="#C1C1C1" transform="translate(254,405)"/>
<path d="M0 0 C0 0.99 0 1.98 0 3 C0.66 3.33 1.32 3.66 2 4 C-1.3 4 -4.6 4 -8 4 C-8 2.68 -8 1.36 -8 0 C-4.71023192 -1.09658936 -3.28696233 -0.79953138 0 0 Z " fill="#9F9F9F" transform="translate(304,300)"/>
<path d="M0 0 C3.63 0 7.26 0 11 0 C11.33 0.66 11.66 1.32 12 2 C10 4 10 4 7.8359375 4.1953125 C6.61777344 4.16050781 6.61777344 4.16050781 5.375 4.125 C4.55773437 4.10695313 3.74046875 4.08890625 2.8984375 4.0703125 C2.27195312 4.04710937 1.64546875 4.02390625 1 4 C0.67 2.68 0.34 1.36 0 0 Z " fill="#C1C1C1" transform="translate(254,288)"/>
<path d="M0 0 C2.31 0 4.62 0 7 0 C7 0.99 7 1.98 7 3 C8.32 3.33 9.64 3.66 11 4 C7.18243176 5.37432457 3.92744671 4.67975039 0 4 C0 2.68 0 1.36 0 0 Z " fill="#F1C7B3" transform="translate(154,88)"/>
<path d="M0 0 C0.91007813 0.10183594 1.82015625 0.20367187 2.7578125 0.30859375 C3.45648438 0.39238281 4.15515625 0.47617187 4.875 0.5625 C4.545 1.8825 4.215 3.2025 3.875 4.5625 C2.885 4.2325 1.895 3.9025 0.875 3.5625 C0.235625 3.7275 -0.40375 3.8925 -1.0625 4.0625 C-3.44272734 4.63952481 -4.82206679 4.30272853 -7.125 3.5625 C-7.125 2.5725 -7.125 1.5825 -7.125 0.5625 C-4.50184968 -0.74907516 -2.89466564 -0.33399988 0 0 Z " fill="#949494" transform="translate(175.125,472.4375)"/>
<path d="M0 0 C-0.33 1.32 -0.66 2.64 -1 4 C-1 3.01 -1 2.02 -1 1 C-1.66 1 -2.32 1 -3 1 C-2.67 1.99 -2.34 2.98 -2 4 C-5.3 4 -8.6 4 -12 4 C-12 3.01 -12 2.02 -12 1 C-8.40865654 -0.79567173 -3.97031196 0 0 0 Z " fill="#929292" transform="translate(253,465)"/>
<path d="M0 0 C-0.33 1.32 -0.66 2.64 -1 4 C-1 3.01 -1 2.02 -1 1 C-1.66 1 -2.32 1 -3 1 C-2.67 1.99 -2.34 2.98 -2 4 C-5.3 4 -8.6 4 -12 4 C-12 3.01 -12 2.02 -12 1 C-8.40865654 -0.79567173 -3.97031196 0 0 0 Z " fill="#929292" transform="translate(253,417)"/>
<path d="M0 0 C-0.33 1.32 -0.66 2.64 -1 4 C-1 3.01 -1 2.02 -1 1 C-1.66 1 -2.32 1 -3 1 C-2.67 1.99 -2.34 2.98 -2 4 C-5.3 4 -8.6 4 -12 4 C-12 3.01 -12 2.02 -12 1 C-8.40865654 -0.79567173 -3.97031196 0 0 0 Z " fill="#929292" transform="translate(253,300)"/>
<path d="M0 0 C2.31 0 4.62 0 7 0 C6.01 0.495 6.01 0.495 5 1 C5 1.66 5 2.32 5 3 C8.0745356 2.2236068 8.0745356 2.2236068 10 0 C10.66 1.32 11.32 2.64 12 4 C8.04 4 4.08 4 0 4 C0 2.68 0 1.36 0 0 Z " fill="#BDBDBD" transform="translate(242,288)"/>
<path d="M0 0 C0.78375 0.185625 1.5675 0.37125 2.375 0.5625 C4.97089775 1.25962266 4.97089775 1.25962266 7 0 C7.99 0.66 8.98 1.32 10 2 C9.67 2.99 9.34 3.98 9 5 C5.7 5 2.4 5 -1 5 C-0.67 3.35 -0.34 1.7 0 0 Z " fill="#838383" transform="translate(214,278)"/>
<path d="M0 0 C0 0.99 0 1.98 0 3 C0.66 3.33 1.32 3.66 2 4 C-1.3 4 -4.6 4 -8 4 C-7.67 2.68 -7.34 1.36 -7 0 C-4.3333581 -1.33332095 -2.83319697 -0.67102033 0 0 Z " fill="#9E9E9E" transform="translate(304,250)"/>
<path d="M0 0 C0 0.99 0 1.98 0 3 C0.66 3.33 1.32 3.66 2 4 C-1.3 4 -4.6 4 -8 4 C-7.67 2.68 -7.34 1.36 -7 0 C-4.3333581 -1.33332095 -2.83319697 -0.67102033 0 0 Z " fill="#9D9D9D" transform="translate(304,126)"/>
<path d="M0 0 C1.65 0 3.3 0 5 0 C5 2.31 5 4.62 5 7 C3.35 7 1.7 7 0 7 C0 4.69 0 2.38 0 0 Z " fill="#F6916F" transform="translate(62,74)"/>
<path d="M0 0 C-0.33 1.32 -0.66 2.64 -1 4 C-3.64 3.67 -6.28 3.34 -9 3 C-9 2.34 -9 1.68 -9 1 C-10.32 0.67 -11.64 0.34 -13 0 C-8.38926889 -1.29676812 -4.66159911 -0.71109139 0 0 Z " fill="#9D9D9D" transform="translate(182,427)"/>
<path d="M0 0 C0 1.65 0 3.3 0 5 C-2.97 5 -5.94 5 -9 5 C-9 3.68 -9 2.36 -9 1 C-8.05125 1.020625 -7.1025 1.04125 -6.125 1.0625 C-3.66231667 1.01324633 -2.19420831 0 0 0 Z " fill="#979797" transform="translate(320,416)"/>
<path d="M0 0 C0.99 0.66 1.98 1.32 3 2 C6.14221967 1.68493373 6.14221967 1.68493373 9 1 C9.33 2.32 9.66 3.64 10 5 C6.04 5 2.08 5 -2 5 C-1 2 -1 2 0 0 Z " fill="#919191" transform="translate(170,307)"/>
<path d="M0 0 C0.99 0.66 1.98 1.32 3 2 C5.33199388 2.07905064 7.66832622 2.08798769 10 2 C9.67 2.99 9.34 3.98 9 5 C5.37 5 1.74 5 -2 5 C-1 1 -1 1 0 0 Z " fill="#909090" transform="translate(170,258)"/>
<path d="M0 0 C0.78375 0.185625 1.5675 0.37125 2.375 0.5625 C4.97089775 1.25962266 4.97089775 1.25962266 7 0 C7.99 0.66 8.98 1.32 10 2 C9.67 2.66 9.34 3.32 9 4 C8.67 3.67 8.34 3.34 8 3 C7.34 3.66 6.68 4.32 6 5 C3 6 3 6 0.8125 5.0625 C0.214375 4.711875 -0.38375 4.36125 -1 4 C-0.67 2.68 -0.34 1.36 0 0 Z " fill="#858585" transform="translate(214,228)"/>
<path d="M0 0 C0.91007813 0.10183594 1.82015625 0.20367187 2.7578125 0.30859375 C3.45648438 0.39238281 4.15515625 0.47617188 4.875 0.5625 C4.545 1.5525 4.215 2.5425 3.875 3.5625 C-3.55357143 4.84821429 -3.55357143 4.84821429 -7.125 3.5625 C-7.125 2.5725 -7.125 1.5825 -7.125 0.5625 C-4.50184968 -0.74907516 -2.89466564 -0.33399988 0 0 Z " fill="#919191" transform="translate(175.125,202.4375)"/>
<path d="M0 0 C0 1.65 0 3.3 0 5 C-2.97 5 -5.94 5 -9 5 C-8.67 3.68 -8.34 2.36 -8 1 C-2.25 0 -2.25 0 0 0 Z " fill="#9C9C9C" transform="translate(318,202)"/>
<path d="M0 0 C-1.32 0.33 -2.64 0.66 -4 1 C-4 1.99 -4 2.98 -4 4 C-6.31 4 -8.62 4 -11 4 C-11 2.68 -11 1.36 -11 0 C-7.01803543 -1.05404945 -4.01804691 -0.84098656 0 0 Z " fill="#A3A3A3" transform="translate(278,194)"/>
<path d="M0 0 C3.96 0 7.92 0 12 0 C12 1.32 12 2.64 12 4 C10.02 4 8.04 4 6 4 C5.67 3.01 5.34 2.02 5 1 C4.34 1 3.68 1 3 1 C2.67 1.66 2.34 2.32 2 3 C2 2.34 2 1.68 2 1 C1.34 0.67 0.68 0.34 0 0 Z " fill="#8E8E8E" transform="translate(214,347)"/>
<path d="M0 0 C0 0.99 0 1.98 0 3 C0.66 3.33 1.32 3.66 2 4 C-1.3 4 -4.6 4 -8 4 C-7.67 2.68 -7.34 1.36 -7 0 C-4.3333581 -1.33332095 -2.83319697 -0.67102033 0 0 Z " fill="#9A9A9A" transform="translate(304,194)"/>
<path d="M0 0 C2.97 0 5.94 0 9 0 C8.67 1.32 8.34 2.64 8 4 C5.36 4 2.72 4 0 4 C0 2.68 0 1.36 0 0 Z " fill="#6B6B6B" transform="translate(160,174)"/>
<path d="M0 0 C0.33 0 0.66 0 1 0 C1 1.65 1 3.3 1 5 C1.66 5.33 2.32 5.66 3 6 C0.03 6 -2.94 6 -6 6 C-6 4.68 -6 3.36 -6 2 C-4.35 2 -2.7 2 -1 2 C-0.67 1.34 -0.34 0.68 0 0 Z " fill="#AEAEAE" transform="translate(247,471)"/>
<path d="M0 0 C0.99 0.33 1.98 0.66 3 1 C4.99961564 1.03920815 7.00049364 1.04443347 9 1 C9 1.99 9 2.98 9 4 C4.71 4 0.42 4 -4 4 C-4 3.34 -4 2.68 -4 2 C-3.01 1.67 -2.02 1.34 -1 1 C-0.67 0.67 -0.34 0.34 0 0 Z " fill="#959595" transform="translate(233,376)"/>
<path d="M0 0 C0.9075 0.185625 1.815 0.37125 2.75 0.5625 C5.68314324 0.95734621 7.2644657 0.94691572 10 0 C9.01 1.485 9.01 1.485 8 3 C7.34 3 6.68 3 6 3 C6 3.66 6 4.32 6 5 C4.02 5 2.04 5 0 5 C0 3.35 0 1.7 0 0 Z " fill="#A6A6A6" transform="translate(327,307)"/>
<path d="M0 0 C2.31 0.33 4.62 0.66 7 1 C7.33 2.32 7.66 3.64 8 5 C7.01 5.33 6.02 5.66 5 6 C4.01 5.34 3.02 4.68 2 4 C1.01 4.495 1.01 4.495 0 5 C0 3.35 0 1.7 0 0 Z " fill="#959595" transform="translate(232,278)"/>
<path d="M0 0 C0.33 0.66 0.66 1.32 1 2 C2.65 2 4.3 2 6 2 C6.33 2.99 6.66 3.98 7 5 C5.34385343 5.38218767 3.67542976 5.71395102 2 6 C1.67 5.67 1.34 5.34 1 5 C-0.66617115 4.95936168 -2.33388095 4.957279 -4 5 C-4 4.01 -4 3.02 -4 2 C-2.68 2 -1.36 2 0 2 C0 1.34 0 0.68 0 0 Z " fill="#A2A2A2" transform="translate(185,258)"/>
<path d="M0 0 C3.3 0 6.6 0 10 0 C9.67 1.65 9.34 3.3 9 5 C8.071875 4.835 7.14375 4.67 6.1875 4.5 C3.04378647 3.92251612 3.04378647 3.92251612 0 4 C0 2.68 0 1.36 0 0 Z " fill="#BDBDBD" transform="translate(197,182)"/>
<path d="M0 0 C0.78375 0.185625 1.5675 0.37125 2.375 0.5625 C4.97089775 1.25962266 4.97089775 1.25962266 7 0 C7.66 0.66 8.32 1.32 9 2 C8.34 2 7.68 2 7 2 C7 2.66 7 3.32 7 4 C7.66 4.33 8.32 4.66 9 5 C5.7 5 2.4 5 -1 5 C-0.67 3.35 -0.34 1.7 0 0 Z " fill="#7F7F7F" transform="translate(214,173)"/>
<path d="M0 0 C0.33 0 0.66 0 1 0 C1 1.65 1 3.3 1 5 C-1.64 5.33 -4.28 5.66 -7 6 C-6.67 4.35 -6.34 2.7 -6 1 C-4.7934375 1.0309375 -4.7934375 1.0309375 -3.5625 1.0625 C-1.06645115 1.29633621 -1.06645115 1.29633621 0 0 Z " fill="#A4A4A4" transform="translate(269,134)"/>
<path d="M0 0 C2.31 0 4.62 0 7 0 C7 1.32 7 2.64 7 4 C4.03 4 1.06 4 -2 4 C-1.34 2.68 -0.68 1.36 0 0 Z " fill="#A0A0A0" transform="translate(246,126)"/>
<path d="M0 0 C2.97 0 5.94 0 9 0 C8.67 1.32 8.34 2.64 8 4 C5.36 4 2.72 4 0 4 C0 2.68 0 1.36 0 0 Z " fill="#9F9F9F" transform="translate(171,58)"/>
<path d="M0 0 C1.98 0 3.96 0 6 0 C6.33 0.99 6.66 1.98 7 3 C6.67 3.66 6.34 4.32 6 5 C2 5 2 5 -1 4 C-0.67 2.68 -0.34 1.36 0 0 Z " fill="#9C9C9C" transform="translate(220,396)"/>
<path d="M0 0 C1.8125 1.5 1.8125 1.5 3 3 C-0.78187881 4.83691257 -2.94568308 5.15837626 -7 4 C-7 3.01 -7 2.02 -7 1 C-4.45132831 -0.27433584 -2.82594567 -0.27570202 0 0 Z " fill="#A7A7A7" transform="translate(227,308)"/>
<path d="M0 0 C0.66 0 1.32 0 2 0 C2.33 0.66 2.66 1.32 3 2 C4.65 1.67 6.3 1.34 8 1 C8.33 1.66 8.66 2.32 9 3 C8.67 3.66 8.34 4.32 8 5 C5.36 5 2.72 5 0 5 C0 3.35 0 1.7 0 0 Z " fill="#9E9E9E" transform="translate(154,249)"/>
<path d="M0 0 C0.99 0.33 1.98 0.66 3 1 C2.67 1.33 2.34 1.66 2 2 C2.66 2.33 3.32 2.66 4 3 C4 2.01 4 1.02 4 0 C4.66 0 5.32 0 6 0 C6.33 1.65 6.66 3.3 7 5 C4.69 5.33 2.38 5.66 0 6 C0.33 5.34 0.66 4.68 1 4 C0.34 3.67 -0.32 3.34 -1 3 C-0.67 2.01 -0.34 1.02 0 0 Z " fill="#4E4E4E" transform="translate(39,125)"/>
<path d="M0 0 C0.66 0 1.32 0 2 0 C2.33 0.66 2.66 1.32 3 2 C4.65 1.67 6.3 1.34 8 1 C8.33 1.66 8.66 2.32 9 3 C8.67 3.66 8.34 4.32 8 5 C5.36 5 2.72 5 0 5 C0 3.35 0 1.7 0 0 Z " fill="#9E9E9E" transform="translate(154,125)"/>
<path d="M0 0 C1.2065625 0.0309375 1.2065625 0.0309375 2.4375 0.0625 C2.7675 1.7125 3.0975 3.3625 3.4375 5.0625 C1.4375 5.0625 -0.5625 5.0625 -2.5625 5.0625 C-3.125 3.125 -3.125 3.125 -3.5625 1.0625 C-2.5625 0.0625 -2.5625 0.0625 0 0 Z " fill="#EDB79E" transform="translate(190.5625,77.9375)"/>
<path d="M0 0 C0.66 0 1.32 0 2 0 C2 0.66 2 1.32 2 2 C3.32 2.66 4.64 3.32 6 4 C5.34 4 4.68 4 4 4 C4 5.32 4 6.64 4 8 C2.68 8 1.36 8 0 8 C0 5.36 0 2.72 0 0 Z " fill="#F69575" transform="translate(90,73)"/>
<path d="M0 0 C0.66 0 1.32 0 2 0 C2.33 0.66 2.66 1.32 3 2 C4.65 1.67 6.3 1.34 8 1 C8.33 1.66 8.66 2.32 9 3 C7 5 7 5 3.375 5.125 C2.26125 5.08375 1.1475 5.0425 0 5 C0 3.35 0 1.7 0 0 Z " fill="#9C9C9C" transform="translate(154,464)"/>
<path d="M0 0 C0.66 0 1.32 0 2 0 C2.33 0.66 2.66 1.32 3 2 C4.65 1.67 6.3 1.34 8 1 C8.33 1.66 8.66 2.32 9 3 C7 5 7 5 3.375 5.125 C2.26125 5.08375 1.1475 5.0425 0 5 C0 3.35 0 1.7 0 0 Z " fill="#9C9C9C" transform="translate(154,416)"/>
<path d="M0 0 C2.83967231 0 5.23735711 0.40267181 8 1 C8 2.32 8 3.64 8 5 C5.33333333 5 2.66666667 5 0 5 C0 3.35 0 1.7 0 0 Z " fill="#616161" transform="translate(178,395)"/>
<path d="M0 0 C1.98 0 3.96 0 6 0 C6.66 1.32 7.32 2.64 8 4 C5.36 4.33 2.72 4.66 0 5 C0 3.35 0 1.7 0 0 Z " fill="#CCCCCC" transform="translate(220,355)"/>
<path d="M0 0 C0.66 0 1.32 0 2 0 C2.33 0.66 2.66 1.32 3 2 C4.65 1.67 6.3 1.34 8 1 C8.33 1.66 8.66 2.32 9 3 C7 5 7 5 3.375 5.125 C2.26125 5.08375 1.1475 5.0425 0 5 C0 3.35 0 1.7 0 0 Z " fill="#9C9C9C" transform="translate(154,299)"/>
<path d="M0 0 C1.98 0 3.96 0 6 0 C6.66 1.32 7.32 2.64 8 4 C5.36 4.33 2.72 4.66 0 5 C0 3.35 0 1.7 0 0 Z " fill="#CCCCCC" transform="translate(220,238)"/>
<path d="M0 0 C0.94875 0.350625 1.8975 0.70125 2.875 1.0625 C2.545 2.3825 2.215 3.7025 1.875 5.0625 C-0.435 4.7325 -2.745 4.4025 -5.125 4.0625 C-5.125 2.7425 -5.125 1.4225 -5.125 0.0625 C-3.125 -0.9375 -3.125 -0.9375 0 0 Z " fill="#919191" transform="translate(237.125,228.9375)"/>
<path d="M0 0 C0.33 0.66 0.66 1.32 1 2 C2.65 2 4.3 2 6 2 C6.33 3.32 6.66 4.64 7 6 C3.78600767 6.08927756 1.0937211 5.8534403 -2 5 C-2.66 5 -3.32 5 -4 5 C-4 4.01 -4 3.02 -4 2 C-2.68 2 -1.36 2 0 2 C0 1.34 0 0.68 0 0 Z " fill="#A0A0A0" transform="translate(185,201)"/>
<path d="M0 0 C2.31 0.33 4.62 0.66 7 1 C7 2.33333333 7 3.66666667 7 5 C4.69 5 2.38 5 0 5 C0 3.35 0 1.7 0 0 Z " fill="#919191" transform="translate(232,173)"/>
<path d="M0 0 C0.66 0.33 1.32 0.66 2 1 C1.67 2.65 1.34 4.3 1 6 C1.66 6.33 2.32 6.66 3 7 C-0.04386724 7.08226668 -2.07175348 6.97608217 -5 6 C-5 5.01 -5 4.02 -5 3 C-2.625 1.25 -2.625 1.25 0 0 Z " fill="#F8AF96" transform="translate(109,74)"/>
<path d="M0 0 C2.475 0.495 2.475 0.495 5 1 C4.34 3.64 3.68 6.28 3 9 C2.01 9 1.02 9 0 9 C0 6.03 0 3.06 0 0 Z " fill="#4B4B4B" transform="translate(68,38)"/>
<path d="M0 0 C0.598125 0.20625 1.19625 0.4125 1.8125 0.625 C1.8125 1.945 1.8125 3.265 1.8125 4.625 C-0.1675 4.625 -2.1475 4.625 -4.1875 4.625 C-4.5175 3.635 -4.8475 2.645 -5.1875 1.625 C-2.1875 -0.375 -2.1875 -0.375 0 0 Z " fill="#A9A9A9" transform="translate(212.1875,464.375)"/>
<path d="M0 0 C0.598125 0.20625 1.19625 0.4125 1.8125 0.625 C1.8125 1.945 1.8125 3.265 1.8125 4.625 C-0.1675 4.625 -2.1475 4.625 -4.1875 4.625 C-4.5175 3.635 -4.8475 2.645 -5.1875 1.625 C-2.1875 -0.375 -2.1875 -0.375 0 0 Z " fill="#A9A9A9" transform="translate(212.1875,416.375)"/>
<path d="M0 0 C3 0 6 0 9 0 C8.01 0.495 8.01 0.495 7 1 C7 1.66 7 2.32 7 3 C7.66 3.33 8.32 3.66 9 4 C6.03 4 3.06 4 0 4 C0 2.68 0 1.36 0 0 Z " fill="#C1C1C1" transform="translate(154,405)"/>
<path d="M0 0 C2.31 0.33 4.62 0.66 7 1 C7 1.99 7 2.98 7 4 C4.36 4 1.72 4 -1 4 C-0.67 2.68 -0.34 1.36 0 0 Z " fill="#A6A6A6" transform="translate(212,308)"/>
<path d="M0 0 C2.31 0.33 4.62 0.66 7 1 C7 2.32 7 3.64 7 5 C4.69 5 2.38 5 0 5 C0 3.35 0 1.7 0 0 Z " fill="#A4A4A4" transform="translate(154,307)"/>
<path d="M0 0 C0.598125 0.20625 1.19625 0.4125 1.8125 0.625 C1.8125 1.945 1.8125 3.265 1.8125 4.625 C-0.1675 4.625 -2.1475 4.625 -4.1875 4.625 C-4.5175 3.635 -4.8475 2.645 -5.1875 1.625 C-2.1875 -0.375 -2.1875 -0.375 0 0 Z " fill="#A9A9A9" transform="translate(212.1875,299.375)"/>
<path d="M0 0 C2.64 0.66 5.28 1.32 8 2 C7.67 2.99 7.34 3.98 7 5 C4.69 5 2.38 5 0 5 C0 3.35 0 1.7 0 0 Z " fill="#A8A8A8" transform="translate(222,202)"/>
<path d="M0 0 C0.33 0.66 0.66 1.32 1 2 C1.804375 1.814375 2.60875 1.62875 3.4375 1.4375 C4.7059375 1.2209375 4.7059375 1.2209375 6 1 C6.33 1.33 6.66 1.66 7 2 C7.99 2 8.98 2 10 2 C10 2.99 10 3.98 10 5 C6.7 5 3.4 5 0 5 C-0.33 4.34 -0.66 3.68 -1 3 C-0.67 2.01 -0.34 1.02 0 0 Z " fill="#959595" transform="translate(279,125)"/>
<path d="M0 0 C2 1 2 1 4 3 C4.33 2.01 4.66 1.02 5 0 C5.99 1.32 6.98 2.64 8 4 C7.67 4.66 7.34 5.32 7 6 C4.69 6 2.38 6 0 6 C0 4.02 0 2.04 0 0 Z " fill="#EDB79D" transform="translate(171,78)"/>
<path d="M0 0 C0.99 0 1.98 0 3 0 C3.33 0.33 3.66 0.66 4 1 C4.99 0.67 5.98 0.34 7 0 C7.66 0.33 8.32 0.66 9 1 C8.67 1.99 8.34 2.98 8 4 C4.65747276 4.07427838 2.1964086 4.06546953 -1 3 C-0.67 2.01 -0.34 1.02 0 0 Z " fill="#959595" transform="translate(276,473)"/>
<path d="M0 0 C2.64 0 5.28 0 8 0 C7.34 1.32 6.68 2.64 6 4 C4.02 4 2.04 4 0 4 C0 2.68 0 1.36 0 0 Z " fill="#9F9F9F" transform="translate(233,465)"/>
<path d="M0 0 C2.64 0.66 5.28 1.32 8 2 C7.67 2.99 7.34 3.98 7 5 C5.0085944 5.38133299 3.00720923 5.71325582 1 6 C0 5 0 5 -0.0625 2.4375 C-0.041875 1.633125 -0.02125 0.82875 0 0 Z " fill="#9C9C9C" transform="translate(174,464)"/>
<path d="M0 0 C2.64 0 5.28 0 8 0 C7.34 1.32 6.68 2.64 6 4 C4.02 4 2.04 4 0 4 C0 2.68 0 1.36 0 0 Z " fill="#A0A0A0" transform="translate(233,417)"/>
<path d="M0 0 C2.64 0 5.28 0 8 0 C7.34 1.32 6.68 2.64 6 4 C4.02 4 2.04 4 0 4 C0 2.68 0 1.36 0 0 Z " fill="#A0A0A0" transform="translate(233,300)"/>
<path d="M0 0 C2.64 0.66 5.28 1.32 8 2 C7.67 2.99 7.34 3.98 7 5 C5.0085944 5.38133299 3.00720923 5.71325582 1 6 C0 5 0 5 -0.0625 2.4375 C-0.041875 1.633125 -0.02125 0.82875 0 0 Z " fill="#9C9C9C" transform="translate(174,299)"/>
<path d="M0 0 C2.97 0 5.94 0 9 0 C9 1.32 9 2.64 9 4 C7.68 4 6.36 4 5 4 C5 3.01 5 2.02 5 1 C4.34 1 3.68 1 3 1 C2.67 1.99 2.34 2.98 2 4 C1.01 4 0.02 4 -1 4 C-0.67 2.68 -0.34 1.36 0 0 Z " fill="#BBBBBB" transform="translate(210,288)"/>
<path d="M0 0 C3 0 6 0 9 0 C8.01 0.495 8.01 0.495 7 1 C7 1.66 7 2.32 7 3 C7.66 3.33 8.32 3.66 9 4 C6.03 4 3.06 4 0 4 C0 2.68 0 1.36 0 0 Z " fill="#C0C0C0" transform="translate(154,288)"/>
<path d="M0 0 C2.97 0 5.94 0 9 0 C9 1.32 9 2.64 9 4 C6.03 4 3.06 4 0 4 C0 2.68 0 1.36 0 0 Z " fill="#616161" transform="translate(197,279)"/>
<path d="M0 0 C2.64 0 5.28 0 8 0 C7.34 1.32 6.68 2.64 6 4 C4.02 4 2.04 4 0 4 C0 2.68 0 1.36 0 0 Z " fill="#A0A0A0" transform="translate(233,250)"/>
<path d="M0 0 C3.96 0 7.92 0 12 0 C12 0.99 12 1.98 12 3 C8.7 3 5.4 3 2 3 C2 2.34 2 1.68 2 1 C1.34 0.67 0.68 0.34 0 0 Z " fill="#939393" transform="translate(349,203)"/>
<path d="M0 0 C2.97 0 5.94 0 9 0 C9.33 0.99 9.66 1.98 10 3 C3.375 4.125 3.375 4.125 0 3 C0 2.01 0 1.02 0 0 Z " fill="#EBAD90" transform="translate(164,88)"/>
<path d="M0 0 C1.98 0 3.96 0 6 0 C6 1.98 6 3.96 6 6 C4.68 5.34 3.36 4.68 2 4 C1.34 4.66 0.68 5.32 0 6 C0 4.02 0 2.04 0 0 Z " fill="#EDB59B" transform="translate(180,78)"/>
<path d="M0 0 C2.31 0 4.62 0 7 0 C7 1.32 7 2.64 7 4 C4.36 4 1.72 4 -1 4 C-0.67 2.68 -0.34 1.36 0 0 Z " fill="#9D9D9D" transform="translate(233,473)"/>
<path d="M0 0 C0.598125 0.165 1.19625 0.33 1.8125 0.5 C4.11344336 1.1114124 4.11344336 1.1114124 7 1 C7.66 1 8.32 1 9 1 C9 2.32 9 3.64 9 5 C6.03 4.67 3.06 4.34 0 4 C0 2.68 0 1.36 0 0 Z " fill="#979797" transform="translate(295,472)"/>
<path d="M0 0 C2.31 0 4.62 0 7 0 C6.34 1.65 5.68 3.3 5 5 C3.68 4.67 2.36 4.34 1 4 C0.67 2.68 0.34 1.36 0 0 Z " fill="#737373" transform="translate(43,465)"/>
<path d="M0 0 C1.65 0 3.3 0 5 0 C5 0.99 5 1.98 5 3 C5.99 2.67 6.98 2.34 8 2 C8 2.66 8 3.32 8 4 C4.67465243 5.10844919 2.37817425 4.84454356 -1 4 C-0.67 2.68 -0.34 1.36 0 0 Z " fill="#A8A8A8" transform="translate(155,376)"/>
<path d="M0 0 C0.66 0.66 1.32 1.32 2 2 C3.32 2 4.64 2 6 2 C5.67 3.32 5.34 4.64 5 6 C3.35 6 1.7 6 0 6 C0 4.02 0 2.04 0 0 Z " fill="#666666" transform="translate(65,345)"/>
<path d="M0 0 C0.99 0 1.98 0 3 0 C3.33 0.66 3.66 1.32 4 2 C4.66 2.33 5.32 2.66 6 3 C6 3.99 6 4.98 6 6 C3.69 6 1.38 6 -1 6 C-0.67 4.02 -0.34 2.04 0 0 Z " fill="#767676" transform="translate(155,345)"/>
<path d="M0 0 C1.32 0.66 2.64 1.32 4 2 C4 2.99 4 3.98 4 5 C1.03 5 -1.94 5 -5 5 C-5 4.01 -5 3.02 -5 2 C-3.35 2 -1.7 2 0 2 C0 1.34 0 0.68 0 0 Z " fill="#969696" transform="translate(300,307)"/>
<path d="M0 0 C2.31 0.33 4.62 0.66 7 1 C7 2.32 7 3.64 7 5 C4.69 5 2.38 5 0 5 C0 3.35 0 1.7 0 0 Z " fill="#A1A1A1" transform="translate(154,258)"/>
<path d="M0 0 C2.97 0 5.94 0 9 0 C8.67 0.99 8.34 1.98 8 3 C4.62182575 3.84454356 2.32534757 4.10844919 -1 3 C-0.67 2.01 -0.34 1.02 0 0 Z " fill="#979797" transform="translate(212,203)"/>
<path d="M0 0 C0.66 0 1.32 0 2 0 C2.33 1.32 2.66 2.64 3 4 C-0.63 4.33 -4.26 4.66 -8 5 C-7.67 3.68 -7.34 2.36 -7 1 C-6.67 1.33 -6.34 1.66 -6 2 C-4.33382885 2.04063832 -2.66611905 2.042721 -1 2 C-0.67 1.34 -0.34 0.68 0 0 Z " fill="#CBCBCB" transform="translate(238,182)"/>
<path d="M0 0 C0.66 -0.33 1.32 -0.66 2 -1 C1.67 0.32 1.34 1.64 1 3 C-0.65 3 -2.3 3 -4 3 C-4 2.34 -4 1.68 -4 1 C-4.66 1.66 -5.32 2.32 -6 3 C-6.66 3 -7.32 3 -8 3 C-8 2.01 -8 1.02 -8 0 C-5.15247365 -1.42376318 -3.08125973 -0.51354329 0 0 Z " fill="#BCBCBC" transform="translate(253,183)"/>
<path d="M0 0 C2.31 0 4.62 0 7 0 C7 1.32 7 2.64 7 4 C4.36 4 1.72 4 -1 4 C-0.67 2.68 -0.34 1.36 0 0 Z " fill="#9C9C9C" transform="translate(233,135)"/>
<path d="M0 0 C0.12375 0.639375 0.2475 1.27875 0.375 1.9375 C0.684375 2.9584375 0.684375 2.9584375 1 4 C1.66 4.33 2.32 4.66 3 5 C0.36 5 -2.28 5 -5 5 C-5 3.68 -5 2.36 -5 1 C-3.35 0.67 -1.7 0.34 0 0 Z " fill="#A5A5A5" transform="translate(247,134)"/>
<path d="M0 0 C0.99 0.33 1.98 0.66 3 1 C3.99 0.67 4.98 0.34 6 0 C6 0.66 6 1.32 6 2 C5.34 2 4.68 2 4 2 C3.67 2.99 3.34 3.98 3 5 C1.35 5 -0.3 5 -2 5 C-1.125 1.125 -1.125 1.125 0 0 Z " fill="#A9A9A9" transform="translate(193,125)"/>
<path d="M0 0 C0.99 0 1.98 0 3 0 C2.25 2.4375 2.25 2.4375 1 5 C-1 5.875 -1 5.875 -3 6 C-3.66 5.67 -4.32 5.34 -5 5 C-5 4.01 -5 3.02 -5 2 C-4.01 2 -3.02 2 -2 2 C-2 2.66 -2 3.32 -2 4 C-1.34 4 -0.68 4 0 4 C0 2.68 0 1.36 0 0 Z " fill="#A6A6A6" transform="translate(215,396)"/>
<path d="M0 0 C-0.33 1.32 -0.66 2.64 -1 4 C-2.65 4 -4.3 4 -6 4 C-6 2.68 -6 1.36 -6 0 C-3.50907189 -1.24546405 -2.58919267 -0.7767578 0 0 Z " fill="#A3A3A3" transform="translate(212,367)"/>
<path d="M0 0 C0 1.32 0 2.64 0 4 C-1.98 4 -3.96 4 -6 4 C-6 2.68 -6 1.36 -6 0 C-3.50907189 -1.24546405 -2.58919267 -0.7767578 0 0 Z " fill="#A6A6A6" transform="translate(214,250)"/>
<path d="M0 0 C0.66 0 1.32 0 2 0 C2 0.66 2 1.32 2 2 C3.65 1.67 5.3 1.34 7 1 C7 2.65 7 4.3 7 6 C4.69 5.67 2.38 5.34 0 5 C0 3.35 0 1.7 0 0 Z " fill="#9E9E9E" transform="translate(154,201)"/>
<path d="M0 0 C0 1.32 0 2.64 0 4 C-1.98 4 -3.96 4 -6 4 C-6 2.68 -6 1.36 -6 0 C-3.50907189 -1.24546405 -2.58919267 -0.7767578 0 0 Z " fill="#A5A5A5" transform="translate(214,194)"/>
<path d="M0 0 C2.475 0.495 2.475 0.495 5 1 C5 3.31 5 5.62 5 8 C4.01 8 3.02 8 2 8 C2 5.69 2 3.38 2 1 C1.34 0.67 0.68 0.34 0 0 Z " fill="#474747" transform="translate(68,57)"/>
<path d="M0 0 C2.31 0.33 4.62 0.66 7 1 C6.34 2.32 5.68 3.64 5 5 C3.35 5 1.7 5 0 5 C-0.33 4.01 -0.66 3.02 -1 2 C-0.67 1.34 -0.34 0.68 0 0 Z " fill="#969696" transform="translate(199,464)"/>
<path d="M0 0 C2.31 0.33 4.62 0.66 7 1 C6.34 2.32 5.68 3.64 5 5 C3.35 5 1.7 5 0 5 C-0.33 4.01 -0.66 3.02 -1 2 C-0.67 1.34 -0.34 0.68 0 0 Z " fill="#979797" transform="translate(199,416)"/>
<path d="M0 0 C2.125 0.9375 2.125 0.9375 4 2 C3.67 2.99 3.34 3.98 3 5 C0.69 5 -1.62 5 -4 5 C-3.34 4.67 -2.68 4.34 -2 4 C-2 3.01 -2 2.02 -2 1 C-1.34 0.67 -0.68 0.34 0 0 Z " fill="#B1B1B1" transform="translate(288,366)"/>
<path d="M0 0 C2.64 0.33 5.28 0.66 8 1 C8 1.99 8 2.98 8 4 C5.36 4 2.72 4 0 4 C0 2.68 0 1.36 0 0 Z " fill="#A0A0A0" transform="translate(154,367)"/>
<path d="M0 0 C0.66 0 1.32 0 2 0 C2 0.66 2 1.32 2 2 C2.66 2 3.32 2 4 2 C4.33 1.34 4.66 0.68 5 0 C6.32 0.33 7.64 0.66 9 1 C8.34 1 7.68 1 7 1 C7 1.66 7 2.32 7 3 C7.66 3.33 8.32 3.66 9 4 C6.03 4 3.06 4 0 4 C0 2.68 0 1.36 0 0 Z " fill="#BCBCBC" transform="translate(154,355)"/>
<path d="M0 0 C0.99 0.33 1.98 0.66 3 1 C3 2.32 3 3.64 3 5 C0.69 5 -1.62 5 -4 5 C-4 4.01 -4 3.02 -4 2 C-2.68 2 -1.36 2 0 2 C0 1.34 0 0.68 0 0 Z " fill="#777777" transform="translate(58,346)"/>
<path d="M0 0 C0.66 0 1.32 0 2 0 C2 1.98 2 3.96 2 6 C0.35 6 -1.3 6 -3 6 C-3 4.68 -3 3.36 -3 2 C-2.01 2 -1.02 2 0 2 C0 1.34 0 0.68 0 0 Z " fill="#848484" transform="translate(174,345)"/>
<path d="M0 0 C2.31 0.33 4.62 0.66 7 1 C6.34 2.32 5.68 3.64 5 5 C3.35 5 1.7 5 0 5 C-0.33 4.01 -0.66 3.02 -1 2 C-0.67 1.34 -0.34 0.68 0 0 Z " fill="#979797" transform="translate(199,299)"/>
<path d="M0 0 C0.66 0 1.32 0 2 0 C2 0.66 2 1.32 2 2 C2.66 2 3.32 2 4 2 C4.33 1.34 4.66 0.68 5 0 C6.32 0.33 7.64 0.66 9 1 C8.34 1 7.68 1 7 1 C7 1.66 7 2.32 7 3 C7.66 3.33 8.32 3.66 9 4 C6.03 4 3.06 4 0 4 C0 2.68 0 1.36 0 0 Z " fill="#BCBCBC" transform="translate(154,238)"/>
<path d="M0 0 C1.65 0 3.3 0 5 0 C5.33 0.66 5.66 1.32 6 2 C6.99 2.66 7.98 3.32 9 4 C6.03 4 3.06 4 0 4 C0 2.68 0 1.36 0 0 Z " fill="#A5A5A5" transform="translate(319,203)"/>
<path d="M0 0 C1.98 0 3.96 0 6 0 C6.33 1.32 6.66 2.64 7 4 C4.36 4 1.72 4 -1 4 C-0.67 2.68 -0.34 1.36 0 0 Z " fill="#939393" transform="translate(165,194)"/>
<path d="M0 0 C1.98 0 3.96 0 6 0 C6.66 1.32 7.32 2.64 8 4 C7.34 4 6.68 4 6 4 C6 4.66 6 5.32 6 6 C5.34 6 4.68 6 4 6 C4 5.34 4 4.68 4 4 C3.01 3.67 2.02 3.34 1 3 C0.67 2.01 0.34 1.02 0 0 Z " fill="#4F4F4F" transform="translate(43,174)"/>
<path d="M0 0 C1.98 0 3.96 0 6 0 C6.33 1.32 6.66 2.64 7 4 C4.36 4 1.72 4 -1 4 C-0.67 2.68 -0.34 1.36 0 0 Z " fill="#939393" transform="translate(165,126)"/>
<path d="M0 0 C0 1.65 0 3.3 0 5 C-0.763125 4.835 -1.52625 4.67 -2.3125 4.5 C-5.03596236 3.90854604 -5.03596236 3.90854604 -8 4 C-8 3.34 -8 2.68 -8 2 C-1.125 0 -1.125 0 0 0 Z " fill="#949494" transform="translate(198,57)"/>
<path d="M0 0 C2.31 0.33 4.62 0.66 7 1 C7 2.32 7 3.64 7 5 C4.69 5 2.38 5 0 5 C0 3.35 0 1.7 0 0 Z " fill="#949494" transform="translate(287,472)"/>
<path d="M0 0 C2.125 0.9375 2.125 0.9375 4 2 C3.67 2.99 3.34 3.98 3 5 C1.35 5 -0.3 5 -2 5 C-2 3.68 -2 2.36 -2 1 C-1.34 0.67 -0.68 0.34 0 0 Z " fill="#ADADAD" transform="translate(286,464)"/>
<path d="M0 0 C-0.33 1.32 -0.66 2.64 -1 4 C-2.98 4 -4.96 4 -7 4 C-6.6875 2.0625 -6.6875 2.0625 -6 0 C-3 -1 -3 -1 0 0 Z " fill="#AAAAAA" transform="translate(190,426)"/>
<path d="M0 0 C2.31 0 4.62 0 7 0 C6.67 1.32 6.34 2.64 6 4 C3.69 4 1.38 4 -1 4 C-0.67 2.68 -0.34 1.36 0 0 Z " fill="#929292" transform="translate(328,417)"/>
<path d="M0 0 C2.31 0 4.62 0 7 0 C6.67 1.32 6.34 2.64 6 4 C4.68 4 3.36 4 2 4 C1.67 3.67 1.34 3.34 1 3 C0.01 3.495 0.01 3.495 -1 4 C-0.67 2.68 -0.34 1.36 0 0 Z " fill="#909090" transform="translate(165,417)"/>
<path d="M0 0 C2.83967231 0 5.23735711 0.40267181 8 1 C8 1.66 8 2.32 8 3 C5.69 3.33 3.38 3.66 1 4 C0.67 2.68 0.34 1.36 0 0 Z " fill="#C9C9C9" transform="translate(197,405)"/>
<path d="M0 0 C0 0.99 0 1.98 0 3 C0.66 3 1.32 3 2 3 C2 3.66 2 4.32 2 5 C-0.31 4.67 -2.62 4.34 -5 4 C-5.33 3.01 -5.66 2.02 -6 1 C-4 0 -4 0 0 0 Z " fill="#C4C4C4" transform="translate(234,355)"/>
<path d="M0 0 C2.83967231 0 5.23735711 0.40267181 8 1 C8 1.66 8 2.32 8 3 C5.69 3.33 3.38 3.66 1 4 C0.67 2.68 0.34 1.36 0 0 Z " fill="#C9C9C9" transform="translate(197,355)"/>
<path d="M0 0 C2.31 0 4.62 0 7 0 C7 1.32 7 2.64 7 4 C4.69 4 2.38 4 0 4 C0 2.68 0 1.36 0 0 Z " fill="#C2C2C2" transform="translate(170,355)"/>
<path d="M0 0 C1.65 0 3.3 0 5 0 C5.33 1.32 5.66 2.64 6 4 C3.69 4 1.38 4 -1 4 C-0.67 2.68 -0.34 1.36 0 0 Z " fill="#A1A1A1" transform="translate(323,250)"/>
<path d="M0 0 C2.31 0 4.62 0 7 0 C6.67 1.32 6.34 2.64 6 4 C4.68 4 3.36 4 2 4 C1.67 3.67 1.34 3.34 1 3 C0.01 3.495 0.01 3.495 -1 4 C-0.67 2.68 -0.34 1.36 0 0 Z " fill="#919191" transform="translate(165,250)"/>
<path d="M0 0 C2.83967231 0 5.23735711 0.40267181 8 1 C8 1.66 8 2.32 8 3 C5.69 3.33 3.38 3.66 1 4 C0.67 2.68 0.34 1.36 0 0 Z " fill="#C9C9C9" transform="translate(197,238)"/>
<path d="M0 0 C2.31 0 4.62 0 7 0 C7 1.32 7 2.64 7 4 C4.69 4 2.38 4 0 4 C0 2.68 0 1.36 0 0 Z " fill="#C2C2C2" transform="translate(170,238)"/>
<path d="M0 0 C0.66 0 1.32 0 2 0 C2.33 1.98 2.66 3.96 3 6 C0.36 5.67 -2.28 5.34 -5 5 C-5 4.01 -5 3.02 -5 2 C-3.35 2 -1.7 2 0 2 C0 1.34 0 0.68 0 0 Z " fill="#9D9D9D" transform="translate(304,201)"/>
<path d="M0 0 C2.31 0.33 4.62 0.66 7 1 C7 2.32 7 3.64 7 5 C4.69 5 2.38 5 0 5 C0 3.35 0 1.7 0 0 Z " fill="#939393" transform="translate(287,134)"/>
<path d="M0 0 C0.66 0.33 1.32 0.66 2 1 C1.67 1.66 1.34 2.32 1 3 C2.32 3.33 3.64 3.66 5 4 C4.01 4.33 3.02 4.66 2 5 C3.65 5 5.3 5 7 5 C6.67 5.66 6.34 6.32 6 7 C3.625 7.125 3.625 7.125 1 7 C0.34 6.34 -0.32 5.68 -1 5 C-0.625 2.375 -0.625 2.375 0 0 Z " fill="#141414" transform="translate(75,58)"/>
<path d="M0 0 C0.33 0.66 0.66 1.32 1 2 C2.32 1.67 3.64 1.34 5 1 C4.67 2.32 4.34 3.64 4 5 C2.35 5.33 0.7 5.66 -1 6 C-1.042721 4.33388095 -1.04063832 2.66617115 -1 1 C-0.67 0.67 -0.34 0.34 0 0 Z " fill="#969696" transform="translate(307,471)"/>
<path d="M0 0 C1.98 0 3.96 0 6 0 C6 1.32 6 2.64 6 4 C4.02 4 2.04 4 0 4 C0 2.68 0 1.36 0 0 Z " fill="#979797" transform="translate(319,473)"/>
<path d="M0 0 C1.65 0 3.3 0 5 0 C5.33 1.32 5.66 2.64 6 4 C3.69 4 1.38 4 -1 4 C-0.67 2.68 -0.34 1.36 0 0 Z " fill="#9F9F9F" transform="translate(323,465)"/>
<path d="M0 0 C1.43655854 -0.08131463 2.8744483 -0.13933559 4.3125 -0.1875 C5.51326172 -0.23970703 5.51326172 -0.23970703 6.73828125 -0.29296875 C9.47851584 0.06198392 10.29171079 0.89366282 12 3 C9.03 2.505 9.03 2.505 6 2 C6 2.66 6 3.32 6 4 C5.01 4 4.02 4 3 4 C1.3125 2 1.3125 2 0 0 Z " fill="#B7B7B7" transform="translate(275,416)"/>
<path d="M0 0 C0.33 0.66 0.66 1.32 1 2 C2.98 2 4.96 2 7 2 C6.67 2.99 6.34 3.98 6 5 C3.36 5 0.72 5 -2 5 C-2 4.01 -2 3.02 -2 2 C-1.34 2 -0.68 2 0 2 C0 1.34 0 0.68 0 0 Z " fill="#9C9C9C" transform="translate(222,375)"/>
<path d="M0 0 C1.65 0.33 3.3 0.66 5 1 C5 1.99 5 2.98 5 4 C3.02 4 1.04 4 -1 4 C-0.67 2.68 -0.34 1.36 0 0 Z " fill="#ACACAC" transform="translate(329,367)"/>
<path d="M0 0 C1.875 0.25 1.875 0.25 4 1 C5.25 3.0625 5.25 3.0625 6 5 C4.34385343 5.38218767 2.67542976 5.71395102 1 6 C0 5 0 5 -0.0625 2.4375 C-0.041875 1.633125 -0.02125 0.82875 0 0 Z " fill="#AEAEAE" transform="translate(172,366)"/>
<path d="M0 0 C2.97 0 5.94 0 9 0 C8.67 1.32 8.34 2.64 8 4 C6.02 4 4.04 4 2 4 C2 3.01 2 2.02 2 1 C1.34 0.67 0.68 0.34 0 0 Z " fill="#5E5E5E" transform="translate(188,347)"/>
<path d="M0 0 C0.12375 0.639375 0.2475 1.27875 0.375 1.9375 C0.684375 2.9584375 0.684375 2.9584375 1 4 C1.66 4.33 2.32 4.66 3 5 C0.36 5 -2.28 5 -5 5 C-5 4.01 -5 3.02 -5 2 C-3.35 2 -1.7 2 0 2 C0 1.34 0 0.68 0 0 Z " fill="#A1A1A1" transform="translate(247,307)"/>
<path d="M0 0 C1.65 0 3.3 0 5 0 C5.33 1.32 5.66 2.64 6 4 C3.69 4 1.38 4 -1 4 C-0.67 2.68 -0.34 1.36 0 0 Z " fill="#9F9F9F" transform="translate(323,300)"/>
<path d="M0 0 C0.12375 0.639375 0.2475 1.27875 0.375 1.9375 C0.684375 2.9584375 0.684375 2.9584375 1 4 C1.66 4.33 2.32 4.66 3 5 C0.36 5 -2.28 5 -5 5 C-5 4.01 -5 3.02 -5 2 C-3.35 2 -1.7 2 0 2 C0 1.34 0 0.68 0 0 Z " fill="#A1A1A1" transform="translate(247,258)"/>
<path d="M0 0 C1.98 0 3.96 0 6 0 C6 1.32 6 2.64 6 4 C4.02 4 2.04 4 0 4 C0 2.68 0 1.36 0 0 Z " fill="#989898" transform="translate(267,250)"/>
<path d="M0 0 C0 0.99 0 1.98 0 3 C0.66 3.33 1.32 3.66 2 4 C-0.64 4 -3.28 4 -6 4 C-6 3.01 -6 2.02 -6 1 C-4 0 -4 0 0 0 Z " fill="#959595" transform="translate(229,250)"/>
<path d="M0 0 C0 0.99 0 1.98 0 3 C0.66 3 1.32 3 2 3 C1.67 3.66 1.34 4.32 1 5 C-1.31 4.67 -3.62 4.34 -6 4 C-6 3.01 -6 2.02 -6 1 C-4 0 -4 0 0 0 Z " fill="#969696" transform="translate(229,194)"/>
<path d="M0 0 C0.66 0 1.32 0 2 0 C2.12375 0.639375 2.2475 1.27875 2.375 1.9375 C2.684375 2.9584375 2.684375 2.9584375 3 4 C3.66 4.33 4.32 4.66 5 5 C2.69 5 0.38 5 -2 5 C-1.125 1.125 -1.125 1.125 0 0 Z " fill="#9D9D9D" transform="translate(193,193)"/>
<path d="M0 0 C0 0.99 0 1.98 0 3 C0.66 3.33 1.32 3.66 2 4 C-0.64 4 -3.28 4 -6 4 C-6 3.01 -6 2.02 -6 1 C-4 0 -4 0 0 0 Z " fill="#969696" transform="translate(229,126)"/>
<path d="M0 0 C0.99 0 1.98 0 3 0 C3 1.65 3 3.3 3 5 C1.68 5.33 0.36 5.66 -1 6 C-1.042721 4.33388095 -1.04063832 2.66617115 -1 1 C-0.67 0.67 -0.34 0.34 0 0 Z " fill="#8E8E8E" transform="translate(47,125)"/>
<path d="M0 0 C0.66 0 1.32 0 2 0 C2.33 0.66 2.66 1.32 3 2 C3.66 1.34 4.32 0.68 5 0 C5 1.98 5 3.96 5 6 C3.33333333 6 1.66666667 6 0 6 C0 4.02 0 2.04 0 0 Z " fill="#4B4B4B" transform="translate(174,46)"/>
<path d="M0 0 C0.99 0 1.98 0 3 0 C3 0.66 3 1.32 3 2 C3.99 2.33 4.98 2.66 6 3 C5.67 3.66 5.34 4.32 5 5 C2.4375 5.625 2.4375 5.625 0 6 C0 4.02 0 2.04 0 0 Z " fill="#A0A0A0" transform="translate(327,471)"/>
<path d="M0 0 C1.65 0 3.3 0 5 0 C5.33 1.32 5.66 2.64 6 4 C4.02 4 2.04 4 0 4 C0 2.68 0 1.36 0 0 Z " fill="#A8A8A8" transform="translate(248,426)"/>
<path d="M0 0 C2.00720923 0.28674418 4.0085944 0.61866701 6 1 C6 2.32 6 3.64 6 5 C4.02 5 2.04 5 0 5 C-0.5625 3.0625 -0.5625 3.0625 -1 1 C-0.67 0.67 -0.34 0.34 0 0 Z " fill="#626262" transform="translate(155,395)"/>
<path d="M0 0 C-0.33 0.99 -0.66 1.98 -1 3 C-2.98 3 -4.96 3 -7 3 C-7 2.01 -7 1.02 -7 0 C-4.3333581 -1.33332095 -2.83319697 -0.67102033 0 0 Z " fill="#9B9B9B" transform="translate(285,309)"/>
<path d="M0 0 C0.66 0 1.32 0 2 0 C2.12375 0.639375 2.2475 1.27875 2.375 1.9375 C2.684375 2.9584375 2.684375 2.9584375 3 4 C3.66 4.33 4.32 4.66 5 5 C3.02 5 1.04 5 -1 5 C-1 1 -1 1 0 0 Z " fill="#9A9A9A" transform="translate(193,249)"/>
<path d="M0 0 C1.98 0 3.96 0 6 0 C6 1.32 6 2.64 6 4 C4.02 4 2.04 4 0 4 C0 2.68 0 1.36 0 0 Z " fill="#939393" transform="translate(319,135)"/>
<path d="M0 0 C0.928125 0.2784375 0.928125 0.2784375 1.875 0.5625 C4.04160178 1.23686176 4.04160178 1.23686176 6 0 C5.67 1.32 5.34 2.64 5 4 C3.35 4.33 1.7 4.66 0 5 C0 3.35 0 1.7 0 0 Z " fill="#949494" transform="translate(306,134)"/>
<path d="M0 0 C1.65 0 3.3 0 5 0 C4.67 1.32 4.34 2.64 4 4 C2.35 4 0.7 4 -1 4 C-0.67 2.68 -0.34 1.36 0 0 Z " fill="#C0C0C0" transform="translate(170,64)"/>
<path d="M0 0 C1.32 0 2.64 0 4 0 C4.66 1.32 5.32 2.64 6 4 C3.69 4 1.38 4 -1 4 C-0.67 2.68 -0.34 1.36 0 0 Z " fill="#A8A8A8" transform="translate(341,473)"/>
<path d="M0 0 C0 1.98 0 3.96 0 6 C-1.32 6 -2.64 6 -4 6 C-3.625 3.5625 -3.625 3.5625 -3 1 C-1 0 -1 0 0 0 Z " fill="#5B5B5B" transform="translate(62,464)"/>
<path d="M0 0 C0.99 0.33 1.98 0.66 3 1 C3.33 0.67 3.66 0.34 4 0 C4.99 0 5.98 0 7 0 C7 0.66 7 1.32 7 2 C7.66 2.33 8.32 2.66 9 3 C6.03 3 3.06 3 0 3 C0 2.01 0 1.02 0 0 Z " fill="#929292" transform="translate(228,427)"/>
<path d="M0 0 C0.33 1.32 0.66 2.64 1 4 C-3.75 5.125 -3.75 5.125 -6 4 C-5.67 3.01 -5.34 2.02 -5 1 C-3.35 0.67 -1.7 0.34 0 0 Z " fill="#969696" transform="translate(217,376)"/>
<path d="M0 0 C1.65 0 3.3 0 5 0 C5 1.32 5 2.64 5 4 C3.35 4 1.7 4 0 4 C0 2.68 0 1.36 0 0 Z " fill="#A9A9A9" transform="translate(231,367)"/>
<path d="M0 0 C0 0.99 0 1.98 0 3 C0.66 3.33 1.32 3.66 2 4 C-0.64 4 -3.28 4 -6 4 C-6 3.01 -6 2.02 -6 1 C-4 0 -4 0 0 0 Z " fill="#8E8E8E" transform="translate(227,367)"/>
<path d="M0 0 C2.00720923 0.28674418 4.0085944 0.61866701 6 1 C6 1.99 6 2.98 6 4 C4.35 4.33 2.7 4.66 1 5 C0.34 3.68 -0.32 2.36 -1 1 C-0.67 0.67 -0.34 0.34 0 0 Z " fill="#959595" transform="translate(319,308)"/>
<path d="M0 0 C0.99 0.33 1.98 0.66 3 1 C3 1.66 3 2.32 3 3 C3.66 3 4.32 3 5 3 C5.33 2.34 5.66 1.68 6 1 C6 1.99 6 2.98 6 4 C4.02 4.33 2.04 4.66 0 5 C-0.5625 3.0625 -0.5625 3.0625 -1 1 C-0.67 0.67 -0.34 0.34 0 0 Z " fill="#9D9D9D" transform="translate(168,210)"/>
<path d="M0 0 C0.33 0 0.66 0 1 0 C1 1.65 1 3.3 1 5 C-0.98 5 -2.96 5 -5 5 C-5 4.01 -5 3.02 -5 2 C-3.35 2 -1.7 2 0 2 C0 1.34 0 0.68 0 0 Z " fill="#9D9D9D" transform="translate(247,201)"/>
<path d="M0 0 C1.98 0 3.96 0 6 0 C6 1.98 6 3.96 6 6 C5.67 4.68 5.34 3.36 5 2 C4.34 2 3.68 2 3 2 C2.67 3.32 2.34 4.64 2 6 C2 4.68 2 3.36 2 2 C1.34 2 0.68 2 0 2 C0 1.34 0 0.68 0 0 Z " fill="#8D8D8D" transform="translate(225,172)"/>
<path d="M0 0 C1.65 0 3.3 0 5 0 C5 1.32 5 2.64 5 4 C3.35 4 1.7 4 0 4 C0 2.68 0 1.36 0 0 Z " fill="#A4A4A4" transform="translate(212,135)"/>
<path d="M0 0 C1.65 0 3.3 0 5 0 C4.67 1.65 4.34 3.3 4 5 C2.68 4.67 1.36 4.34 0 4 C0 2.68 0 1.36 0 0 Z " fill="#F47E56" transform="translate(74,76)"/>
<path d="M0 0 C0.33 0.66 0.66 1.32 1 2 C1.66 2 2.32 2 3 2 C3 2.66 3 3.32 3 4 C0.69 4.33 -1.62 4.66 -4 5 C-4 4.01 -4 3.02 -4 2 C-2.68 2 -1.36 2 0 2 C0 1.34 0 0.68 0 0 Z " fill="#A0A0A0" transform="translate(185,471)"/>
<path d="M0 0 C0.66 0 1.32 0 2 0 C2.33 1.98 2.66 3.96 3 6 C1.35 6 -0.3 6 -2 6 C-1.34 4.02 -0.68 2.04 0 0 Z " fill="#585858" transform="translate(40,464)"/>
<path d="M0 0 C1.65 0 3.3 0 5 0 C5 1.32 5 2.64 5 4 C3.35 4 1.7 4 0 4 C-0.33 3.34 -0.66 2.68 -1 2 C-0.67 1.34 -0.34 0.68 0 0 Z " fill="#999999" transform="translate(270,426)"/>
<path d="M0 0 C2.97 0.495 2.97 0.495 6 1 C5.67 1.99 5.34 2.98 5 4 C3.35 4 1.7 4 0 4 C0 2.68 0 1.36 0 0 Z " fill="#8F8F8F" transform="translate(189,376)"/>
<path d="M0 0 C2.64 0 5.28 0 8 0 C8 0.99 8 1.98 8 3 C6.33388095 3.042721 4.66617115 3.04063832 3 3 C2.67 2.67 2.34 2.34 2 2 C1.01 2.495 1.01 2.495 0 3 C0 2.01 0 1.02 0 0 Z " fill="#999999" transform="translate(163,368)"/>
<path d="M0 0 C2.64 0 5.28 0 8 0 C6.75 2 6.75 2 5 4 C3.68 4 2.36 4 1 4 C0.67 2.68 0.34 1.36 0 0 Z " fill="#BEBEBE" transform="translate(254,355)"/>
<path d="M0 0 C0 1.98 0 3.96 0 6 C-1.32 5.67 -2.64 5.34 -4 5 C-3.625 3.0625 -3.625 3.0625 -3 1 C-1 0 -1 0 0 0 Z " fill="#595959" transform="translate(47,345)"/>
<path d="M0 0 C2.31 0 4.62 0 7 0 C7 0.99 7 1.98 7 3 C4.69 3.33 2.38 3.66 0 4 C0 2.68 0 1.36 0 0 Z " fill="#8E8E8E" transform="translate(262,309)"/>
<path d="M0 0 C1.66666667 0 3.33333333 0 5 0 C5 1.65 5 3.3 5 5 C3.33333333 5 1.66666667 5 0 5 C0 3.35 0 1.7 0 0 Z " fill="#595959" transform="translate(187,278)"/>
<path d="M0 0 C2.64 0 5.28 0 8 0 C6.75 2 6.75 2 5 4 C3.68 4 2.36 4 1 4 C0.67 2.68 0.34 1.36 0 0 Z " fill="#BDBDBD" transform="translate(254,238)"/>
<path d="M0 0 C1.66666667 0 3.33333333 0 5 0 C5 1.65 5 3.3 5 5 C3.33333333 5 1.66666667 5 0 5 C0 3.35 0 1.7 0 0 Z " fill="#5A5A5A" transform="translate(187,228)"/>
<path d="M0 0 C0.99 0 1.98 0 3 0 C3 0.66 3 1.32 3 2 C3.66 2 4.32 2 5 2 C5 2.66 5 3.32 5 4 C3.35 4.66 1.7 5.32 0 6 C0 4.02 0 2.04 0 0 Z " fill="#6F6F6F" transform="translate(170,229)"/>
<path d="M0 0 C0.66 0.99 1.32 1.98 2 3 C2.33 2.01 2.66 1.02 3 0 C3.99 0.33 4.98 0.66 6 1 C5.67 1.99 5.34 2.98 5 4 C3.02 4 1.04 4 -1 4 C-0.67 2.68 -0.34 1.36 0 0 Z " fill="#9E9E9E" transform="translate(233,194)"/>
<path d="M0 0 C-0.33 0.99 -0.66 1.98 -1 3 C-3.31 3 -5.62 3 -8 3 C-7.34 2.67 -6.68 2.34 -6 2 C-6 1.34 -6 0.68 -6 0 C-3.50907189 -1.24546405 -2.58919267 -0.7767578 0 0 Z " fill="#929292" transform="translate(190,195)"/>
<path d="M0 0 C1.66666667 0 3.33333333 0 5 0 C5 1.65 5 3.3 5 5 C3.33333333 5 1.66666667 5 0 5 C0 3.35 0 1.7 0 0 Z " fill="#595959" transform="translate(187,173)"/>
<path d="M0 0 C2.97 0.495 2.97 0.495 6 1 C5.67 1.99 5.34 2.98 5 4 C3.35 4.33 1.7 4.66 0 5 C0 3.35 0 1.7 0 0 Z " fill="#9A9A9A" transform="translate(327,134)"/>
<path d="M0 0 C1.9375 0.8125 1.9375 0.8125 4 2 C4.33 2.99 4.66 3.98 5 5 C2.69 5 0.38 5 -2 5 C-1.34 3.35 -0.68 1.7 0 0 Z " fill="#8B8B8B" transform="translate(309,125)"/>
<path d="M0 0 C0.66 0.33 1.32 0.66 2 1 C1.67 2.65 1.34 4.3 1 6 C-0.32 5.67 -1.64 5.34 -3 5 C-2.01 3.35 -1.02 1.7 0 0 Z " fill="#F1C8B4" transform="translate(163,78)"/>
<path d="M0 0 C1.98 0.99 1.98 0.99 4 2 C3.67 3.32 3.34 4.64 3 6 C2.01 6 1.02 6 0 6 C0 4.02 0 2.04 0 0 Z " fill="#BDBDBD" transform="translate(193,64)"/>
<path d="M0 0 C1.65 0 3.3 0 5 0 C5 1.32 5 2.64 5 4 C3.02 4 1.04 4 -1 4 C-0.67 2.68 -0.34 1.36 0 0 Z " fill="#9A9A9A" transform="translate(331,465)"/>
<path d="M0 0 C0.33 1.32 0.66 2.64 1 4 C-0.32 4.33 -1.64 4.66 -3 5 C-3.33 3.68 -3.66 2.36 -4 1 C-2 0 -2 0 0 0 Z " fill="#949494" transform="translate(294,465)"/>
<path d="M0 0 C-0.33 0.99 -0.66 1.98 -1 3 C-2.65 2.67 -4.3 2.34 -6 2 C-6 1.34 -6 0.68 -6 0 C-3.50907189 -1.24546405 -2.58919267 -0.7767578 0 0 Z " fill="#D3D3D3" transform="translate(167,406)"/>
<path d="M0 0 C1.32 0.33 2.64 0.66 4 1 C4 1.66 4 2.32 4 3 C3.34 3 2.68 3 2 3 C2 3.66 2 4.32 2 5 C2.66 5.33 3.32 5.66 4 6 C2.68 6 1.36 6 0 6 C0 4.02 0 2.04 0 0 Z " fill="#4F4F4F" transform="translate(38,345)"/>
<path d="M0 0 C1.98 0.66 3.96 1.32 6 2 C6 2.99 6 3.98 6 5 C4.02 5 2.04 5 0 5 C0 3.35 0 1.7 0 0 Z " fill="#8C8C8C" transform="translate(287,307)"/>
<path d="M0 0 C1.65 0 3.3 0 5 0 C5 1.32 5 2.64 5 4 C3.02 4 1.04 4 -1 4 C-0.67 2.68 -0.34 1.36 0 0 Z " fill="#9A9A9A" transform="translate(331,300)"/>
<path d="M0 0 C0.928125 0.5259375 0.928125 0.5259375 1.875 1.0625 C2.57625 1.371875 3.2775 1.68125 4 2 C4.66 1.67 5.32 1.34 6 1 C5.34 2.32 4.68 3.64 4 5 C2.35 4.67 0.7 4.34 -1 4 C-0.67 2.68 -0.34 1.36 0 0 Z " fill="#939393" transform="translate(279,299)"/>
<path d="M0 0 C0.33 1.32 0.66 2.64 1 4 C-0.32 4.33 -1.64 4.66 -3 5 C-3.33 3.68 -3.66 2.36 -4 1 C-2 0 -2 0 0 0 Z " fill="#949494" transform="translate(294,300)"/>
<path d="M0 0 C-0.33 0.99 -0.66 1.98 -1 3 C-2.65 2.67 -4.3 2.34 -6 2 C-6 1.34 -6 0.68 -6 0 C-3.50907189 -1.24546405 -2.58919267 -0.7767578 0 0 Z " fill="#D3D3D3" transform="translate(167,289)"/>
<path d="M0 0 C4.55384615 -0.36923077 4.55384615 -0.36923077 6.8125 1.5 C7.204375 1.995 7.59625 2.49 8 3 C6.35 3.66 4.7 4.32 3 5 C3 4.34 3 3.68 3 3 C1.54166642 1.37485532 1.54166642 1.37485532 0 0 Z " fill="#B8B8B8" transform="translate(222,259)"/>
<path d="M0 0 C0.928125 0.5259375 0.928125 0.5259375 1.875 1.0625 C2.57625 1.371875 3.2775 1.68125 4 2 C4.66 1.67 5.32 1.34 6 1 C5.34 2.32 4.68 3.64 4 5 C2.35 4.67 0.7 4.34 -1 4 C-0.67 2.68 -0.34 1.36 0 0 Z " fill="#939393" transform="translate(279,249)"/>
<path d="M0 0 C0.99 0 1.98 0 3 0 C3.33 1.65 3.66 3.3 4 5 C2.35 4.67 0.7 4.34 -1 4 C-0.67 2.68 -0.34 1.36 0 0 Z " fill="#939393" transform="translate(194,229)"/>
<path d="M0 0 C1.98 0.495 1.98 0.495 4 1 C3.67 2.65 3.34 4.3 3 6 C1.68 5.34 0.36 4.68 -1 4 C-0.67 2.68 -0.34 1.36 0 0 Z " fill="#8F8F8F" transform="translate(181,229)"/>
<path d="M0 0 C0 1.32 0 2.64 0 4 C-1.98 4 -3.96 4 -6 4 C-5.67 3.01 -5.34 2.02 -5 1 C-2 0 -2 0 0 0 Z " fill="#909090" transform="translate(297,202)"/>
<path d="M0 0 C1.9375 0.8125 1.9375 0.8125 4 2 C4.33 2.99 4.66 3.98 5 5 C2.69 5 0.38 5 -2 5 C-1.34 3.35 -0.68 1.7 0 0 Z " fill="#898989" transform="translate(309,193)"/>
<path d="M0 0 C1.65 0 3.3 0 5 0 C5.33 1.32 5.66 2.64 6 4 C4.02 4 2.04 4 0 4 C0 2.68 0 1.36 0 0 Z " fill="#9A9A9A" transform="translate(330,194)"/>
<path d="M0 0 C0.99 0.33 1.98 0.66 3 1 C3 2.32 3 3.64 3 5 C1.68 5 0.36 5 -1 5 C-0.67 3.35 -0.34 1.7 0 0 Z " fill="#666666" transform="translate(77,173)"/>
<path d="M0 0 C2.64 0 5.28 0 8 0 C8 0.99 8 1.98 8 3 C6.25 3.75 6.25 3.75 4 4 C1.75 2.0625 1.75 2.0625 0 0 Z " fill="#909090" transform="translate(159,66)"/>
<path d="M0 0 C2.475 0.495 2.475 0.495 5 1 C4.67 2.32 4.34 3.64 4 5 C2.68 5 1.36 5 0 5 C0 3.35 0 1.7 0 0 Z " fill="#9A9A9A" transform="translate(205,472)"/>
<path d="M0 0 C1.65 0.33 3.3 0.66 5 1 C5 1.99 5 2.98 5 4 C3.02 4 1.04 4 -1 4 C-0.67 2.68 -0.34 1.36 0 0 Z " fill="#AAAAAA" transform="translate(216,465)"/>
<path d="M0 0 C1.65 0.33 3.3 0.66 5 1 C5 1.99 5 2.98 5 4 C3.02 4 1.04 4 -1 4 C-0.67 2.68 -0.34 1.36 0 0 Z " fill="#AAAAAA" transform="translate(216,417)"/>
<path d="M0 0 C1.9375 0.3125 1.9375 0.3125 4 1 C4.33 1.99 4.66 2.98 5 4 C2.69 4 0.38 4 -2 4 C-2 3.34 -2 2.68 -2 2 C-1.34 2 -0.68 2 0 2 C0 1.34 0 0.68 0 0 Z " fill="#909090" transform="translate(244,367)"/>
<path d="M0 0 C0 1.65 0 3.3 0 5 C-1.65 4.67 -3.3 4.34 -5 4 C-4.67 3.01 -4.34 2.02 -4 1 C-1 0 -1 0 0 0 Z " fill="#999999" transform="translate(302,366)"/>
<path d="M0 0 C1.65 0.33 3.3 0.66 5 1 C5 1.99 5 2.98 5 4 C3.02 4 1.04 4 -1 4 C-0.67 2.68 -0.34 1.36 0 0 Z " fill="#AAAAAA" transform="translate(216,300)"/>
<path d="M0 0 C1.65 0 3.3 0 5 0 C5 1.33333333 5 2.66666667 5 4 C3.02 4 1.04 4 -1 4 C-0.67 2.68 -0.34 1.36 0 0 Z " fill="#959595" transform="translate(331,250)"/>
<path d="M0 0 C0 1.65 0 3.3 0 5 C-1.32 4.67 -2.64 4.34 -4 4 C-4 3.01 -4 2.02 -4 1 C-2 0 -2 0 0 0 Z " fill="#919191" transform="translate(294,250)"/>
<path d="M0 0 C0 1.65 0 3.3 0 5 C-1.32 4.67 -2.64 4.34 -4 4 C-4 3.01 -4 2.02 -4 1 C-2 0 -2 0 0 0 Z " fill="#919191" transform="translate(294,194)"/>
<path d="M0 0 C1.65 0.33 3.3 0.66 5 1 C4.67 1.99 4.34 2.98 4 4 C2.35 4 0.7 4 -1 4 C-0.67 2.68 -0.34 1.36 0 0 Z " fill="#939393" transform="translate(255,194)"/>
<path d="M0 0 C1.65 0 3.3 0 5 0 C5 1.32 5 2.64 5 4 C3.35 4 1.7 4 0 4 C0 2.68 0 1.36 0 0 Z " fill="#CACACA" transform="translate(164,182)"/>
<path d="M0 0 C0.66 0.33 1.32 0.66 2 1 C2 1.99 2 2.98 2 4 C0.02 4 -1.96 4 -4 4 C-3.67 3.01 -3.34 2.02 -3 1 C-2.01 0.67 -1.02 0.34 0 0 Z " fill="#959595" transform="translate(212,126)"/>
<path d="M0 0 C0 1.65 0 3.3 0 5 C-1.32 4.67 -2.64 4.34 -4 4 C-4 3.01 -4 2.02 -4 1 C-2 0 -2 0 0 0 Z " fill="#919191" transform="translate(294,126)"/>
<path d="M0 0 C2.475 0.495 2.475 0.495 5 1 C4.6875 2.9375 4.6875 2.9375 4 5 C3.01 5.33 2.02 5.66 1 6 C1 5.34 1 4.68 1 4 C1.66 4 2.32 4 3 4 C3 3.34 3 2.68 3 2 C2.01 2 1.02 2 0 2 C0 1.34 0 0.68 0 0 Z " fill="#F2CBB8" transform="translate(179,87)"/>
<path d="M0 0 C0.66 0 1.32 0 2 0 C4 2 4 2 4 5 C2.68 5.33 1.36 5.66 0 6 C0 4 0 2 0 0 Z " fill="#979797" transform="translate(182,56)"/>
</svg>
